<svg width="511.999" height="511.999" xmlns="http://www.w3.org/2000/svg">

 <g>
  <title>background</title>
  <rect fill="none" id="canvas_background" height="402" width="582" y="-1" x="-1"/>
 </g>
 <g>
  <title>Layer 1</title>
  <g id="svg_1">
   <path id="svg_2" fill="#C2B8B9" d="m296.109,149.56c0,-19.186 -15.698,-34.884 -34.884,-34.884l-159.788,0c-19.186,0 -34.884,15.698 -34.884,34.884l0,44.657l114.778,22.505l114.778,-22.505l0,-44.657z"/>
   <path id="svg_3" fill="#C2B8B9" d="m66.553,468.677c0,19.186 15.698,34.884 34.884,34.884l159.789,0c19.186,0 34.884,-15.698 34.884,-34.884l0,-44.657l-114.778,-22.505l-114.779,22.505l0,44.657l0,0z"/>
  </g>
  <rect id="svg_4" fill="#e82d14" height="229.804" width="229.556" y="194.211" x="66.549"/>
  <path id="svg_5" fill="#FFD24D" d="m445.447,126.852c0,-65.396 -66.757,-118.413 -149.099,-118.413c-82.348,0.001 -149.099,53.017 -149.099,118.413c0,58.425 53.279,106.963 123.359,116.649l-0.213,0c3.677,22.588 -3.108,46.574 -20.365,63.996c37.029,0 67.596,-27.889 72.239,-63.992l-0.213,0c70.091,-9.676 123.391,-58.219 123.391,-116.653z"/>
  <path id="svg_6" d="m296.348,322.102c-4.662,0 -8.44,3.779 -8.44,8.44l0,85.039l-212.915,0l0,-212.925l64.973,0c4.662,0 8.44,-3.779 8.44,-8.44s-3.778,-8.44 -8.44,-8.44l-64.973,0l0,-35.746c0,-14.84 12.073,-26.913 26.914,-26.913l12.152,0c4.662,0 8.44,-3.779 8.44,-8.44c0,-4.661 -3.778,-8.44 -8.44,-8.44l-12.152,0c-24.147,0 -43.793,19.645 -43.793,43.792l0,318.177c0,24.147 19.646,43.792 43.793,43.792l159.088,0c24.147,0 43.793,-19.645 43.793,-43.792l0,-137.664c-0.001,-4.661 -3.778,-8.44 -8.44,-8.44zm-35.354,173.019l-159.087,0c-14.84,0 -26.914,-12.073 -26.914,-26.913l0,-35.748l212.917,0l0,35.748c-0.002,14.84 -12.075,26.913 -26.916,26.913z"/>
  <path id="svg_10" d="m407.024,36.513c-29.648,-23.546 -68.953,-36.513 -110.677,-36.513s-81.031,12.968 -110.678,36.513c-30.218,24 -46.86,56.083 -46.86,90.339c0,60.131 51.726,111.412 123.948,123.966c1.314,18.747 -5.467,37.357 -18.723,50.74c-2.398,2.42 -3.105,6.044 -1.794,9.188c1.311,3.143 4.383,5.191 7.789,5.191c38.595,0 71.737,-27.551 79.55,-65.058c72.413,-12.447 124.306,-63.794 124.306,-124.027c0.001,-34.255 -16.641,-66.339 -46.861,-90.339zm-86.12,198.631c-4.395,0.608 -7.571,4.512 -7.266,8.939c0.002,0.039 0.006,0.078 0.009,0.117c-3.884,24.845 -21.622,44.717 -44.547,51.931c8.805,-15.595 12.422,-33.898 9.925,-52.002c0.001,-0.017 0.002,-0.033 0.003,-0.048c0.305,-4.426 -2.871,-8.332 -7.265,-8.939c-67.258,-9.296 -116.073,-54.838 -116.073,-108.289c0,-60.64 63.099,-109.973 140.658,-109.973c77.561,0 140.66,49.333 140.66,109.973c-0.001,53.46 -48.829,99.003 -116.104,108.291z"/>
  <g id="svg_11"/>
  <g id="svg_12"/>
  <g id="svg_13"/>
  <g id="svg_14"/>
  <g id="svg_15"/>
  <g id="svg_16"/>
  <g id="svg_17"/>
  <g id="svg_18"/>
  <g id="svg_19"/>
  <g id="svg_20"/>
  <g id="svg_21"/>
  <g id="svg_22"/>
  <g id="svg_23"/>
  <g id="svg_24"/>
  <g id="svg_25"/>
  <text font-weight="bold" stroke="null" transform="matrix(4.265400541561774,0,0,4.318561703194973,-918.9200610984078,-400.06208398496244) " xml:space="preserve" text-anchor="start" font-family="'Simonetta', serif" font-size="24" id="svg_26" y="130.67882" x="261.389511" fill-opacity="null" stroke-opacity="null" stroke-width="0" fill="#000000">OTP</text>
  <ellipse ry="20.5" rx="19" id="svg_27" cy="464.937" cx="182.499512" stroke-opacity="null" stroke-width="null" stroke="null" fill="#1e1a1a"/>
 </g>
</svg>