<svg width="512" height="512" xmlns="http://www.w3.org/2000/svg">
 <defs>
  <linearGradient y2="0.007311" x2="0.500015" y1="1.286035" x1="0.500015" id="SVGID_1_">
   <stop stop-color="#D63305" offset="0"/>
   <stop stop-color="#D8360C" offset="0.117"/>
   <stop stop-color="#DD3E20" offset="0.288"/>
   <stop stop-color="#E44C40" offset="0.492"/>
   <stop stop-color="#EF606C" offset="0.722"/>
   <stop stop-color="#FD78A5" offset="0.97"/>
   <stop stop-color="#FF7BAC" offset="1"/>
  </linearGradient>
 </defs>
 <g>
  <title>background</title>
  <rect fill="none" id="canvas_background" height="402" width="582" y="-1" x="-1"/>
 </g>
 <g>
  <title>Layer 1</title>
  <path id="svg_1" fill="url(#SVGID_1_)" d="m384,48.734c-70.692,0 -128,57.308 -128,128c0,-70.692 -57.308,-128 -128,-128s-128,57.308 -128,128c0,137.424 188.048,252.681 241.805,282.821c8.823,4.947 19.567,4.947 28.39,0c53.757,-30.139 241.805,-145.397 241.805,-282.821c0,-70.692 -57.308,-128 -128,-128z"/>
  <path id="svg_2" fill="#f72f1d" d="m241.805,459.555c8.823,4.947 19.567,4.947 28.39,0c39.633,-22.222 152.254,-90.716 208.7,-180.244l-0.019,0c0.559,-0.887 1.122,-1.774 1.671,-2.666c0.002,-0.003 0.004,-0.006 0.006,-0.011l-114.098,0c-9.45,0 -18.3,3.612 -24.946,9.937c-0.048,-0.037 -0.093,-0.077 -0.141,-0.114l-50.838,-50.838c-2.814,-3.655 -7.203,-5.773 -12.058,-5.578c-6.22,0.251 -11.439,4.251 -13.296,10.191l-5.964,19.068l-55.458,-55.305c-2.606,-3.428 -6.663,-5.559 -11.249,-5.655c-6.732,-0.154 -12.406,4.07 -14.271,10.478l-15.622,53.683c-2.422,8.322 -10.166,14.134 -18.834,14.134l-112.332,0c0.002,0.003 0.004,0.006 0.006,0.011c2.528,4.11 5.177,8.175 7.931,12.195c0.129,0.188 0.257,0.377 0.386,0.563c0.892,1.295 1.792,2.586 2.705,3.871l0.806,0l101.293,102.025c39.864,30.765 77.551,53.221 97.232,64.255z"/>
  <path id="svg_3" fill="#FFFFFF" d="m480.554,276.636l-114.099,0c-12.487,0 -23.935,6.297 -30.621,16.845l-13.059,20.602l-30.228,-74.946c-2.329,-5.773 -7.823,-9.344 -14.074,-9.092c-6.22,0.251 -11.439,4.251 -13.296,10.191l-28.706,91.774l-30.149,-122.601c-1.593,-6.48 -7.147,-10.928 -13.818,-11.068c-6.732,-0.154 -12.406,4.07 -14.271,10.478l-15.622,53.683c-2.422,8.322 -10.166,14.134 -18.834,14.134l-112.331,0c3.462,5.63 7.147,11.179 11.028,16.64l101.303,0c16.02,0 30.334,-10.742 34.812,-26.125l13.44,-46.186l30.075,122.306c1.577,6.414 7.071,10.861 13.671,11.067c0.159,0.004 0.316,0.006 0.474,0.006c6.402,0 11.936,-4.05 13.86,-10.203l29.198,-93.346l29.564,73.296c2.05,5.082 6.714,8.547 12.17,9.044c5.455,0.501 10.669,-2.07 13.604,-6.698l15.245,-24.05c3.616,-5.707 9.81,-9.114 16.566,-9.114l103.071,0c3.88,-5.458 7.564,-11.007 11.027,-16.637z"/>
  <g id="svg_4"/>
  <g id="svg_5"/>
  <g id="svg_6"/>
  <g id="svg_7"/>
  <g id="svg_8"/>
  <g id="svg_9"/>
  <g id="svg_10"/>
  <g id="svg_11"/>
  <g id="svg_12"/>
  <g id="svg_13"/>
  <g id="svg_14"/>
  <g id="svg_15"/>
  <g id="svg_16"/>
  <g id="svg_17"/>
  <g id="svg_18"/>
 </g>
</svg>