<?xml version="1.0"?>
<svg xmlns="http://www.w3.org/2000/svg" id="Layer_1" data-name="Layer 1" viewBox="0 0 512 512" width="512" height="512"><title>Male Investor</title><path d="M374.5,137.49a115.03,115.03,0,1,1-115,115A115,115,0,0,1,374.5,137.49Zm90,115a90.009,90.009,0,1,0-90,90A89.994,89.994,0,0,0,464.5,252.49Z" style="fill:#6fe3ff"/><path d="M374.5,162.49a90.02,90.02,0,1,1-90,90A89.994,89.994,0,0,1,374.5,162.49Z" style="fill:#6fe3ff"/><polygon points="338.7 448.35 313.84 423.49 364 423.49 364 473.65 338.7 448.35" style="fill:#e48e66"/><polygon points="160.84 63.65 185.7 88.51 135.54 88.51 135.54 38.35 160.84 63.65" style="fill:#e48e66"/><path d="M182.5,345.75v43.97H148.09V345.75a31.2,31.2,0,0,1,17.16-25.34l.01-.03.08.03A31.224,31.224,0,0,1,182.5,345.75Z" style="fill:#e48e66"/><path d="M172.76,211.43a14.886,14.886,0,0,1-11.86,18.23v.1a58.55,58.55,0,1,1-117.1,0v-.09a14.91,14.91,0,0,1-11.9-18.24,11.237,11.237,0,0,1,10.04-8.55l.07-.02a4.832,4.832,0,0,0,2.49,3.19s8.7,3.49,8.76,2.63l2.07-25.78a2.4,2.4,0,0,1,2.65-2.2l9.61,1.04a56.591,56.591,0,0,0,52.18-23.48l5.72.25a24.372,24.372,0,0,1,21.33,14.79l9.15,37.73,4.93-4.61a5.932,5.932,0,0,0,1.84-3.53h.02A11.206,11.206,0,0,1,172.76,211.43Z" style="fill:#f8ec7d"/><path d="M165.26,320.38l-.01.03a31.2,31.2,0,0,0-17.16,25.34v43.97H120.88L109.32,327.4l11.19,7.46,18.02-24.02v-.1h.03Z" style="fill:#e48e66"/><path d="M102.35,116.55a61.942,61.942,0,0,1,61.8,66.2l-1.36,19.7c-.01.15-.03.3-.05.44a5.932,5.932,0,0,1-1.84,3.53l-4.93,4.61-9.15-37.73a24.372,24.372,0,0,0-21.33-14.79l-5.72-.25a56.591,56.591,0,0,1-52.18,23.48l-9.61-1.04a2.4,2.4,0,0,0-2.65,2.2l-2.07,25.78c-.06.86-8.76-2.63-8.76-2.63a4.832,4.832,0,0,1-2.49-3.19,3.967,3.967,0,0,1-.12-.78l-1.34-19.33c-.1-1.46-.15-2.9-.15-4.34A61.949,61.949,0,0,1,102.35,116.55Z" style="fill:#e48e66"/><polygon points="122.24 309.69 138.53 298.83 138.53 310.74 138.53 310.84 120.51 334.86 109.32 327.4 109.32 327.39 102.5 322.85 122.24 309.69" style="fill:#af593c"/><path d="M122.24,292.12v17.57L102.5,322.85,82.81,309.72V285.19l.07-.2a58.663,58.663,0,0,0,39.36-.14v7.27Z" style="fill:#f8ec7d"/><polygon points="120.88 389.72 121.01 390.41 103 414.43 84.98 390.41 85.11 389.72 96.83 326.63 102.5 322.85 109.32 327.39 109.32 327.4 120.88 389.72" style="fill:#6fe3ff"/><polygon points="96.83 326.63 84.49 334.86 66.47 310.84 66.47 310.75 66.47 298.83 82.81 309.72 102.5 322.85 96.83 326.63" style="fill:#af593c"/><path d="M96.83,326.63,85.11,389.72H57.07V345.75a31.224,31.224,0,0,0-17.16-25.34l-.03-.08,26.54-9.58h.05v.09l18.02,24.02Z" style="fill:#e48e66"/><path d="M57.07,345.75v43.97H22.5V345.75a31.224,31.224,0,0,1,17.16-25.34l.22-.08.03.08A31.224,31.224,0,0,1,57.07,345.75Z" style="fill:#e48e66"/><path d="M290.429,298.862A96.02,96.02,0,1,0,278.5,252.49,96.092,96.092,0,0,0,290.429,298.862ZM374.5,168.49a84.021,84.021,0,1,1-84,84A84.1,84.1,0,0,1,374.5,168.49Z" style="fill:#63316d"/><path d="M374.6,301.545c-.035,0-.068,0-.1,0s-.067,0-.1,0A20.08,20.08,0,0,1,354.44,281.49a6,6,0,0,0-6-6,6.219,6.219,0,0,0-6.25,6c0,15.627,11.81,28.67,25.81,31.488V323.05a6,6,0,0,0,12,0V312.978a32.037,32.037,0,0,0-5.625-63.558,20.06,20.06,0,1,1,20.169-20.06,6.007,6.007,0,0,0,6.008,6,5.8,5.8,0,0,0,5.754-6A32.15,32.15,0,0,0,380,197.871V188.98a6,6,0,0,0-12,0v8.891c-14,2.818-25.81,15.862-25.81,31.489a32.2,32.2,0,0,0,32.185,32.06,20.063,20.063,0,0,1,.227,40.125Z" style="fill:#63316d"/><path d="M253.5,252.49a121,121,0,1,0,121-121A121.076,121.076,0,0,0,253.5,252.49Zm121-109a109.029,109.029,0,1,1-109,109A109.123,109.123,0,0,1,374.5,143.49Z" style="fill:#63316d"/><path d="M135.54,95H185.7a6.274,6.274,0,0,0,4.242-10.61L169.7,64.085A131.025,131.025,0,0,1,359.165,91.147a6,6,0,0,0,9.83-6.9A143.049,143.049,0,0,0,161.17,55.5L139.782,34.108a5.634,5.634,0,0,0-6.308-1.3A5.8,5.8,0,0,0,130,38.35V88.51C130,91.823,132.227,95,135.54,95ZM142,52.835l14.881,15.111c.017.017-.086.037-.069.054s-.033.262-.022.273L171.215,83H142Z" style="fill:#63316d"/><path d="M140.375,420.869a6,6,0,1,0-9.83,6.882A143.049,143.049,0,0,0,338.37,456.505l21.388,21.388A6,6,0,0,0,370,473.65V423.49c0-3.313-2.687-6.49-6-6.49H313.84a6.274,6.274,0,0,0-4.242,10.61l20.244,20.306a131.04,131.04,0,0,1-189.467-27.047ZM358,429v30.165l-14.979-14.979c-.058-.061-.1-.132-.164-.191-.044-.041-.093-.316-.138-.356L328.325,429Z" style="fill:#63316d"/><path d="M22.5,396H81.463L98.2,418.171a6.139,6.139,0,0,0,9.6.033L124.527,396H182.5c3.313,0,5.5-2.966,5.5-6.28V345.75c0-.167.243-.334.229-.5A37.318,37.318,0,0,0,167.9,315.042a5.081,5.081,0,0,0-.5-.244c-.028-.011.13-.051.1-.062L145,306.517V298.83a6.228,6.228,0,0,0-3.4-5.29c-.179-.1-.482-.171-.667-.248l-.055-.01-11.7-4.806a65.025,65.025,0,0,0,18.832-13.063A64.1,64.1,0,0,0,166.76,234.1a20.9,20.9,0,0,0,11.83-24.089,17.015,17.015,0,0,0-9.509-11.555l1.055-15.292A67.942,67.942,0,0,0,102.35,110.55,67.982,67.982,0,0,0,34.4,178.41c0,1.562.055,3.16.164,4.755l1.059,15.268A17.04,17.04,0,0,0,26.074,210a20.916,20.916,0,0,0,11.87,24.127,64.085,64.085,0,0,0,18.764,41.289,64.919,64.919,0,0,0,18.925,13.094l-11.448,4.715.025.061c-.192.079-.621.158-.806.257a6.23,6.23,0,0,0-3.4,5.29v7.689l-22.41,8.174-.1.08a5.154,5.154,0,0,0-.567.269,37.693,37.693,0,0,0-20.68,30.208c-.014.166-.241.333-.241.5v43.97A6.69,6.69,0,0,0,22.5,396Zm40.515-50.75a37.43,37.43,0,0,0-10.632-23.06L64.261,317.9,79.686,338.46a6,6,0,0,0,8.132,1.392l.516-.2L80.122,384H63V345.75C63,345.583,63.028,345.416,63.015,345.25ZM140.731,317.9l11.987,4.327a37.438,37.438,0,0,0-10.653,23.024c-.013.164-.065.329-.065.5V384H125.871L117.8,340.339a5.889,5.889,0,0,0,2.709.591,6.03,6.03,0,0,0,4.8-2.435Zm-21.615,8.816-5.8-3.868,17.413-11.608ZM116,306.479l-13.525,9.16L89,306.512v-13.62a63.027,63.027,0,0,0,27-.07ZM91.685,322.85l-5.8,3.869-11.613-15.48ZM103,404.43,91.362,388.918l10.905-58.7.236-.157,1.379.918,10.747,57.94Zm73-58.416V384H154V346.012c1-7.6,4.694-14.514,11-18.7C171.292,331.5,176,338.405,176,346.014ZM102.35,122.55a55.944,55.944,0,0,1,55.815,59.786l-.661,9.56-4.853-20.01a6.015,6.015,0,0,0-.31-.937,30.525,30.525,0,0,0-26.589-18.433l-5.721-.25a6.051,6.051,0,0,0-5.152,2.519,50.629,50.629,0,0,1-46.644,20.99L58.6,174.732a8.486,8.486,0,0,0-6.274,1.916,8.4,8.4,0,0,0-2.976,5.771l-1.487,18.507-.04-.016-1.287-18.568c-.092-1.337-.136-2.623-.136-3.932A55.969,55.969,0,0,1,102.35,122.55ZM49.8,229.67a6,6,0,0,0-4.962-5.91,8.908,8.908,0,0,1-7.11-10.9,5.06,5.06,0,0,1,1.9-2.922,10.8,10.8,0,0,0,2.12,1.446q.253.13.517.237c8.769,3.517,11.409,3.935,14.125,2.234a6.105,6.105,0,0,0,2.849-4.692l1.775-22.1,5.933.643a62.644,62.644,0,0,0,55.716-23.314l2.557.112a18.464,18.464,0,0,1,15.893,10.725l9.025,37.215a6,6,0,0,0,9.928,2.969l4.918-4.6c.17-.157.327-.326.488-.493a5.078,5.078,0,0,1,1.461,2.542,8.886,8.886,0,0,1-7.08,10.889,6.107,6.107,0,0,0-4.954,6.008,52.216,52.216,0,0,1-15.393,37.167A52.9,52.9,0,0,1,120.2,279.209,52.564,52.564,0,0,1,49.8,229.67ZM28,346.014a26.546,26.546,0,0,1,11.5-18.752A26.549,26.549,0,0,1,51,346.014V384H28Z" style="fill:#63316d"/></svg>
