<svg width="504.01532" height="504" xmlns="http://www.w3.org/2000/svg">

 <g>
  <title>background</title>
  <rect fill="none" id="canvas_background" height="402" width="582" y="-1" x="-1"/>
 </g>
 <g>
  <title>Layer 1</title>
  <path id="svg_1" fill="#263238" d="m143.92188,440.00391c-2.0586,0 -3.80079,-1.56641 -3.97657,-3.65625l-15.30468,-177.97266l-50.69532,21.72656c-20.625,8.83203 -33.94531,29.04688 -33.94531,51.46485l0,104.4375c0,2.21093 -1.79297,4 -4,4s-4,-1.78907 -4,-4l0,-104.4375c0,-25.63282 15.22266,-48.72266 38.79297,-58.83203l55.78125,-23.90625c1.17969,-0.4961 2.53906,-0.40625 3.63281,0.25c1.10547,0.65625 1.82422,1.80859 1.92969,3.08593l15.78516,183.4961c0.18359,2.19922 -1.44141,4.14453 -3.64063,4.32812c-0.12109,0.00781 -0.24219,0.01563 -0.35937,0.01563zm0,0"/>
  <path id="svg_2" fill="#263238" d="m216.07031,440.00391c-0.11718,0 -0.23047,-0.00782 -0.35156,-0.01563c-2.19922,-0.18359 -3.83203,-2.1289 -3.64062,-4.32812l15.79296,-183.4961c0.11329,-1.27734 0.83204,-2.42969 1.92969,-3.08594c1.10156,-0.64843 2.45703,-0.74609 3.63281,-0.25l55.78125,23.90626c23.5625,10.10937 38.79297,33.1914 38.79297,58.83203l0,36.4375l75.99219,0c2.20703,0 4,1.79297 4,4l0,64c0,2.21093 -1.79297,4 -4,4l-104,0c-24.25781,0 -44,-19.74219 -44,-44l0,-24c0,-2.20703 1.79297,-4 4,-4s4,1.79297 4,4l0,24c0,19.84765 16.15234,36 36,36l100,0l0,-56l-76,0c-2.20703,0 -4,-1.78907 -4,-4l0,-40.4375c0,-22.42578 -13.32031,-42.63282 -33.94531,-51.47266l-50.69532,-21.73047l-15.3125,177.97656c-0.18359,2.09766 -1.92578,3.66407 -3.97656,3.66407zm0,0"/>
  <path id="svg_3" fill="#263238" d="m471.51172,432.00391l-51.51172,0c-2.20703,0 -4,-1.78907 -4,-4c0,-2.20703 1.79297,-4 4,-4l51.51172,0c7.10547,0 13.43359,-4.77344 15.38281,-11.59766l8.94531,-31.29687c0.34375,-1.21485 0.11328,-2.4961 -0.65625,-3.50391c-0.75781,-1.01563 -1.92578,-1.59375 -3.1914,-1.59375l-71.99219,0c-2.20703,0 -4,-1.78906 -4,-4c0,-2.20703 1.79297,-4 4,-4l71.99219,0c3.80859,0 7.29687,1.74609 9.58203,4.77734c2.28906,3.03125 3,6.86328 1.95312,10.52735l-8.9414,31.29687c-2.92188,10.23047 -12.41797,17.39063 -23.07422,17.39063zm0,0"/>
  <path id="svg_4" fill="#00bf00" d="m479.96875,340.00391l-96.92187,0c-15.58985,0 -25.19141,-17.04688 -17.09375,-30.375l49.55859,-81.625l32,0l49.55078,81.625c8.09766,13.32812 -1.50391,30.375 -17.09375,30.375z"/>
  <path id="svg_5" fill="#263238" d="m479.96875,344.00391l-96.92187,0c-8.78907,0 -16.60547,-4.56641 -20.91016,-12.22266c-4.3125,-7.65625 -4.16016,-16.71094 0.39844,-24.22266l49.55468,-81.625c0.72657,-1.1914 2.02344,-1.92187 3.42188,-1.92187l32,0c1.39844,0 2.69531,0.73047 3.42578,1.92187l49.55078,81.625c4.55078,7.51172 4.71094,16.56641 0.39844,24.22266s-12.125,12.22266 -20.91797,12.22266zm-62.20703,-112l-48.38672,79.70703c-3.04687,5.00781 -3.14453,11.03906 -0.26953,16.14843c2.87109,5.10547 8.08594,8.15235 13.94141,8.15235l96.92187,0c5.85547,0 11.07031,-3.04688 13.94141,-8.15234c2.86718,-5.10938 2.77734,-11.14063 -0.26953,-16.14844l-48.38282,-79.70703l-27.49609,0zm0,0"/>
  <path id="svg_6" fill="#263238" d="m447.50391,232.00391l-32,0c-2.20703,0 -4,-1.78907 -4,-4l0,-16c0,-2.20703 1.79297,-4 4,-4l32,0c2.20703,0 4,1.79297 4,4l0,16c0,2.21093 -1.78516,4 -4,4zm-28,-8l24,0l0,-8l-24,0l0,8zm0,0"/>
  <path id="svg_8" fill="#263238" d="m431.50391,264.00391c-2.20703,0 -4,-1.78907 -4,-4l0,-8c0,-2.20704 1.79297,-4 4,-4c2.20703,0 4,1.79296 4,4l0,8c0,2.21093 -1.78516,4 -4,4zm0,0"/>
  <path id="svg_9" fill="#263238" d="m431.50391,320.00391c-2.20703,0 -4,-1.78907 -4,-4l0,-8c0,-2.20703 1.79297,-4 4,-4c2.20703,0 4,1.79297 4,4l0,8c0,2.21093 -1.78516,4 -4,4zm0,0"/>
  <path id="svg_10" fill="#4db6ac" d="m447.51172,212.00391l-32,0l-16,-48l64,0l-16,48zm0,0"/>
  <path id="svg_11" fill="#263238" d="m447.50391,216.00391l-32,0c-1.71875,0 -3.2461,-1.10157 -3.80078,-2.73438l-16,-48c-0.40625,-1.21484 -0.19922,-2.55859 0.55468,-3.60156c0.75,-1.04688 1.94922,-1.66406 3.23828,-1.66406l64,0c1.28907,0 2.4961,0.61718 3.23829,1.66406c0.76171,1.04297 0.96093,2.38672 0.55468,3.60156l-16,48c-0.52734,1.63281 -2.0664,2.73438 -3.78515,2.73438zm-29.11328,-8l26.23437,0l13.33594,-40l-52.90625,0l13.33594,40zm0,0"/>
  <path id="svg_12" fill="#263238" d="m431.50391,192.00391c-2.20703,0 -4,-1.78907 -4,-4l0,-24c0,-2.20703 1.79297,-4 4,-4c2.20703,0 4,1.79297 4,4l0,24c0,2.21093 -1.78516,4 -4,4zm0,0"/>
  <path id="svg_13" fill="#263238" d="m180,240.00391c-41.95312,0 -77.96875,-27.79688 -88.76172,-68.01563c-12.8789,-0.39844 -23.23828,-11.00781 -23.23828,-23.98437c0,-12.97657 10.35938,-23.58203 23.23828,-23.98438c10.79297,-40.21484 46.8086,-68.01562 88.76172,-68.01562s77.96875,27.80078 88.76172,68.01562c12.87891,0.40235 23.23828,11.00781 23.23828,23.98438c0,12.97656 -10.35937,23.58593 -23.23828,23.98437c-10.79297,40.21875 -46.8086,68.01563 -88.76172,68.01563zm-86.20703,-76.16797c1.91016,0 4,1.20312 4.42187,3.03515c8.8086,38.35157 42.44141,65.13282 81.78516,65.13282s72.97656,-26.78125 81.79297,-65.13282c0.45312,-1.98437 2.2539,-3.37109 4.38281,-3.07421c1.03125,0.14453 1.42578,0.20703 1.82422,0.20703c8.82422,0 16,-7.17578 16,-16c0,-8.82422 -7.17578,-16 -16,-16c-0.36719,0 -0.72656,0.0664 -1.07812,0.11328c-2.02735,0.27344 -4.66407,-0.95313 -5.13672,-2.97656c-8.8086,-38.35157 -42.44141,-65.13672 -81.78516,-65.13672s-72.97656,26.78515 -81.79297,65.13672c-0.45312,1.97656 -2.35156,3.28906 -4.34375,3.08203c-1.12891,-0.15235 -1.48828,-0.21875 -1.86328,-0.21875c-8.82422,0 -16,7.17578 -16,16c0,8.82422 7.17578,16 16,16c0.40625,0 0.80859,-0.07032 1.19141,-0.125c0.19921,-0.02735 0.39453,-0.04297 0.60156,-0.04297zm0,0"/>
  <path id="svg_14" fill="#ffaa56" d="m100,140.00391l-4,0l0,-52l24,0l0,32c0,11.05078 -8.95312,20 -20,20zm0,0"/>
  <path id="svg_15" fill="#263238" d="m100,144.00391l-4,0c-2.20703,0 -4,-1.78907 -4,-4l0,-52c0,-2.20703 1.79297,-4 4,-4l24,0c2.20703,0 4,1.79297 4,4l0,32c0,13.23437 -10.76953,24 -24,24zm0,-8l0.07813,0l-0.07813,0zm0,-44l0,44c8.82422,0 16,-7.17578 16,-16l0,-28l-16,0zm0,0"/>
  <path id="svg_16" fill="#ffaa56" d="m240,87.60547l0,32.39844c0,11.05078 8.95313,20 20,20l4,0l0,-63.48047c-6.3125,6.20312 -14.70312,10.14453 -24,11.08203zm0,0"/>
  <path id="svg_17" fill="#263238" d="m264,144.00391l-4,0c-13.23047,0 -24,-10.76563 -24,-24l0,-32.39844c0,-2.05469 1.55078,-3.77734 3.60156,-3.97656c8.23047,-0.83203 15.90235,-4.36719 21.58985,-9.95313c1.16015,-1.13281 2.87109,-1.46094 4.35156,-0.83203c1.48828,0.625 2.45703,2.07422 2.45703,3.67969l0,63.48047c0,2.21093 -1.79297,4 -4,4zm-20,-52.92578l0,28.92578c0,8.82422 7.17578,16 16,16l0,-51.20703c-4.81641,3.08203 -10.25781,5.23046 -16,6.28125zm0,0"/>
  <path id="svg_18" fill="#263238" d="m180,191.98828c-11.26562,0 -22.52734,-4.28515 -31.11328,-12.86328c-1.55859,-1.55859 -1.55859,-4.09766 0,-5.65625c1.5625,-1.55859 4.09766,-1.55859 5.65625,0c14.03125,14.03125 36.87109,14.03125 50.90625,0c1.55859,-1.55859 4.09375,-1.55859 5.65625,0c1.55859,1.55859 1.55859,4.09766 0,5.65625c-8.57813,8.57813 -19.83984,12.86328 -31.10547,12.86328zm0,0"/>
  <path id="svg_19" fill="#ff7f00" d="m236,88.00391l-140,0c0,-33.13282 26.86328,-60 60,-60l41.64063,0c17.36718,0 34.51953,-3.76563 50.28906,-11.04688l28.07031,-12.95312l0,44c0,22.09765 -17.91016,40 -40,40zm0,0"/>
  <path id="svg_20" fill="#263238" d="m236,92.00391l-140,0c-2.20703,0 -4,-1.78907 -4,-4c0,-35.28516 28.71094,-64 64,-64l41.64063,0c16.67968,0 33.48828,-3.69532 48.60546,-10.67969l28.07422,-12.94922c1.2461,-0.5625 2.6875,-0.48047 3.83203,0.26172c1.15235,0.73828 1.84766,2 1.84766,3.36719l0,44c0,24.25781 -19.74219,44 -44,44zm-135.85547,-8l135.85547,0c19.84766,0 36,-16.15235 36,-36l0,-37.75l-22.39062,10.33593c-16.16797,7.47266 -34.13672,11.41407 -51.96875,11.41407l-41.64063,0c-29.52734,0 -53.80078,22.98437 -55.85547,52zm0,0"/>
  <path id="svg_21" fill="#007fff" d="m200,412.50781l-20,23.4961l-20,-23.4961l12,-120.5039l16,0l12,120.5039zm0,0"/>
  <g id="svg_22" fill="#263238">
   <path id="svg_23" d="m180,440.00391c-1.16797,0 -2.28906,-0.51172 -3.04687,-1.40625l-20,-23.50391c-0.70704,-0.83203 -1.04297,-1.90625 -0.92969,-2.99219l12,-120.49609c0.19922,-2.04688 1.92187,-3.60156 3.97656,-3.60156l16,0c2.05469,0 3.77734,1.55468 3.97656,3.60156l12,120.49609c0.11328,1.08594 -0.22265,2.16797 -0.92968,2.99219l-20,23.50391c-0.75782,0.89453 -1.87891,1.40625 -3.04688,1.40625zm-15.84766,-28.79688l15.84766,18.62891l15.84766,-18.6211l-11.48047,-115.20312l-8.75,0l-11.46485,115.19531zm0,0"/>
   <path id="svg_24" d="m100,440.00391c-2.20703,0 -4,-1.78907 -4,-4l0,-80c0,-2.20703 1.79297,-4 4,-4s4,1.79297 4,4l0,80c0,2.21093 -1.79297,4 -4,4zm0,0"/>
   <path id="svg_25" d="m260,440.00391c-2.20703,0 -4,-1.78907 -4,-4l0,-80c0,-2.20703 1.79297,-4 4,-4s4,1.79297 4,4l0,80c0,2.21093 -1.79297,4 -4,4zm0,0"/>
   <path id="svg_26" d="m131.48047,296.00391c-0.55859,0 -1.12891,-0.11719 -1.64844,-0.35938c-1.32031,-0.58984 -2.21484,-1.85547 -2.33594,-3.30469l-3.32812,-39.49609c-0.15234,-1.71875 0.83203,-3.33594 2.40625,-4.01563l19.85156,-8.5039c1.78906,-0.74219 3.83985,-0.14453 4.90235,1.46484l16,24c1.18359,1.77735 0.76953,4.16797 -0.95313,5.44141l-32.51953,24c-0.70313,0.51172 -1.53516,0.77344 -2.375,0.77344zm0.89453,-40.94922l2.48828,29.48828l23.69531,-17.48828l-12.03906,-18.06641l-14.14453,6.06641zm0,0"/>
   <path id="svg_27" d="m228.45703,296.00391c-0.83984,0 -1.67969,-0.26172 -2.3789,-0.78125l-32.45313,-24c-1.72266,-1.27344 -2.13672,-3.66407 -0.95312,-5.44141l16,-24c1.07031,-1.60156 3.12109,-2.20703 4.90234,-1.46484l19.85156,8.5039c1.58203,0.67969 2.55078,2.30469 2.40625,4.02344l-3.39844,39.49609c-0.1289,1.44922 -1.01953,2.70703 -2.33593,3.30469c-0.53125,0.24219 -1.08203,0.35938 -1.64063,0.35938zm-27.01562,-28.94922l23.63672,17.48828l2.53906,-29.48828l-14.13672,-6.06641l-12.03906,18.06641zm0,0"/>
   <path id="svg_28" d="m188,296.00391l-16,0c-6.61719,0 -12,-5.38282 -12,-12l0,-8c0,-6.61328 5.38281,-12 12,-12l16,0c6.61719,0 12,5.38672 12,12l0,8c0,6.61718 -5.38281,12 -12,12zm-16,-24c-2.19922,0 -4,1.80078 -4,4l0,8c0,2.20312 1.80078,4 4,4l16,0c2.19922,0 4,-1.79688 4,-4l0,-8c0,-2.19922 -1.80078,-4 -4,-4l-16,0zm0,0"/>
   <path id="svg_29" d="m165.95313,274.93359c-0.07422,0 -0.15235,0 -0.21875,-0.00781c-1.25391,-0.07422 -2.41407,-0.73047 -3.10938,-1.77734l-17.95312,-26.92578c-0.44141,-0.65625 -0.67188,-1.42578 -0.67188,-2.21875l0,-14.08594c0,-1.32031 0.65625,-2.5625 1.75391,-3.30469c1.09375,-0.7539 2.49218,-0.88672 3.71093,-0.42578c19.65625,7.72266 41.42188,7.72266 61.07813,0c1.21875,-0.46875 2.625,-0.32812 3.71484,0.42578c1.09375,0.74219 1.75,1.98438 1.75,3.30469l0,14.08594c0,0.79297 -0.23047,1.5625 -0.67187,2.21875l-17.95313,26.92578c-0.70312,1.04687 -1.84765,1.71094 -3.10937,1.77734c-1.4336,0.11328 -2.48047,-0.46484 -3.28906,-1.43359c-0.48047,-0.55078 -1.48047,-1.48828 -2.98438,-1.48828l-16,0c-1.50391,0 -2.51172,0.9375 -2.98437,1.5039c-0.75782,0.90625 -1.87891,1.42578 -3.0625,1.42578zm-13.95313,-32.13671l14.92969,22.39062c1.57422,-0.76562 3.30078,-1.18359 5.07031,-1.18359l16,0c1.76953,0 3.50391,0.41797 5.07031,1.17578l14.92969,-22.39063l0,-7.19922c-18.16797,5.85547 -37.83203,5.85547 -56,0l0,7.20704zm0,0"/>
   <path transform="rotate(-88.692626953125 58.00000000000003,232.00390625000003) " id="svg_30" d="m88,236.00391l-60,0c-2.20703,0 -4,-1.78907 -4,-4c0,-2.20703 1.79297,-4 4,-4l60,0c2.20703,0 4,1.79297 4,4c0,2.21093 -1.79297,4 -4,4zm0,0"/>
   <path id="svg_31" d="m30,236.00391l-8,0c-2.20703,0 -4,-1.78907 -4,-4c0,-2.20703 1.79297,-4 4,-4l8,0c2.20703,0 4,1.79297 4,4c0,2.21093 -1.79297,4 -4,4zm0,0"/>
   <path id="svg_32" d="m416,112.00391l-32,0c-2.20703,0 -4,-1.78907 -4,-4c0,-2.20703 1.79297,-4 4,-4l32,0c2.20703,0 4,1.79297 4,4c0,2.21093 -1.79297,4 -4,4zm0,0"/>
   <path id="svg_33" d="m400,128.00391c-2.20703,0 -4,-1.78907 -4,-4l0,-32c0,-2.20703 1.79297,-4 4,-4s4,1.79297 4,4l0,32c0,2.21093 -1.79297,4 -4,4zm0,0"/>
   <path id="svg_34" d="m368,152.00391l-32,0c-2.20703,0 -4,-1.78907 -4,-4c0,-2.20703 1.79297,-4 4,-4l32,0c2.20703,0 4,1.79297 4,4c0,2.21093 -1.79297,4 -4,4zm0,0"/>
   <path id="svg_35" d="m352,168.00391c-2.20703,0 -4,-1.78907 -4,-4l0,-32c0,-2.20703 1.79297,-4 4,-4s4,1.79297 4,4l0,32c0,2.21093 -1.79297,4 -4,4zm0,0"/>
  </g>
  <g stroke="null" id="svg_58">
   <g stroke="null" transform="matrix(0.09988242227725928,0,0,0.09988242227725928,205.0084664408757,143.7188261172217) " id="svg_40">
    <g stroke="null" id="svg_41">
     <path stroke-width="0" stroke="null" id="svg_42" d="m2388.475743,1324.422041l-50.8,0c-2.9,-28 -18,-54 -40.1,-70l90.9,0c5.5,0 10,-4.5 10,-10s-4.5,-10 -10,-10l-211.6,0c-5.5,0 -10,4.5 -10,10s4.5,10 10,10l60.6,0c41.2,0 75.2,31 80.1,70l-140.7,0c-5.5,0 -10,4.5 -10,10s4.5,10 10,10l140.7,0c-5,40.5 -39.4,70.9 -80.1,71l-60.5,0c-5.6,0.1 -10.1,4.7 -10,10.3c0,2.7 1.2,5.3 3.1,7.2l151.3,143.1c4,3.8 10.3,3.6 14.1,-0.4c3.8,-4.1 3.6,-10.4 -0.4,-14.3l-133.1,-125.9l35.4,0c52.2,0 95.3,-40 100.3,-91l50.8,0c5.5,0 10,-4.5 10,-10s-4.5,-10 -10,-10z"/>
    </g>
   </g>
   <g stroke="null" transform="matrix(0.09988242227725928,0,0,0.09988242227725928,205.0084664408757,143.7188261172217) " id="svg_43"/>
   <g stroke="null" transform="matrix(0.09988242227725928,0,0,0.09988242227725928,205.0084664408757,143.7188261172217) " id="svg_44"/>
   <g stroke="null" transform="matrix(0.09988242227725928,0,0,0.09988242227725928,205.0084664408757,143.7188261172217) " id="svg_45"/>
   <g stroke="null" transform="matrix(0.09988242227725928,0,0,0.09988242227725928,205.0084664408757,143.7188261172217) " id="svg_46"/>
   <g stroke="null" transform="matrix(0.09988242227725928,0,0,0.09988242227725928,205.0084664408757,143.7188261172217) " id="svg_47"/>
   <g stroke="null" transform="matrix(0.09988242227725928,0,0,0.09988242227725928,205.0084664408757,143.7188261172217) " id="svg_48"/>
   <g stroke="null" transform="matrix(0.09988242227725928,0,0,0.09988242227725928,205.0084664408757,143.7188261172217) " id="svg_49"/>
   <g stroke="null" transform="matrix(0.09988242227725928,0,0,0.09988242227725928,205.0084664408757,143.7188261172217) " id="svg_50"/>
   <g stroke="null" transform="matrix(0.09988242227725928,0,0,0.09988242227725928,205.0084664408757,143.7188261172217) " id="svg_51"/>
   <g stroke="null" transform="matrix(0.09988242227725928,0,0,0.09988242227725928,205.0084664408757,143.7188261172217) " id="svg_52"/>
   <g stroke="null" transform="matrix(0.09988242227725928,0,0,0.09988242227725928,205.0084664408757,143.7188261172217) " id="svg_53"/>
   <g stroke="null" transform="matrix(0.09988242227725928,0,0,0.09988242227725928,205.0084664408757,143.7188261172217) " id="svg_54"/>
   <g stroke="null" transform="matrix(0.09988242227725928,0,0,0.09988242227725928,205.0084664408757,143.7188261172217) " id="svg_55"/>
   <g stroke="null" transform="matrix(0.09988242227725928,0,0,0.09988242227725928,205.0084664408757,143.7188261172217) " id="svg_56"/>
   <g stroke="null" transform="matrix(0.09988242227725928,0,0,0.09988242227725928,205.0084664408757,143.7188261172217) " id="svg_57"/>
  </g>
 </g>
</svg>