<svg height="512" viewBox="0 0 55 60" width="512" xmlns="http://www.w3.org/2000/svg"><g id="Page-1" fill="none" fill-rule="evenodd"><g id="015---Cocktail" fill-rule="nonzero"><path id="Shape" d="m23.1 58c0 .5522847-.4477153 1-1 1h-16c-.55228475 0-1-.4477153-1-1 0-1.6568542 1.34314575-3 3-3 4 0 4-3 4-3v-8c0-.41-.01-.81-.02-1.19 1.3347527.2533308 2.7052473.2533308 4.04 0-.01.38-.02.78-.02 1.19v8s0 3 4 3c1.6568542 0 3 1.3431458 3 3z" fill="#02a9f4"/><path id="Shape" d="m26.81 2.58c-2.8785764 3.99826325-4.3551346 8.8357494-4.2 13.76.01.25.02.51.05.76-3.2044093 1.1157029-6.6448326 1.3742517-9.98.75-1.82-.35-3.58-.95-5.39-1.38-.56-.13-1.13-.24-1.7-.32.11868794-4.8605106-1.35636796-9.62634597-4.2-13.57-.21767208-.3057113-.24585254-.70756049-.07297831-1.04065963.17287424-.33309913.5176965-.54136463.89297831-.53934037h23.78c.3752818-.00202426.7201041.20624124.8929783.53934037.1728742.33309914.1446938.73494833-.0729783 1.04065963z" fill="#02a9f4"/><path id="Shape" d="m25.99 1h-3c.3752818-.00202426.7201041.20624124.8929783.53934037.1728742.33309914.1446938.73494833-.0729783 1.04065963-2.8785764 3.99826325-4.3551346 8.8357494-4.2 13.76.01.25.02.51.05.76-1.5729523.5459179-3.2091918.8886914-4.869 1.02 2.6651608.2019874 5.3434184-.1451753 7.869-1.02-.03-.25-.04-.51-.05-.76-.1551346-4.9242506 1.3214236-9.76173675 4.2-13.76.2176721-.3057113.2458525-.70756049.0729783-1.04065963-.1728742-.33309913-.5176965-.54136463-.8929783-.53934037z" fill="#0377bc"/><path id="Shape" d="m26.1 30c0 6.43-4.31 11.78-9.98 12.81-1.3347527.2533308-2.7052473.2533308-4.04 0-5.67-1.03-9.98-6.38-9.98-12.81-.00659239-2.155798.4935172-4.2829765 1.46-6.21 1.21470471-2.3044608 1.90774006-4.8478664 2.03-7.45v-.19c.57.08 1.14.19 1.7.32 1.81.43 3.57 1.03 5.39 1.38 3.3351674.6242517 6.7755907.3657029 9.98-.75.2225704 2.3367869.8949122 4.6084873 1.98 6.69.9664828 1.9270235 1.4665924 4.054202 1.46 6.21z" fill="#ffeb3a"/><path id="Shape" d="m24.64 23.79c-1.0850878-2.0815127-1.7574296-4.3532131-1.98-6.69-.9443641.3247784-1.912187.576847-2.895.754.2868373 2.0700069.9207266 4.0768157 1.875 5.936.9664828 1.9270235 1.4665924 4.054202 1.46 6.21 0 6.43-4.31 11.78-9.98 12.81-.172.034-.347.05-.52.075.4966543.0737307.9979107.1121603 1.5.115.6779166.0026547 1.3544686-.0609814 2.02-.19 5.67-1.03 9.98-6.38 9.98-12.81.0065924-2.155798-.4935172-4.2829765-1.46-6.21z" fill="#fec108"/><rect id="Rectangle-path" fill="#a4c400" height="5" rx="1" transform="matrix(.794 -.609 .609 .794 -16.418 11.818)" width="5" x="6.705" y="27.603"/><rect id="Rectangle-path" fill="#a4c400" height="5" rx="1" transform="matrix(.945 .327 -.327 .945 12.152 -4.076)" width="5" x="15.693" y="31.592"/><path id="Shape" d="m8 6h-1c-.55228475 0-1-.44771525-1-1s.44771525-1 1-1h1c.55228475 0 1 .44771525 1 1s-.44771525 1-1 1z" fill="#f5f5f5"/><path id="Shape" d="m21 6h-9c-.5522847 0-1-.44771525-1-1s.4477153-1 1-1h9c.5522847 0 1 .44771525 1 1s-.4477153 1-1 1z" fill="#f5f5f5"/><path id="Shape" d="m49 48.5c0 .12 0 .24-.01.36-.0448925 1.5304627-.4345708 3.0310662-1.14 4.39-.2754757-.7044324-.9247825-1.1931925-1.6779307-1.2630477-.7531481-.0698551-1.4812712.2911471-1.8816065.9328974-.4003354.6417504-.4043841 1.454443-.0104628 2.1001503-.0928761-.0119951-.1863619-.0186726-.28-.02-1.1032019.0032948-1.9967052.8967981-2 2 .0002223.4468111.151792.8803709.43 1.23-1.2468105.5119673-2.5821744.7736035-3.93.77-5.7210031.0300678-10.4131203-4.5254146-10.552086-10.2448088-.1389657-5.7193941 4.3263735-10.4973779 10.042086-10.7451912.17-.01.34-.01.51-.01 5.7964766.006063 10.493937 4.7035234 10.5 10.5z" fill="#ff9801"/><path id="Shape" d="m44.5 52.694c-.3752574-.438497-.9228578-.6918535-1.5-.694-1.1032019.0032948-1.9967052.8967981-2 2-.0010404.3591204.0957575.7117416.28 1.02-.0928761-.0119951-.1863619-.0186726-.28-.02-1.1032019.0032948-1.9967052.8967981-2 2 .0002223.4468111.151792.8803709.43 1.23-.7799129.3168008-1.5961648.5354757-2.43.651.4965455.0751868.9978107.1149538 1.5.119 1.3478256.0036035 2.6831895-.2580327 3.93-.77-.278208-.3496291-.4297777-.7831889-.43-1.23.0032948-1.1032019.8967981-1.9967052 2-2 .0936381.0013274.1871239.0080049.28.02-.4429642-.7400742-.3538646-1.6821005.22-2.326z" fill="#f57c00"/><path id="Shape" d="m46.4 41.59c-1.9894298-2.2839206-4.8711203-3.5934483-7.9-3.59-.17 0-.34 0-.51.01-.35.017-.7.052-1.036.1 5.1851764.7215023 9.0450625 5.1548669 9.046 10.39 0 .12 0 .24-.01.36-.0348085 1.1142633-.2523701 2.215247-.644 3.259 1.002163-.363587 2.1114433.1382514 2.5 1.131.7054292-1.3589338 1.0951075-2.8595373 1.14-4.39.01-.12.01-.24.01-.36.0049862-2.5426059-.9180896-4.9996372-2.596-6.91z" fill="#f57c00"/><circle id="Oval" cx="36" cy="45" fill="#a0522d" r="2"/><path id="Shape" d="m48.27 38.04c-.3750124 1.2983576-1.0113605 2.5063981-1.87 3.55-1.9894298-2.2839206-4.8711203-3.5934483-7.9-3.59-.17 0-.34 0-.51.01.11-2.35 1.28-8.01 10.01-8.01.8703823 2.5966399.9642166 5.3908176.27 8.04z" fill="#a4c400"/><path id="Shape" d="m48 30c-.9777614-.0061113-1.9540718.0762241-2.917.246.7990477 2.5278881.8638958 5.2306999.187 7.794-.1895624.6466202-.4431511 1.2727195-.757 1.869.69448.4821963 1.3280819 1.0466292 1.887 1.681.8586395-1.0436019 1.4949876-2.2516424 1.87-3.55.6942166-2.6491824.6003823-5.4433601-.27-8.04z" fill="#90ac00"/><path id="Shape" d="m54 39.03s-.06 6.52-5.01 9.83c.01-.12.01-.24.01-.36.0038807-2.5431262-.920641-5.0002202-2.6-6.91.8586395-1.0436019 1.4949876-2.2516424 1.87-3.55 1.960657-.1139609 3.9212435.2247792 5.73.99z" fill="#a4c400"/><path id="Shape" d="m48.27 38.04c-.017.06-.043.12-.061.179.9526381.1866383 1.8866878.4580515 2.791.811-.1194105 2.526679-.9064743 4.9765489-2.281 7.1.1836161.776721.2778941 1.5718767.281 2.37 0 .12 0 .24-.01.36 4.95-3.31 5.01-9.83 5.01-9.83-1.8087565-.7652208-3.769343-1.1039609-5.73-.99z" fill="#90ac00"/><path id="Shape" d="m46 57c-.0032948 1.1032019-.8967981 1.9967052-2 2-1.1013936-.0076299-1.9923701-.8986064-2-2 .0032948-1.1032019.8967981-1.9967052 2-2 .0936381.0013274.1871239.0080049.28.02.5990923.0893792 1.127076.4413684 1.44.96.1842425.3082584.2810404.6608796.28 1.02z" fill="#e91e63"/><path id="Shape" d="m48 54c.0010404.3591204-.0957575.7117416-.28 1.02-.5990923.0893792-1.127076.4413684-1.44.96-.0928761.0119951-.1863619.0186726-.28.02-.0502079.001652-.1004557-.0016979-.15-.01-.0435801.0020504-.0872462-.0013086-.13-.01-.312924-.5186316-.8409077-.8706208-1.44-.96-.1842425-.3082584-.2810404-.6608796-.28-1.02.0047074-.9533974.6817363-1.770921 1.6175539-1.9532231.9358177-.1823022 1.8702103.3213081 2.2324461 1.2032231v.01c.1004229.2337061.1514897.485636.15.74z" fill="#e91e63"/><path id="Shape" d="m50 57c0 1.1045695-.8954305 2-2 2s-2-.8954305-2-2c-.0010404-.3591204.0957575-.7117416.28-1.02.312924-.5186316.8409077-.8706208 1.44-.96.0928761-.0119951.1863619-.0186726.28-.02 1.1032019.0032948 1.9967052.8967981 2 2z" fill="#e91e63"/><g fill="#000"><path id="Shape" d="m4.6 16.309c-.12277764 2.4551175-.7815309 4.8535937-1.93 7.027-1.03478754 2.068891-1.57238222 4.3507578-1.57 6.664 0 6.6 4.272 12.14 9.993 13.607 0 .133.007.257.007.393v8c0 .082-.035 2-3 2-2.209139 0-4 1.790861-4 4 0 1.1045695.8954305 2 2 2h16c1.1045695 0 2-.8954305 2-2 0-2.209139-1.790861-4-4-4-2.8 0-2.991-1.678-3-2v-8c0-.135 0-.26.006-.393 5.723-1.467 9.994-7.007 9.994-13.607.0025454-2.3131452-.534698-4.5949744-1.569-6.664-1.1471841-2.1736282-1.8042531-4.5721861-1.925-7.027-.1453219-4.7045049 1.265995-9.3254691 4.015-13.146.4350808-.60869166.494029-1.40932427.1527889-2.07517413-.3412402-.66584986-1.0255939-1.08554903-1.7737889-1.08782587h-23.792c-.74909419.00040923-1.43515725.41938949-1.77763982 1.08560865s-.28395863 1.46796845.15163982 2.07739135c2.74966312 3.82035664 4.16200105 8.4412114 4.018 13.146zm15.5 39.691c1.1045695 0 2 .8954305 2 2h-16c0-1.1045695.8954305-2 2-2 3.955 0 5-2.617 5-4v-8.055c.331.028.663.055 1 .055s.669-.027 1-.055v8.055c0 1.383 1.046 4 5 4zm5-26c0 6.617-4.935 12-11 12s-11-5.383-11-12c-.00338248-2.0002032.46025526-3.9735742 1.354-5.763 1.11799558-2.1472797 1.82255324-4.4855156 2.077-6.893.178.036.346.057.528.1.727.173 1.446.374 2.164.574 1.057.3 2.151.6 3.27.816 1.2392559.23448 2.4977562.3523284 3.759.352 1.8777935-.0054864 3.7459293-.26895 5.552-.783.3407611 2.0338211.9955774 4.0023182 1.941 5.835.8936953 1.7891279 1.3576585 3.7620843 1.355 5.762zm.891-28c-3.0021464 4.17853889-4.5430035 9.2302587-4.384 14.373v.008c-2.8310132.8652-5.8293841 1.0322908-8.739.487-1.036-.2-2.042-.48-3.108-.777-.743-.208-1.487-.415-2.244-.6-.316-.073-.612-.116-.919-.173-.06846109-4.7834027-1.60013408-9.43111759-4.389-13.318z"/><path id="Shape" d="m11.069 26.783c-.6718876-.8738794-1.92418417-1.0393614-2.8-.37l-2.381 1.826c-.8735553.6721907-1.0385846 1.9244455-.369 2.8l1.825 2.381c.67188758.8738794 1.92418417 1.0393614 2.8.37l2.38-1.825c.8738794-.6718876 1.0393614-1.9241842.37-2.8zm-2.142 5.424-1.827-2.381 2.382-1.826 1.827 2.38z"/><path id="Shape" d="m20.755 31.275-2.835-.982c-1.0438165-.3611668-2.1827852.1922001-2.544 1.236l-.976 2.835c-.3612587 1.0435295.1915988 2.182371 1.235 2.544l2.836.982c1.0438165.3611668 2.1827852-.1922001 2.544-1.236l.981-2.835c.1732054-.5019079.1397256-1.0520901-.0930606-1.5292926-.2327863-.4772024-.6457719-.8422562-1.1479394-1.0147074zm-1.962 5.67.327-.945zm.326-.945-2.834-.981.981-2.836 2.835.982z"/><path id="Shape" d="m39 44h-.184c-.3025307-.846935-.969065-1.5134693-1.816-1.816v-.184c0-.5522847-.4477153-1-1-1s-1 .4477153-1 1v.184c-.846935.3025307-1.5134693.969065-1.816 1.816h-.184c-.5522847 0-1 .4477153-1 1s.4477153 1 1 1h.184c.3025307.846935.969065 1.5134693 1.816 1.816v.184c0 .5522847.4477153 1 1 1s1-.4477153 1-1v-.184c.846935-.3025307 1.5134693-.969065 1.816-1.816h.184c.5522847 0 1-.4477153 1-1s-.4477153-1-1-1zm-3 2c-.5522847 0-1-.4477153-1-1s.4477153-1 1-1 1 .4477153 1 1-.4477153 1-1 1z"/><path id="Shape" d="m54.358 38.1c-1.5334153-.6158982-3.1563921-.9795991-4.806-1.077.400928-2.4703203.1897574-5.0012762-.615-7.371-.1454235-.3917637-.5191163-.6517933-.937-.652-8.738 0-10.559 5.418-10.926 8.1-5.9886534.7936908-10.3423085 6.0857018-9.966857 12.1150426s5.3520023 10.740353 11.392857 10.7849574c1.2558559-.0008784 2.5027219-.2117877 3.689-.624 1.1372423.8879235 2.7501336.8219012 3.811-.156.8994274.8170284 2.2038564 1.0084799 3.3001246.4843605 1.0962682-.5241193 1.7663188-1.6595579 1.6951866-2.8725894-.0711322-1.2130314-.8692984-2.2623737-2.0193112-2.6547711 0-.06.024-.117.024-.177-.0026011-.2284057-.0324795-.4556827-.089-.677.5839824-1.2366475.9354983-2.5701708 1.037-3.934 4.918-3.629 5.052-10.07 5.052-10.35.0021941-.4160828-.2534869-.7900461-.642-.939zm-9.358 15.9c.0022636-.4652265.3250612-.8674386.7787664-.9703581.4537052-.1029194.918455.1206438 1.1212336.5393581.009.026.019.053.03.078v.011c.047169.1077947.0710236.2243413.07.342-.0022203.0646484-.0105914.1289386-.025.192-.359555.1319644-.6905144.3315584-.975.588-.2844856-.2564416-.615445-.4560356-.975-.588-.0144086-.0630614-.0227797-.1273516-.025-.192zm2.268-22.985c.422 1.562 1.176 5.6-.994 9.035-.7075531-.6564843-1.4947049-1.2215672-2.343-1.682l1.964-3.92c.2485281-.4942949.0492949-1.0964719-.445-1.345s-1.0964719-.0492949-1.345.445l-2.017 4.029c-.9672393-.3144137-1.9721049-.49837-2.988-.547.411-2.517 2.126-5.773 8.168-6.015zm-18.268 17.485c0-5.2467051 4.2532949-9.5 9.5-9.5s9.5 4.2532949 9.5 9.5c-.0022597.9926238-.1636407 1.9784665-.478 2.92-.9261025-.5503436-2.0765162-.5605293-3.0122183-.0266701-.935702.5338592-1.5123115 1.5293876-1.5097817 2.6066701 0 .06.02.117.024.177-1.4420957.4833846-2.2851194 1.9789743-1.952 3.463-.8363822.2392036-1.7020842.3603749-2.572.36-5.2441922-.0060617-9.4939383-4.2558078-9.5-9.5zm15 9.5c-.5522847 0-1-.4477153-1-1s.4477153-1 1-1 1 .4477153 1 1-.4477153 1-1 1zm4 0c-.5522847 0-1-.4477153-1-1s.4477153-1 1-1 1 .4477153 1 1-.4477153 1-1 1zm1.864-11.176c-.1478804-1.0215944-.4338272-2.018371-.85-2.963l1.542-1.029c.4595009-.3070703.5830703-.9284991.276-1.388s-.9284991-.5830703-1.388-.276l-1.4.933c-.123-.184-.261-.357-.395-.533.5613325-.7861485 1.0165872-1.6428612 1.354-2.548 1.3432229.0084816 2.6754599.242747 3.941.693-.244251 2.6375793-1.3231757 5.1285643-3.08 7.111z"/></g></g></g></svg>