<svg width="511.608" height="511.608" xmlns="http://www.w3.org/2000/svg">

 <g>
  <title>background</title>
  <rect fill="none" id="canvas_background" height="402" width="582" y="-1" x="-1"/>
 </g>
 <g>
  <title>Layer 1</title>
  <circle id="svg_1" fill="#7EC359" r="255.804" cy="255.804" cx="255.804"/>
  <g id="svg_2">
   <polygon id="svg_3" fill="#353944" points="177.232,443.908 127.22,443.908 127.22,475.604 157.232,475.604  "/>
   <polygon id="svg_4" fill="#353944" points="408.272,443.908 358.26,443.908 378.26,475.604 408.272,475.604  "/>
  </g>
  <rect id="svg_5" fill="#4D535F" height="411.96" width="400.08" y="36.004" x="67.7"/>
  <rect id="svg_6" fill="#353944" height="333.48" width="322.32" y="75.248" x="104.484"/>
  <rect id="svg_7" fill="#656D7A" height="333.48" width="47.768" y="75.248" x="43.804"/>
  <g id="svg_8">
   <circle id="svg_9" fill="#D2D2D4" r="14.688" cy="135.14" cx="67.7"/>
   <circle id="svg_10" fill="#D2D2D4" r="14.688" cy="206.372" cx="67.7"/>
   <circle id="svg_11" fill="#D2D2D4" r="14.688" cy="277.604" cx="67.7"/>
   <circle id="svg_12" fill="#D2D2D4" r="14.688" cy="348.844" cx="67.7"/>
  </g>
  <rect id="svg_13" fill="#ff5656" height="42.048" width="205.24" y="240.524" x="195.964"/>
  <rect id="svg_14" fill="#FDFEFF" height="42.048" width="37.356" y="240.524" x="279.884"/>
  <rect id="svg_15" fill="#5F87C4" height="42.048" width="205.24" y="282.564" x="173.364"/>
  <rect id="svg_16" fill="#FDFEFF" height="42.048" width="37.356" y="282.564" x="257.284"/>
  <rect id="svg_17" fill="#ffaa56" height="42.048" width="205.24" y="156.444" x="195.964"/>
  <rect id="svg_18" fill="#FDFEFF" height="42.048" width="37.356" y="156.444" x="279.884"/>
  <rect id="svg_19" fill="#ffaa56" height="42.048" width="205.24" y="198.48" x="173.364"/>
  <rect id="svg_20" fill="#FDFEFF" height="42.048" width="37.356" y="198.48" x="257.284"/>
  <rect id="svg_21" fill="#ff5656" height="42.048" width="205.24" y="324.644" x="220.884"/>
  <rect id="svg_22" fill="#FDFEFF" height="42.048" width="37.356" y="324.644" x="304.804"/>
  <rect id="svg_23" fill="#5F87C4" height="42.048" width="205.24" y="366.684" x="211.176"/>
  <rect id="svg_24" fill="#FDFEFF" height="42.048" width="37.356" y="366.684" x="295.116"/>
  <rect id="svg_25" fill="#F5EB07" height="24.16" width="97.04" y="384.564" x="122.716"/>
  <g id="svg_26">
   <rect id="svg_27" fill="#E8BB20" height="15.156" width="3.104" y="389.084" x="213.484"/>
   <rect id="svg_28" fill="#E8BB20" height="15.156" width="3.104" y="389.084" x="205.524"/>
   <rect id="svg_29" fill="#E8BB20" height="15.156" width="3.104" y="389.084" x="197.564"/>
   <rect id="svg_30" fill="#E8BB20" height="15.156" width="3.104" y="389.084" x="189.604"/>
   <rect id="svg_31" fill="#E8BB20" height="15.156" width="3.104" y="389.084" x="181.644"/>
   <rect id="svg_32" fill="#E8BB20" height="15.156" width="3.104" y="389.084" x="173.684"/>
   <rect id="svg_33" fill="#E8BB20" height="15.156" width="3.104" y="389.084" x="165.708"/>
   <rect id="svg_34" fill="#E8BB20" height="15.156" width="3.104" y="389.084" x="157.744"/>
   <rect id="svg_35" fill="#E8BB20" height="15.156" width="3.104" y="389.084" x="149.784"/>
   <rect id="svg_36" fill="#E8BB20" height="15.156" width="3.104" y="389.084" x="141.82"/>
   <rect id="svg_37" fill="#E8BB20" height="15.156" width="3.104" y="389.084" x="133.856"/>
   <rect id="svg_38" fill="#E8BB20" height="15.156" width="3.104" y="389.084" x="125.896"/>
  </g>
  <rect id="svg_39" fill="#F5EB07" height="24.16" width="97.04" y="358.004" x="112.324"/>
  <g id="svg_40">
   <rect id="svg_41" fill="#E8BB20" height="15.156" width="3.104" y="362.484" x="203.088"/>
   <rect id="svg_42" fill="#E8BB20" height="15.156" width="3.104" y="362.484" x="195.128"/>
   <rect id="svg_43" fill="#E8BB20" height="15.156" width="3.104" y="362.484" x="187.164"/>
   <rect id="svg_44" fill="#E8BB20" height="15.156" width="3.104" y="362.484" x="179.204"/>
   <rect id="svg_45" fill="#E8BB20" height="15.156" width="3.104" y="362.484" x="171.24"/>
   <rect id="svg_46" fill="#E8BB20" height="15.156" width="3.104" y="362.484" x="163.28"/>
   <rect id="svg_47" fill="#E8BB20" height="15.156" width="3.104" y="362.484" x="155.316"/>
   <rect id="svg_48" fill="#E8BB20" height="15.156" width="3.104" y="362.484" x="147.356"/>
   <rect id="svg_49" fill="#E8BB20" height="15.156" width="3.104" y="362.484" x="139.392"/>
   <rect id="svg_50" fill="#E8BB20" height="15.156" width="3.104" y="362.484" x="131.432"/>
   <rect id="svg_51" fill="#E8BB20" height="15.156" width="3.104" y="362.484" x="123.468"/>
   <rect id="svg_52" fill="#E8BB20" height="15.156" width="3.104" y="362.484" x="115.508"/>
  </g>
  <rect id="svg_53" fill="#F5EB07" height="24.16" width="97.04" y="331.404" x="122.716"/>
  <g id="svg_54">
   <rect id="svg_55" fill="#E8BB20" height="15.156" width="3.104" y="335.884" x="213.484"/>
   <rect id="svg_56" fill="#E8BB20" height="15.156" width="3.104" y="335.884" x="205.524"/>
   <rect id="svg_57" fill="#E8BB20" height="15.156" width="3.104" y="335.884" x="197.564"/>
   <rect id="svg_58" fill="#E8BB20" height="15.156" width="3.104" y="335.884" x="189.604"/>
   <rect id="svg_59" fill="#E8BB20" height="15.156" width="3.104" y="335.884" x="181.644"/>
   <rect id="svg_60" fill="#E8BB20" height="15.156" width="3.104" y="335.884" x="173.684"/>
   <rect id="svg_61" fill="#E8BB20" height="15.156" width="3.104" y="335.884" x="165.708"/>
   <rect id="svg_62" fill="#E8BB20" height="15.156" width="3.104" y="335.884" x="157.744"/>
   <rect id="svg_63" fill="#E8BB20" height="15.156" width="3.104" y="335.884" x="149.784"/>
   <rect id="svg_64" fill="#E8BB20" height="15.156" width="3.104" y="335.884" x="141.82"/>
   <rect id="svg_65" fill="#E8BB20" height="15.156" width="3.104" y="335.884" x="133.856"/>
   <rect id="svg_66" fill="#E8BB20" height="15.156" width="3.104" y="335.884" x="125.896"/>
  </g>
  <rect id="svg_67" fill="#F5EB07" height="24.16" width="97.04" y="304.804" x="134.66"/>
  <g id="svg_68">
   <rect id="svg_69" fill="#E8BB20" height="15.156" width="3.104" y="309.284" x="225.444"/>
   <rect id="svg_70" fill="#E8BB20" height="15.156" width="3.104" y="309.284" x="217.444"/>
   <rect id="svg_71" fill="#E8BB20" height="15.156" width="3.104" y="309.284" x="209.484"/>
   <rect id="svg_72" fill="#E8BB20" height="15.156" width="3.104" y="309.284" x="201.524"/>
   <rect id="svg_73" fill="#E8BB20" height="15.156" width="3.104" y="309.284" x="193.564"/>
   <rect id="svg_74" fill="#E8BB20" height="15.156" width="3.104" y="309.284" x="185.604"/>
   <rect id="svg_75" fill="#E8BB20" height="15.156" width="3.104" y="309.284" x="177.644"/>
   <rect id="svg_76" fill="#E8BB20" height="15.156" width="3.104" y="309.284" x="169.688"/>
   <rect id="svg_77" fill="#E8BB20" height="15.156" width="3.104" y="309.284" x="161.724"/>
   <rect id="svg_78" fill="#E8BB20" height="15.156" width="3.104" y="309.284" x="153.764"/>
   <rect id="svg_79" fill="#E8BB20" height="15.156" width="3.104" y="309.284" x="145.8"/>
   <rect id="svg_80" fill="#E8BB20" height="15.156" width="3.104" y="309.284" x="137.84"/>
  </g>
  <rect id="svg_81" fill="#F5EB07" height="24.16" width="97.04" y="278.204" x="122.716"/>
  <g id="svg_82">
   <rect id="svg_83" fill="#E8BB20" height="15.156" width="3.104" y="282.684" x="213.484"/>
   <rect id="svg_84" fill="#E8BB20" height="15.156" width="3.104" y="282.684" x="205.524"/>
   <rect id="svg_85" fill="#E8BB20" height="15.156" width="3.104" y="282.684" x="197.564"/>
   <rect id="svg_86" fill="#E8BB20" height="15.156" width="3.104" y="282.684" x="189.604"/>
   <rect id="svg_87" fill="#E8BB20" height="15.156" width="3.104" y="282.684" x="181.644"/>
   <rect id="svg_88" fill="#E8BB20" height="15.156" width="3.104" y="282.684" x="173.684"/>
   <rect id="svg_89" fill="#E8BB20" height="15.156" width="3.104" y="282.684" x="165.708"/>
   <rect id="svg_90" fill="#E8BB20" height="15.156" width="3.104" y="282.684" x="157.744"/>
   <rect id="svg_91" fill="#E8BB20" height="15.156" width="3.104" y="282.684" x="149.784"/>
   <rect id="svg_92" fill="#E8BB20" height="15.156" width="3.104" y="282.684" x="141.82"/>
   <rect id="svg_93" fill="#E8BB20" height="15.156" width="3.104" y="282.684" x="133.856"/>
   <rect id="svg_94" fill="#E8BB20" height="15.156" width="3.104" y="282.684" x="125.896"/>
  </g>
  <rect id="svg_95" fill="#F5EB07" height="24.16" width="97.04" y="251.596" x="128.244"/>
  <g id="svg_96">
   <rect id="svg_97" fill="#E8BB20" height="15.156" width="3.104" y="256.084" x="219.012"/>
   <rect id="svg_98" fill="#E8BB20" height="15.156" width="3.104" y="256.084" x="211.052"/>
   <rect id="svg_99" fill="#E8BB20" height="15.156" width="3.104" y="256.084" x="203.088"/>
   <rect id="svg_100" fill="#E8BB20" height="15.156" width="3.104" y="256.084" x="195.128"/>
   <rect id="svg_101" fill="#E8BB20" height="15.156" width="3.104" y="256.084" x="187.164"/>
   <rect id="svg_102" fill="#E8BB20" height="15.156" width="3.104" y="256.084" x="179.2"/>
   <rect id="svg_103" fill="#E8BB20" height="15.156" width="3.104" y="256.084" x="171.24"/>
   <rect id="svg_104" fill="#E8BB20" height="15.156" width="3.104" y="256.084" x="163.28"/>
   <rect id="svg_105" fill="#E8BB20" height="15.156" width="3.104" y="256.084" x="155.316"/>
   <rect id="svg_106" fill="#E8BB20" height="15.156" width="3.104" y="256.084" x="147.352"/>
   <rect id="svg_107" fill="#E8BB20" height="15.156" width="3.104" y="256.084" x="139.392"/>
   <rect id="svg_108" fill="#E8BB20" height="15.156" width="3.104" y="256.084" x="131.432"/>
  </g>
  <rect id="svg_109" fill="#F5EB07" height="24.16" width="97.04" y="225.004" x="122.716"/>
  <g id="svg_110">
   <rect id="svg_111" fill="#E8BB20" height="15.156" width="3.104" y="229.484" x="213.484"/>
   <rect id="svg_112" fill="#E8BB20" height="15.156" width="3.104" y="229.484" x="205.524"/>
   <rect id="svg_113" fill="#E8BB20" height="15.156" width="3.104" y="229.484" x="197.564"/>
   <rect id="svg_114" fill="#E8BB20" height="15.156" width="3.104" y="229.484" x="189.604"/>
   <rect id="svg_115" fill="#E8BB20" height="15.156" width="3.104" y="229.484" x="181.644"/>
   <rect id="svg_116" fill="#E8BB20" height="15.156" width="3.104" y="229.484" x="173.684"/>
   <rect id="svg_117" fill="#E8BB20" height="15.156" width="3.104" y="229.484" x="165.708"/>
   <rect id="svg_118" fill="#E8BB20" height="15.156" width="3.104" y="229.484" x="157.744"/>
   <rect id="svg_119" fill="#E8BB20" height="15.156" width="3.104" y="229.484" x="149.784"/>
   <rect id="svg_120" fill="#E8BB20" height="15.156" width="3.104" y="229.484" x="141.82"/>
   <rect id="svg_121" fill="#E8BB20" height="15.156" width="3.104" y="229.484" x="133.856"/>
   <rect id="svg_122" fill="#E8BB20" height="15.156" width="3.104" y="229.484" x="125.896"/>
  </g>
  <rect id="svg_123" fill="#F5EB07" height="24.16" width="97.04" y="384.564" x="242.084"/>
  <g id="svg_124">
   <rect id="svg_125" fill="#E8BB20" height="15.156" width="3.104" y="389.084" x="332.884"/>
   <rect id="svg_126" fill="#E8BB20" height="15.156" width="3.104" y="389.084" x="324.884"/>
   <rect id="svg_127" fill="#E8BB20" height="15.156" width="3.104" y="389.084" x="316.924"/>
   <rect id="svg_128" fill="#E8BB20" height="15.156" width="3.104" y="389.084" x="308.964"/>
   <rect id="svg_129" fill="#E8BB20" height="15.156" width="3.104" y="389.084" x="301.004"/>
   <rect id="svg_130" fill="#E8BB20" height="15.156" width="3.104" y="389.084" x="293.044"/>
   <rect id="svg_131" fill="#E8BB20" height="15.156" width="3.104" y="389.084" x="285.084"/>
   <rect id="svg_132" fill="#E8BB20" height="15.156" width="3.104" y="389.084" x="277.124"/>
   <rect id="svg_133" fill="#E8BB20" height="15.156" width="3.104" y="389.084" x="269.164"/>
   <rect id="svg_134" fill="#E8BB20" height="15.156" width="3.104" y="389.084" x="261.204"/>
   <rect id="svg_135" fill="#E8BB20" height="15.156" width="3.104" y="389.084" x="253.244"/>
   <rect id="svg_136" fill="#E8BB20" height="15.156" width="3.104" y="389.084" x="245.284"/>
  </g>
  <rect id="svg_137" fill="#F5EB07" height="24.16" width="97.04" y="358.004" x="231.708"/>
  <g id="svg_138">
   <rect id="svg_139" fill="#E8BB20" height="15.156" width="3.104" y="362.484" x="322.484"/>
   <rect id="svg_140" fill="#E8BB20" height="15.156" width="3.104" y="362.484" x="314.524"/>
   <rect id="svg_141" fill="#E8BB20" height="15.156" width="3.104" y="362.484" x="306.564"/>
   <rect id="svg_142" fill="#E8BB20" height="15.156" width="3.104" y="362.484" x="298.604"/>
   <rect id="svg_143" fill="#E8BB20" height="15.156" width="3.104" y="362.484" x="290.604"/>
   <rect id="svg_144" fill="#E8BB20" height="15.156" width="3.104" y="362.484" x="282.644"/>
   <rect id="svg_145" fill="#E8BB20" height="15.156" width="3.104" y="362.484" x="274.684"/>
   <rect id="svg_146" fill="#E8BB20" height="15.156" width="3.104" y="362.484" x="266.736"/>
   <rect id="svg_147" fill="#E8BB20" height="15.156" width="3.104" y="362.484" x="258.776"/>
   <rect id="svg_148" fill="#E8BB20" height="15.156" width="3.104" y="362.484" x="250.812"/>
   <rect id="svg_149" fill="#E8BB20" height="15.156" width="3.104" y="362.484" x="242.852"/>
   <rect id="svg_150" fill="#E8BB20" height="15.156" width="3.104" y="362.484" x="234.888"/>
  </g>
  <rect id="svg_151" fill="#F5EB07" height="24.16" width="97.04" y="331.404" x="242.084"/>
  <g id="svg_152">
   <rect id="svg_153" fill="#E8BB20" height="15.156" width="3.104" y="335.884" x="332.884"/>
   <rect id="svg_154" fill="#E8BB20" height="15.156" width="3.104" y="335.884" x="324.884"/>
   <rect id="svg_155" fill="#E8BB20" height="15.156" width="3.104" y="335.884" x="316.924"/>
   <rect id="svg_156" fill="#E8BB20" height="15.156" width="3.104" y="335.884" x="308.964"/>
   <rect id="svg_157" fill="#E8BB20" height="15.156" width="3.104" y="335.884" x="301.004"/>
   <rect id="svg_158" fill="#E8BB20" height="15.156" width="3.104" y="335.884" x="293.044"/>
   <rect id="svg_159" fill="#E8BB20" height="15.156" width="3.104" y="335.884" x="285.084"/>
   <rect id="svg_160" fill="#E8BB20" height="15.156" width="3.104" y="335.884" x="277.124"/>
   <rect id="svg_161" fill="#E8BB20" height="15.156" width="3.104" y="335.884" x="269.164"/>
   <rect id="svg_162" fill="#E8BB20" height="15.156" width="3.104" y="335.884" x="261.204"/>
   <rect id="svg_163" fill="#E8BB20" height="15.156" width="3.104" y="335.884" x="253.244"/>
   <rect id="svg_164" fill="#E8BB20" height="15.156" width="3.104" y="335.884" x="245.284"/>
  </g>
  <rect id="svg_165" fill="#F5EB07" height="24.16" width="97.04" y="304.804" x="254.044"/>
  <g id="svg_166">
   <rect id="svg_167" fill="#0b2947" height="15.156" width="3.104" y="308.284" x="345.804"/>
   <rect id="svg_168" fill="#0b2947" height="15.156" width="3.104" y="308.284" x="337.844"/>
   <rect id="svg_169" fill="#0b2947" height="15.156" width="3.104" y="308.284" x="329.884"/>
   <rect id="svg_170" fill="#0b2947" height="15.156" width="3.104" y="308.284" x="321.924"/>
   <rect id="svg_171" fill="#0b2947" height="15.156" width="3.104" y="308.284" x="313.964"/>
   <rect id="svg_172" fill="#0b2947" height="15.156" width="3.104" y="308.284" x="306.004"/>
   <rect id="svg_173" fill="#0b2947" height="15.156" width="3.104" y="308.284" x="298.044"/>
   <rect id="svg_174" fill="#0b2947" height="15.156" width="3.104" y="308.284" x="290.084"/>
   <rect id="svg_175" fill="#0b2947" height="15.156" width="3.104" y="308.284" x="282.124"/>
   <rect id="svg_176" fill="#0b2947" height="15.156" width="3.104" y="308.284" x="274.164"/>
   <rect id="svg_177" fill="#0b2947" height="15.156" width="3.104" y="308.284" x="266.164"/>
   <rect id="svg_178" fill="#0b2947" height="15.156" width="3.104" y="308.284" x="258.244"/>
   <path id="svg_179" fill="#0b2947" d="m264,326.144c-16.716,-13.704 -41.324,-13.704 -58.04,0c-22.592,18.52 -22.592,52.788 0,71.308c16.716,13.704 41.324,13.704 58.04,0c22.588,-18.52 22.588,-52.788 0,-71.308z"/>
  </g>
  <g id="svg_183"/>
  <g id="svg_184"/>
  <g id="svg_185"/>
  <g id="svg_186"/>
  <g id="svg_187"/>
  <g id="svg_188"/>
  <g id="svg_189"/>
  <g id="svg_190"/>
  <g id="svg_191"/>
  <g id="svg_192"/>
  <g id="svg_193"/>
  <g id="svg_194"/>
  <g id="svg_195"/>
  <g id="svg_196"/>
  <g id="svg_197"/>
  <g id="svg_205">
   <path id="svg_201" fill="#e48e66" d="m264.715681,362.804018c0,16.247779 -13.171485,29.419266 -29.419266,29.419266s-29.419266,-13.171488 -29.419266,-29.419266c0,-16.247781 13.171488,-29.419266 29.419266,-29.419266s29.419266,13.171485 29.419266,29.419266zm0,0"/>
   <path id="svg_202" fill="#6fe3ff" d="m272.269397,347.372162c-0.34299,-0.798244 -1.264995,-1.172174 -2.066776,-0.836256c-0.801781,0.335033 -1.184549,1.253501 -0.856587,2.058819c1.882903,4.500403 2.847339,9.331422 2.837615,14.209293c0,20.339779 -16.547453,36.887234 -36.887234,36.887234s-36.887234,-16.547455 -36.887234,-36.887234c0,-20.339782 16.547453,-36.887234 36.887234,-36.887234c4.13355,-0.005305 8.238809,0.686861 12.142519,2.045558c0.534815,0.190058 1.13151,0.079559 1.562014,-0.290834c0.430506,-0.370391 0.630287,-0.943218 0.523323,-1.501019c-0.106962,-0.557798 -0.504758,-1.014822 -1.042225,-1.199577c-4.238744,-1.476268 -8.696718,-2.227661 -13.185632,-2.222356c-22.087433,0 -40.055463,17.968912 -40.055463,40.055463c0,22.087433 17.96803,40.055463 40.055463,40.055463s40.055463,-17.96803 40.055463,-40.055463c0.009724,-5.297767 -1.037808,-10.544261 -3.082481,-15.431856zm0,0"/>
   <path id="svg_203" fill="#af593c" d="m248.073641,345.634233c0,-0.874268 -0.709846,-1.584114 -1.584114,-1.584114l-22.386224,0c-0.874268,0 -1.584114,0.709846 -1.584114,1.584114c0,0.875153 0.709846,1.584114 1.584114,1.584114l6.404525,0c3.817965,0.005305 7.104649,2.695294 7.864881,6.436349l-14.269406,0c-0.874268,0 -1.584114,0.708961 -1.584114,1.584114s0.709846,1.584114 1.584114,1.584114l14.271173,0c-0.75758,3.743708 -4.046917,6.436349 -7.866648,6.438117l-6.404525,0c-0.648849,0 -1.232285,0.396029 -1.472731,0.998911c-0.239561,0.602882 -0.087516,1.291513 0.384537,1.737045l16.01087,15.127762c0.63559,0.601115 1.638038,0.572827 2.239152,-0.062765c0.601115,-0.636475 0.572827,-1.63892 -0.062763,-2.240035l-13.115795,-12.392689l2.421253,0c5.568268,-0.000885 10.289671,-4.094653 11.079079,-9.606346l4.902621,0c0.874268,0 1.584114,-0.708961 1.584114,-1.584114s-0.709846,-1.584114 -1.584114,-1.584114l-4.905273,0c-0.350945,-2.450428 -1.507208,-4.714331 -3.284917,-6.436349l8.19019,0c0.874268,0 1.584114,-0.708961 1.584114,-1.584114zm0,0"/>
   <path id="svg_204" fill="#2561a1" d="m253.284775,333.027617l7.37338,7.372498c0.609072,0.609069 1.592071,0.619678 2.214402,0.025635l12.993804,-12.41302c0.415475,-0.388957 0.589623,-0.971508 0.457024,-1.524887c-0.133484,-0.554264 -0.553379,-0.993609 -1.10057,-1.151843c-0.546309,-0.158235 -1.13593,-0.010607 -1.544335,0.386304l-11.874671,11.342508l-6.278114,-6.27723c-0.618794,-0.618796 -1.622124,-0.618796 -2.24092,0c-0.617911,0.617909 -0.617911,1.621241 0,2.240035zm0,0"/>
  </g>
 </g>
</svg>