<svg width="503.606" height="503.606" xmlns="http://www.w3.org/2000/svg">
 <defs>
  <linearGradient y2="0.91524" x2="1.134912" y1="0.085246" x1="-0.134085" id="SVGID_1_">
   <stop stop-color="#D4E1F4" offset="0"/>
   <stop stop-color="#D4E1F4" offset="0.172"/>
   <stop stop-color="#D4E1F4" offset="0.2"/>
   <stop stop-color="#DAE4F4" offset="0.2"/>
   <stop stop-color="#EBEBF4" offset="0.201"/>
   <stop stop-color="#F6F1F4" offset="0.201"/>
   <stop stop-color="#FDF4F4" offset="0.202"/>
   <stop stop-color="#FFF5F4" offset="0.205"/>
   <stop stop-color="#FFF5F4" offset="0.252"/>
   <stop stop-color="#FFF5F4" offset="0.26"/>
   <stop stop-color="#D4E1F4" offset="0.26"/>
   <stop stop-color="#D4E1F4" offset="0.397"/>
   <stop stop-color="#D4E1F4" offset="0.42"/>
   <stop stop-color="#DAE4F4" offset="0.42"/>
   <stop stop-color="#EBEBF4" offset="0.421"/>
   <stop stop-color="#F6F1F4" offset="0.421"/>
   <stop stop-color="#FDF4F4" offset="0.422"/>
   <stop stop-color="#FFF5F4" offset="0.425"/>
   <stop stop-color="#FFF5F4" offset="0.489"/>
   <stop stop-color="#FFF5F4" offset="0.5"/>
   <stop stop-color="#F9F2F4" offset="0.5"/>
   <stop stop-color="#E8EBF4" offset="0.5"/>
   <stop stop-color="#DDE5F4" offset="0.5"/>
   <stop stop-color="#D6E2F4" offset="0.5"/>
   <stop stop-color="#D4E1F4" offset="0.501"/>
   <stop stop-color="#D4E1F4" offset="0.706"/>
   <stop stop-color="#D4E1F4" offset="0.74"/>
   <stop stop-color="#FFF5F4" offset="0.741"/>
   <stop stop-color="#FFF5F4" offset="0.835"/>
   <stop stop-color="#FFF5F4" offset="0.85"/>
   <stop stop-color="#D4E1F4" offset="0.851"/>
  </linearGradient>
 </defs>
 <g>
  <title>background</title>
  <rect fill="none" id="canvas_background" height="402" width="582" y="-1" x="-1"/>
 </g>
 <g>
  <title>Layer 1</title>
  <g id="svg_1">
   <path id="svg_2" fill="#E3E7F2" d="m117.514,32.596c0.006,-5.494 1.606,-10.869 4.606,-15.471l-84.134,22.543c-7.323,1.962 -13.566,6.753 -17.357,13.318s-4.818,14.368 -2.856,21.69l99.127,369.944c0.041,0.151 0.187,0.248 0.342,0.228c0.155,-0.02 0.271,-0.152 0.271,-0.309l0.001,-411.943l0,0z"/>
   <path id="svg_3" fill="#A4C2F7" d="m268.596,8.393l97.318,0c15.786,0 28.583,12.797 28.583,28.583l0,429.653c0,15.786 -12.797,28.583 -28.583,28.583l-97.318,0c-15.786,0 -28.583,-12.797 -28.583,-28.583l0,-429.653c-0.001,-15.786 12.796,-28.583 28.583,-28.583z"/>
   <path id="svg_4" fill="#FFFFFF" d="m146.097,8.393l97.318,0c15.786,0 28.583,12.797 28.583,28.583l0,429.653c0,15.786 -12.797,28.583 -28.583,28.583l-97.318,0c-15.786,0 -28.583,-12.797 -28.583,-28.583l0,-429.653c0,-15.786 12.797,-28.583 28.583,-28.583z"/>
   <path id="svg_5" fill="#E3E7F2" d="m171.277,8.393l161.063,0c15.786,0 28.583,12.797 28.583,28.583l0,429.653c0,15.786 -12.797,28.583 -28.583,28.583l-161.063,0c-15.786,0 -28.583,-12.797 -28.583,-28.583l0,-429.653c0,-15.786 12.797,-28.583 28.583,-28.583z"/>
   <rect id="svg_6" fill="#ff7f00" height="335.74" width="154.49" y="58.756" x="240.012"/>
   <rect id="svg_7" fill="url(#SVGID_1_)" height="335.74" width="218.23" y="58.756" x="142.692"/>
   <circle id="svg_8" fill="#A4C2F7" r="25.18" cy="444.856" cx="251.812"/>
   <g id="svg_9">
    <path id="svg_10" fill="#333333" d="m357.522,503.606l-211.426,0c-20.411,-0.024 -36.952,-16.564 -36.975,-36.975l0,-429.656c0.024,-20.411 16.564,-36.952 36.975,-36.975l211.426,0c20.411,0.024 36.952,16.564 36.975,36.975l0,429.656c-0.024,20.411 -16.564,36.951 -36.975,36.975zm-211.426,-486.82c-11.144,0.013 -20.175,9.044 -20.188,20.188l0,429.656c0.013,11.144 9.044,20.175 20.188,20.189l211.426,0c11.144,-0.013 20.175,-9.044 20.188,-20.189l0,-429.655c-0.013,-11.144 -9.044,-20.175 -20.188,-20.188l-211.426,-0.001l0,0z"/>
    <path id="svg_11" fill="#333333" d="m251.809,478.426c-18.542,0 -33.574,-15.031 -33.574,-33.574s15.031,-33.574 33.574,-33.574c18.542,0 33.574,15.031 33.574,33.574c-0.02,18.534 -15.04,33.554 -33.574,33.574l0,0zm0,-50.361c-9.271,0 -16.787,7.516 -16.787,16.787s7.516,16.787 16.787,16.787s16.787,-7.516 16.787,-16.787c-0.011,-9.267 -7.521,-16.776 -16.787,-16.787z"/>
    <path id="svg_12" fill="#333333" d="m386.104,402.885l-268.59,0c-4.636,0 -8.393,-3.758 -8.393,-8.393c0,-4.636 3.758,-8.393 8.393,-8.393l268.59,0c4.636,0 8.393,3.758 8.393,8.393s-3.758,8.393 -8.393,8.393z"/>
    <path id="svg_13" fill="#333333" d="m386.104,67.147l-268.59,0c-4.636,0 -8.393,-3.758 -8.393,-8.393s3.758,-8.393 8.393,-8.393l268.59,0c4.636,0 8.393,3.758 8.393,8.393s-3.758,8.393 -8.393,8.393z"/>
    <path id="svg_14" fill="#333333" d="m251.809,41.967l-33.574,0c-4.636,0 -8.393,-3.758 -8.393,-8.393s3.758,-8.393 8.393,-8.393l33.574,0c4.636,0 8.393,3.758 8.393,8.393s-3.758,8.393 -8.393,8.393z"/>
    <path id="svg_15" fill="#333333" d="m285.383,41.967l-8.393,0c-4.636,0 -8.393,-3.758 -8.393,-8.393s3.758,-8.393 8.393,-8.393l8.393,0c4.636,0 8.393,3.758 8.393,8.393s-3.758,8.393 -8.393,8.393z"/>
    <path id="svg_16" fill="#333333" d="m120.092,33.573c-3.165,-0.001 -6.06,-1.782 -7.488,-4.607c-2.368,-2.026 -3.417,-5.198 -2.726,-8.237s3.01,-5.444 6.021,-6.247l25.193,-6.73l-11.943,18.336c-0.536,0.828 -1.012,1.693 -1.422,2.59c-1.369,2.986 -4.352,4.898 -7.635,4.895l0,0z"/>
    <path id="svg_17" fill="#333333" d="m117.51,443.721c-3.029,0.001 -5.824,-1.631 -7.311,-4.27c-2.994,-0.718 -5.355,-3.017 -6.152,-5.992l-2.123,-7.926c-1.066,-3.979 0.912,-8.143 4.67,-9.83c3.758,-1.687 8.185,-0.398 10.449,3.043c2.301,-0.122 4.552,0.706 6.226,2.289c1.675,1.583 2.627,3.784 2.634,6.088l0,8.205c0.001,2.226 -0.883,4.362 -2.458,5.936c-1.574,1.573 -3.709,2.457 -5.935,2.457l0,0z"/>
    <path id="svg_18" fill="#333333" d="m117.51,402.68c-4.302,-0.001 -7.907,-3.254 -8.348,-7.533c-1.476,3.215 -4.81,5.16 -8.335,4.862c-3.525,-0.297 -6.486,-2.773 -7.403,-6.19l-2.123,-7.926c-0.776,-2.896 0.052,-5.986 2.172,-8.107c2.12,-2.12 5.21,-2.948 8.107,-2.172s5.158,3.038 5.934,5.934l1.602,5.975l0,-1.443c0,-4.636 3.758,-8.393 8.393,-8.393c4.636,0 8.393,3.758 8.393,8.393l0,8.205c0.001,2.226 -0.884,4.361 -2.458,5.936c-1.573,1.575 -3.708,2.459 -5.934,2.459l0,0z"/>
    <path id="svg_19" fill="#333333" d="m90.907,360.401c-3.797,-0.002 -7.12,-2.553 -8.102,-6.221l-2.127,-7.926c-1.2,-4.477 1.457,-9.079 5.934,-10.279c4.477,-1.2 9.079,1.457 10.279,5.934l2.127,7.926c0.676,2.521 0.14,5.213 -1.449,7.284c-1.59,2.07 -4.052,3.284 -6.662,3.282l0,0z"/>
    <path id="svg_20" fill="#333333" d="m80.284,320.762c-3.797,-0.002 -7.12,-2.553 -8.102,-6.221l-2.127,-7.935c-1.2,-4.477 1.457,-9.079 5.934,-10.279c4.477,-1.2 9.079,1.457 10.279,5.934l2.127,7.934c0.674,2.521 0.138,5.212 -1.451,7.282c-1.589,2.071 -4.05,3.285 -6.66,3.285l0,0z"/>
    <path id="svg_21" fill="#333333" d="m69.661,281.114c-3.797,-0.004 -7.119,-2.554 -8.102,-6.221l-2.123,-7.926c-0.776,-2.896 0.052,-5.986 2.172,-8.107c2.12,-2.12 5.21,-2.948 8.107,-2.172c2.896,0.776 5.158,3.038 5.934,5.934l2.123,7.926c0.674,2.521 0.138,5.212 -1.451,7.282c-1.589,2.071 -4.05,3.284 -6.66,3.284l0,0z"/>
    <path id="svg_22" fill="#333333" d="m59.038,241.475c-3.797,-0.004 -7.119,-2.554 -8.102,-6.221l-2.123,-7.926c-1.192,-4.474 1.465,-9.069 5.938,-10.267s9.071,1.452 10.276,5.923l2.123,7.926c0.674,2.521 0.138,5.212 -1.451,7.282c-1.59,2.07 -4.051,3.283 -6.661,3.283l0,0z"/>
    <path id="svg_23" fill="#333333" d="m48.415,201.836c-3.797,-0.004 -7.119,-2.554 -8.102,-6.221l-2.123,-7.934c-1.2,-4.477 1.457,-9.079 5.935,-10.279c4.477,-1.2 9.079,1.457 10.279,5.935l2.123,7.934c0.577,2.151 0.276,4.442 -0.838,6.37s-2.949,3.334 -5.1,3.908c-0.709,0.191 -1.44,0.287 -2.174,0.287l0,0z"/>
    <path id="svg_24" fill="#333333" d="m37.796,162.188c-3.797,-0.002 -7.12,-2.553 -8.102,-6.221l-2.127,-7.926c-1.2,-4.477 1.457,-9.079 5.934,-10.279s9.079,1.457 10.279,5.934l2.127,7.926c0.676,2.521 0.14,5.213 -1.449,7.284c-1.589,2.07 -4.051,3.283 -6.662,3.282z"/>
    <path id="svg_25" fill="#333333" d="m27.174,122.549c-3.797,-0.002 -7.12,-2.553 -8.103,-6.221l-2.127,-7.927c-1.2,-4.477 1.457,-9.079 5.934,-10.279s9.079,1.457 10.279,5.934l2.127,7.926c0.676,2.521 0.14,5.213 -1.449,7.284c-1.589,2.071 -4.051,3.284 -6.661,3.283l0,0z"/>
    <path id="svg_26" fill="#333333" d="m16.915,82.827c-4.321,-0.005 -7.933,-3.289 -8.349,-7.59c-0.115,-1.213 -0.172,-2.418 -0.172,-3.607c-0.001,-2.333 0.22,-4.66 0.66,-6.951c0.565,-2.945 2.658,-5.364 5.491,-6.347s5.974,-0.38 8.242,1.582s3.316,4.984 2.751,7.929c-0.239,1.243 -0.358,2.505 -0.357,3.77c0,0.68 0.033,1.344 0.098,2.025c0.436,4.612 -2.946,8.706 -7.557,9.148c-0.267,0.03 -0.537,0.044 -0.807,0.041z"/>
    <path id="svg_27" fill="#333333" d="m38.776,52.229c-4.21,-0.004 -7.766,-3.126 -8.314,-7.3s2.08,-8.109 6.146,-9.2l7.93,-2.123c4.477,-1.2 9.079,1.457 10.279,5.934s-1.457,9.079 -5.934,10.279l-7.93,2.123c-0.71,0.191 -1.442,0.288 -2.177,0.287z"/>
    <path id="svg_28" fill="#333333" d="m78.419,41.598c-4.21,-0.004 -7.766,-3.126 -8.314,-7.3c-0.548,-4.174 2.08,-8.109 6.146,-9.2l7.926,-2.123c4.477,-1.2 9.079,1.457 10.279,5.935c1.2,4.477 -1.457,9.079 -5.935,10.279l-7.926,2.123c-0.709,0.19 -1.441,0.287 -2.176,0.286z"/>
   </g>
   <path id="svg_29" fill="#E3E7F2" d="m386.104,36.976c-0.006,-5.494 -1.606,-10.869 -4.606,-15.471l84.133,22.543c7.323,1.962 13.566,6.753 17.357,13.318s4.818,14.368 2.856,21.69l-99.127,369.944c-0.041,0.151 -0.187,0.248 -0.342,0.227c-0.155,-0.02 -0.271,-0.152 -0.271,-0.308l0,-411.943l0,0z"/>
   <path id="svg_30" fill="#333333" d="m392.919,458.278l-14.939,-1.688l-0.27,-7.672l0,-411.943c-0.009,-3.873 -1.14,-7.659 -3.258,-10.902l-11.869,-18.32l105.221,28.189c9.473,2.537 17.55,8.734 22.454,17.228c4.904,8.493 6.232,18.586 3.694,28.059l-101.033,377.049zm1.426,-424.639c0.102,1.107 0.152,2.221 0.152,3.336l0,350.566l83.242,-310.656c1.386,-5.173 0.66,-10.684 -2.018,-15.322s-7.088,-8.022 -12.261,-9.408l-69.115,-18.516z"/>
  </g>
  <g id="svg_31"/>
  <g id="svg_32"/>
  <g id="svg_33"/>
  <g id="svg_34"/>
  <g id="svg_35"/>
  <g id="svg_36"/>
  <g id="svg_37"/>
  <g id="svg_38"/>
  <g id="svg_39"/>
  <g id="svg_40"/>
  <g id="svg_41"/>
  <g id="svg_42"/>
  <g id="svg_43"/>
  <g id="svg_44"/>
  <g id="svg_45"/>
 </g>
</svg>