<svg width="64" height="64" xmlns="http://www.w3.org/2000/svg">

 <g>
  <title>background</title>
  <rect fill="none" id="canvas_background" height="402" width="582" y="-1" x="-1"/>
 </g>
 <g>
  <title>Layer 1</title>
  <ellipse id="svg_1" ry="2.5" rx="7" fill="#d80027" cy="58.5" cx="51"/>
  <path id="svg_2" fill="#e0e0e2" d="m52.07,17.72l-0.07,0.28l0,37l-44,0l0,-37l-0.07,-0.28l22.07,-5.72l22.07,5.72z"/>
  <path id="svg_3" fill="#ffda44" d="m57,13l0,6l-27,-7l-27,7l0,-6l27,-7l27,7z"/>
  <path id="svg_4" fill="#c0ab91" d="m30,39l7,0l0,16l-7,0l0,-16z"/>
  <path id="svg_5" fill="#b39a7c" d="m23,39l7,0l0,16l-7,0l0,-16z"/>
  <path id="svg_6" fill="#2488ff" d="m24,28l0,5l-10,0l0,-5a5,5 0 1 1 10,0z"/>
  <path id="svg_7" fill="#2488ff" d="m46,28l0,4.34a8.517,8.517 0 0 0 -0.99,0.66l-9.01,0l0,-5a5,5 0 1 1 10,0z"/>
  <path id="svg_8" fill="#ff5023" d="m61,41c0,4.12 -5.57,11.56 -8.4,15.07c-0.96,1.19 -1.6,1.93 -1.6,1.93s-0.64,-0.74 -1.6,-1.93c-0.26,-0.32 -0.55,-0.68 -0.85,-1.07c-2.96,-3.79 -7.55,-10.26 -7.55,-14a9.985,9.985 0 0 1 4.01,-8a8.517,8.517 0 0 1 0.99,-0.66a9.966,9.966 0 0 1 5,-1.34c0.34,0 0.67,0.02 1,0.05a10.006,10.006 0 0 1 9,9.95z"/>
  <circle id="svg_9" r="4" fill="#ffda44" cy="41" cx="51"/>
  <path id="svg_10" d="m46,41a5,5 0 1 0 5,-5a5.006,5.006 0 0 0 -5,5zm8,0a3,3 0 1 1 -3,-3a3,3 0 0 1 3,3z"/>
  <path id="svg_11" d="m54.48,55.31c3.04,-3.92 7.52,-10.37 7.52,-14.31a11.021,11.021 0 0 0 -9,-10.81l0,-11.19l3.75,0.97a1.068,1.068 0 0 0 0.25,0.03a1,1 0 0 0 1,-1l0,-6a1,1 0 0 0 -0.75,-0.97l-27,-7a1.057,1.057 0 0 0 -0.5,0l-27,7a1,1 0 0 0 -0.75,0.97l0,6a0.985,0.985 0 0 0 0.39,0.79a1.015,1.015 0 0 0 0.86,0.18l3.75,-0.97l0,36a1,1 0 0 0 1,1l37.18,0c-1.28,0.56 -2.18,1.38 -2.18,2.5c0,2.4 4.15,3.5 8,3.5s8,-1.1 8,-3.5c0,-1.73 -2.11,-2.73 -4.52,-3.19zm5.52,-14.31c0,3.87 -5.93,11.77 -9,15.46c-3.07,-3.69 -9,-11.59 -9,-15.46a9,9 0 0 1 18,0zm-23,-9l0,-4a4.009,4.009 0 0 1 6.83,-2.84a4.045,4.045 0 0 1 1.17,2.84l0,3.79l-0.3,0.21l-7.7,0zm-33,-14.29l0,-3.94l26,-6.74l26,6.74l0,3.94l-25.75,-6.68a1.057,1.057 0 0 0 -0.5,0l-25.75,6.68zm25,36.29l-5,0l0,-14l5,0l0,14zm7,0l-5,0l0,-14l5,0l0,14zm2,0l0,-15a1,1 0 0 0 -1,-1l-14,0a1,1 0 0 0 -1,1l0,15l-13,0l0,-35.52l21,-5.45l21,5.45l0,11.52a11.072,11.072 0 0 0 -4,0.76l0,-2.76a6,6 0 0 0 -12,0l0,4l-1,0l0,2l8.52,0a10.958,10.958 0 0 0 -2.52,7c0,3.52 3.59,9.06 6.52,13l-8.52,0zm13,6c-3.84,0 -5.88,-1.1 -6,-1.48c0.09,-0.31 1.37,-1.1 3.96,-1.4c0.71,0.88 1.2,1.44 1.29,1.54a1,1 0 0 0 1.5,0c0.09,-0.1 0.58,-0.66 1.29,-1.54c2.59,0.3 3.87,1.09 3.96,1.36c-0.12,0.42 -2.16,1.52 -6,1.52z"/>
  <path id="svg_12" d="m26,46l2,0l0,2l-2,0l0,-2z"/>
  <path id="svg_13" d="m32,46l2,0l0,2l-2,0l0,-2z"/>
  <path id="svg_14" d="m25,32l0,-4a6,6 0 0 0 -12,0l0,4l-1,0l0,2l14,0l0,-2l-1,0zm-2,0l-8,0l0,-4a4,4 0 0 1 8,0l0,4z"/>
  <line stroke-linecap="undefined" stroke-linejoin="undefined" id="svg_15" y2="10.165761" x2="46.521739" y1="5.991848" x1="46.521739" stroke-width="1.5" stroke="#000" fill="none"/>
  <line stroke-linecap="undefined" stroke-linejoin="undefined" id="svg_16" y2="6.339674" x2="49.130435" y1="6.165761" x1="45.826087" fill-opacity="null" stroke-opacity="null" stroke-width="1.5" stroke="#000" fill="none"/>
  <line stroke-linecap="undefined" stroke-linejoin="undefined" id="svg_20" y2="10.165761" x2="48.608696" y1="5.470109" x1="48.608696" fill-opacity="null" stroke-opacity="null" stroke-width="1.5" stroke="#000" fill="none"/>
 </g>
</svg>