<svg width="50" height="50" xmlns="http://www.w3.org/2000/svg">
 <style type="text/css">.st0{fill:#F0C4DB;}
	.st1{fill:#FF9D9C;}
	.st2{fill:#9BEAF9;}
	.st3{fill:#E9F4BC;}
	.st4{fill:#505050;}
	.st5{fill:#FEBECC;}
	.st6{fill:#FFFFFF;}
	.st7{fill:#FDE4A1;}
	.st8{fill:#FEE7B5;}
	.st9{fill:#CDF6FC;}
	.st10{fill:#F2C6DD;}
	.st11{opacity:0.1;}</style>

 <g>
  <title>background</title>
  <rect fill="none" id="canvas_background" height="402" width="582" y="-1" x="-1"/>
 </g>
 <g>
  <title>Layer 1</title>
  <g id="svg_1">
   <g id="svg_3">
    <path id="svg_4" d="m46.61,21.39c-0.41,-0.41 -0.98,-0.68 -1.6,-0.71c-1.42,-0.08 -2.57,1.15 -2.57,2.57l0,7.83c-0.1,-0.44 -0.32,-0.86 -0.66,-1.19c-0.95,-0.96 -2.5,-0.95 -3.46,0l-5.1,5.1c-1.05,1.05 -1.63,2.47 -1.63,3.94l0,6.22l8.31,0l0,-2.89l6.39,-6.38c0.67,-0.67 1.05,-1.58 1.05,-2.52l0,-10.24c-0.02,-0.67 -0.29,-1.28 -0.73,-1.73z" class="st1"/>
    <rect id="svg_5" y="45.14" x="29.9" width="12" height="2.98" class="st2"/>
    <path id="svg_6" d="m16.16,34.98l-5.1,-5.1c-0.95,-0.95 -2.5,-0.96 -3.46,0c-0.34,0.34 -0.56,0.76 -0.66,1.19l0,-7.83c0,-1.42 -1.16,-2.65 -2.57,-2.57c-0.62,0.03 -1.19,0.3 -1.6,0.71c-0.44,0.44 -0.71,1.06 -0.71,1.73l0,10.23c0,0.95 0.38,1.85 1.05,2.52l6.39,6.38l0,2.89l8.31,0l0,-6.22c-0.01,-1.47 -0.6,-2.88 -1.65,-3.93z" class="st1"/>
    <rect id="svg_7" y="45.14" x="7.47" width="12" transform="matrix(-1,-4.485269e-11,4.485269e-11,-1,26.9461,93.2678) " height="2.98" class="st2"/>
    <circle id="svg_8" r="14.09" cy="16.22" cx="24.69" class="st3"/>
    <path id="svg_9" d="m24.69,26.31c-5.56,0 -10.09,-4.53 -10.09,-10.09s4.52,-10.1 10.09,-10.1s10.09,4.53 10.09,10.09s-4.53,10.1 -10.09,10.1z" class="st7"/>
    <g id="svg_10">
     <path id="svg_11" d="m47.14,20.86c-0.56,-0.56 -1.31,-0.9 -2.09,-0.93c-0.85,-0.04 -1.67,0.26 -2.31,0.86c-0.67,0.64 -1.06,1.53 -1.06,2.46l0,5.62c-0.49,-0.29 -1.05,-0.45 -1.63,-0.45c0,0 0,0 0,0c-0.85,0 -1.66,0.33 -2.26,0.94l-5.1,5.1c-1.2,1.2 -1.85,2.78 -1.85,4.48l0,5.47l-0.93,0c-0.41,0 -0.75,0.34 -0.75,0.75l0,2.98c0,0.41 0.34,0.75 0.75,0.75l12,0c0.41,0 0.75,-0.34 0.75,-0.75l0,-2.98c0,-0.41 -0.34,-0.75 -0.75,-0.75l-1.26,0l0,-1.83l6.16,-6.16c0.82,-0.81 1.27,-1.9 1.27,-3.05l0,-10.25c0,-0.85 -0.33,-1.65 -0.94,-2.26zm-5.98,26.51l-10.5,0l0,-1.48l0.93,0l8.31,0l1.26,0l0,1.48zm5.42,-14.02c0,0.75 -0.29,1.46 -0.83,1.99l-6.38,6.38c-0.14,0.14 -0.22,0.33 -0.22,0.53l0,2.14l-6.81,0l0,-5.47c0,-1.29 0.5,-2.5 1.42,-3.41l5.1,-5.1c0.32,-0.32 0.72,-0.48 1.2,-0.5c0.45,0 0.87,0.18 1.2,0.5c0.19,0.19 0.31,0.42 0.4,0.67c-0.06,0.17 -0.14,0.34 -0.26,0.5c-0.04,0.06 -0.09,0.11 -0.19,0.22l-3.8,4.64c-0.26,0.32 -0.22,0.79 0.1,1.06c0.14,0.11 0.31,0.17 0.48,0.17c0.22,0 0.43,-0.09 0.58,-0.27l3.75,-4.58c0.11,-0.1 0.2,-0.22 0.29,-0.33c0.26,-0.34 0.43,-0.72 0.53,-1.12c0.01,-0.02 0.01,-0.03 0.02,-0.05c0.01,-0.03 0.02,-0.06 0.03,-0.09c0.01,-0.02 0,-0.05 0,-0.07c0,-0.03 0.02,-0.06 0.02,-0.08l0,-7.83c0,-0.51 0.21,-1.01 0.59,-1.37c0.33,-0.32 0.77,-0.47 1.2,-0.45c0.42,0.02 0.81,0.2 1.1,0.49c0.32,0.33 0.5,0.75 0.5,1.2l0,10.23l-0.02,0z" class="st4"/>
     <path id="svg_12" d="m19.48,44.39l-0.93,0l0,-5.47c0,-1.69 -0.66,-3.28 -1.85,-4.48l-5.1,-5.1c-0.6,-0.6 -1.41,-0.94 -2.26,-0.94c0,0 0,0 -0.01,0c-0.58,0 -1.14,0.16 -1.63,0.45l0,-5.61c0,-0.92 -0.39,-1.82 -1.06,-2.46c-0.64,-0.6 -1.46,-0.92 -2.3,-0.86c-0.79,0.04 -1.53,0.37 -2.1,0.94c-0.6,0.61 -0.93,1.41 -0.93,2.26l0,10.23c0,1.15 0.45,2.24 1.26,3.05l6.17,6.16l0,1.83l-1.27,0c-0.41,0 -0.75,0.34 -0.75,0.75l0,2.98c0,0.41 0.34,0.75 0.75,0.75l12,0c0.41,0 0.75,-0.34 0.75,-0.75l0,-2.98c0.01,-0.41 -0.33,-0.75 -0.74,-0.75zm-9.46,-2.66l-6.38,-6.38c-0.53,-0.53 -0.83,-1.24 -0.83,-1.99l0,-10.24c0,-0.45 0.18,-0.88 0.49,-1.2c0.3,-0.3 0.69,-0.48 1.11,-0.5c0.44,-0.03 0.86,0.14 1.2,0.45c0.37,0.35 0.59,0.85 0.59,1.37l0,7.83c0,0.03 0.01,0.05 0.02,0.08c0,0.02 0,0.05 0,0.07c0.01,0.03 0.02,0.06 0.03,0.09c0,0.01 0.01,0.03 0.01,0.04c0.1,0.4 0.27,0.78 0.53,1.12c0.09,0.12 0.19,0.23 0.24,0.28l3.8,4.64c0.15,0.18 0.36,0.27 0.58,0.27c0.17,0 0.34,-0.06 0.48,-0.17c0.32,-0.26 0.37,-0.73 0.1,-1.06l-3.85,-4.7c-0.05,-0.05 -0.1,-0.11 -0.15,-0.17c-0.12,-0.16 -0.2,-0.33 -0.25,-0.5c0.08,-0.25 0.21,-0.48 0.4,-0.68c0.32,-0.32 0.74,-0.5 1.19,-0.5c0,0 0,0 0,0c0.45,0 0.88,0.18 1.2,0.5l5.1,5.1c0.91,0.91 1.41,2.13 1.41,3.41l0,5.47l-6.81,0l0,-2.14c0.01,-0.16 -0.07,-0.35 -0.21,-0.49zm8.71,5.64l-10.51,0l0,-1.48l1.26,0l8.31,0l0.93,0l0,1.48l0.01,0z" class="st4"/>
     <path id="svg_13" d="m11.82,10.42c0.11,0.05 0.23,0.08 0.35,0.08c0.28,0 0.53,-0.15 0.67,-0.4c0.18,-0.37 0.04,-0.83 -0.33,-1.01c-0.36,-0.19 -0.83,-0.04 -1.01,0.32l0,0.01c-0.09,0.17 -0.11,0.37 -0.05,0.56c0.06,0.19 0.19,0.35 0.37,0.44z" class="st4"/>
     <path id="svg_14" d="m39.53,16.21c0,-8.18 -6.65,-14.84 -14.84,-14.84c-4.79,0 -9.31,2.33 -12.09,6.24c-0.24,0.34 -0.16,0.81 0.17,1.05c0.33,0.23 0.82,0.15 1.05,-0.18c2.51,-3.51 6.57,-5.61 10.87,-5.61c7.35,0.02 13.33,6 13.34,13.34c-0.01,7.35 -5.99,13.33 -13.34,13.35c-7.34,-0.02 -13.32,-6 -13.34,-13.35c0,-1.49 0.25,-2.97 0.74,-4.38c0.13,-0.39 -0.08,-0.81 -0.47,-0.95c-0.37,-0.13 -0.82,0.08 -0.95,0.46c-0.54,1.56 -0.82,3.2 -0.82,4.87c0,8.19 6.66,14.84 14.84,14.85c8.19,-0.01 14.84,-6.66 14.84,-14.85z" class="st4"/>
     <path id="svg_15" d="m24.69,27.06c5.98,0 10.84,-4.86 10.84,-10.84s-4.86,-10.85 -10.84,-10.85c-5.98,0 -10.84,4.86 -10.84,10.84s4.86,10.85 10.84,10.85zm0,-20.19c5.15,0 9.34,4.19 9.34,9.34s-4.19,9.34 -9.34,9.34c-5.15,0 -9.34,-4.19 -9.34,-9.34s4.19,-9.34 9.34,-9.34z" class="st4"/>
     <g stroke="null" id="svg_25">
      <g stroke="null" transform="matrix(0.041705430505828506,0,0,0.041705430505828506,5.01948226985246,4.134498093283128) " id="svg_21">
       <g stroke="null" id="svg_22">
        <g stroke="null" id="svg_23">
         <path stroke="null" id="svg_24" fill="#374957" class="active-path" d="m575.198768,227.382858l-50.8,0c-2.9,-28 -18,-54 -40.1,-70l90.9,0c5.5,0 10,-4.5 10,-10s-4.5,-10 -10,-10l-211.6,0c-5.5,0 -10,4.5 -10,10s4.5,10 10,10l60.6,0c41.2,0 75.2,31 80.1,70l-140.7,0c-5.5,0 -10,4.5 -10,10s4.5,10 10,10l140.7,0c-5,40.5 -39.4,70.9 -80.1,71l-60.5,0c-5.6,0.1 -10.1,4.7 -10,10.3c0,2.7 1.2,5.3 3.1,7.2l151.3,143.1c4,3.8 10.3,3.6 14.1,-0.4c3.8,-4.1 3.6,-10.4 -0.4,-14.3l-133.1,-125.9l35.4,0c52.2,0 95.3,-40 100.3,-91l50.8,0c5.5,0 10,-4.5 10,-10s-4.5,-10 -10,-10z"/>
        </g>
       </g>
      </g>
     </g>
    </g>
   </g>
  </g>
 </g>
</svg>