<svg width="419" height="419.81001" xmlns="http://www.w3.org/2000/svg">

 <g>
  <title>background</title>
  <rect fill="none" id="canvas_background" height="402" width="582" y="-1" x="-1"/>
 </g>
 <g>
  <title>Layer 1</title>
  <path id="svg_1" fill="#2ba82b" d="m401.78516,140.67969c1.29687,0 2.50781,0.625 3.25781,1.67969s0.94531,2.40625 0.52344,3.6289l-37.86328,109.27344c-4.95313,14.29687 -18.42579,23.88672 -33.5586,23.88672l-226.03906,0l-0.35938,0.05078l-18.47265,-138.46094l0.48047,-0.05859l312.03125,0z"/>
  <path id="svg_2" fill="#ff5656" d="m165.40625,400.51953l-11.33203,0c-20.94922,0.08203 -38.80469,-15.17578 -41.99219,-35.8789c-0.01172,-0.0586 -0.01953,-0.11329 -0.02734,-0.16797l-33.79688,-253.42188c-2.17578,-13.84766 -14.13672,-24.03516 -28.15234,-23.98047l-42.69922,0c-3.86719,0 -7,-3.13281 -7,-7c0,-3.86719 3.13281,-7 7,-7l42.69922,0c20.94922,-0.08203 38.80469,15.17188 41.99219,35.875c0.01172,0.0586 0.01953,0.11328 0.02343,0.17188l33.80079,253.41797c2.17578,13.85156 14.13281,24.03906 28.15234,23.98437l11.33203,0c3.86328,0 7,3.13281 7,7c0,3.86719 -3.13672,7 -7,7zm0,0"/>
  <path id="svg_3" fill="#ff5656" d="m286.90625,400.51953l-70.5,0c-3.86719,0 -7,-3.13281 -7,-7c0,-3.86719 3.13281,-7 7,-7l70.5,0c3.86328,0 7,3.13281 7,7c0,3.86719 -3.13672,7 -7,7zm0,0"/>
  <g id="svg_4" fill="#2561a1">
   <path fill="#003f7f" id="svg_5" d="m336.49609,395.19922c0,13.59375 -11.01953,24.60937 -24.60937,24.60937c-13.59375,0 -24.61328,-11.01562 -24.61328,-24.60937c0,-13.58984 11.01953,-24.60938 24.61328,-24.60938c13.58984,0 24.60937,11.01954 24.60937,24.60938zm0,0"/>
   <path fill="#003f7f" id="svg_6" d="m215.71484,395.19922c0,13.59375 -11.01953,24.60937 -24.60937,24.60937c-13.59375,0 -24.60938,-11.01562 -24.60938,-24.60937c0,-13.58984 11.01563,-24.60938 24.60938,-24.60938c13.58984,0 24.60937,11.01954 24.60937,24.60938zm0,0"/>
   <path fill="#003f7f" id="svg_7" d="m277.84766,69.68359l-23.44141,20.09766l0,-82.78125c0,-3.86719 -3.13672,-7 -7,-7c-3.86719,0 -7,3.13281 -7,7l0,82.78125l-23.44531,-20.09766c-2.9336,-2.51562 -7.35547,-2.17578 -9.8711,0.76172c-2.51562,2.9336 -2.17578,7.35157 0.75782,9.8711l35,30c0.01171,0.00781 0.02343,0.01172 0.03515,0.02343c0.29297,0.2461 0.60156,0.46485 0.92969,0.66016c0.04297,0.02344 0.08594,0.05469 0.12891,0.07813c0.3164,0.17968 0.64843,0.33593 0.99218,0.46484l0.16016,0.05859c0.33984,0.1211 0.6875,0.21094 1.04297,0.27735c0.05078,0.01172 0.09765,0.01562 0.15625,0.02343c0.73437,0.12891 1.48828,0.12891 2.22265,0c0.05469,-0.00781 0.10157,-0.01171 0.16016,-0.02343c0.35547,-0.06641 0.70313,-0.15625 1.04297,-0.27735l0.16016,-0.05859c0.33984,-0.12891 0.67187,-0.28516 0.98828,-0.46484c0.04297,-0.02344 0.08593,-0.05469 0.13281,-0.07813c0.32422,-0.19531 0.63672,-0.41406 0.92578,-0.66016c0.01172,-0.01171 0.02344,-0.01562 0.03516,-0.02343l35,-30c2.93359,-2.51953 3.27343,-6.9375 0.75781,-9.8711c-2.51563,-2.9375 -6.93359,-3.27734 -9.87109,-0.76172zm0,0"/>
  </g>
  <line stroke-linecap="null" stroke-linejoin="null" id="svg_8" y2="185.342506" x2="392" y1="182.342506" x1="103" stroke-width="null" stroke="null" fill="none"/>
  <g stroke="null" id="svg_21">
   <path stroke="null" id="svg_17" fill="#e48e66" d="m277.78621,206.592197c0,20.954095 -16.986726,37.940822 -37.940822,37.940822s-37.940822,-16.986726 -37.940822,-37.940822c0,-20.954096 16.986726,-37.940822 37.940822,-37.940822s37.940822,16.986726 37.940822,37.940822zm0,0"/>
   <path stroke="null" id="svg_18" fill="#ffff56" d="m287.527926,186.690366c-0.442339,-1.029464 -1.63141,-1.511704 -2.665434,-1.078486c-1.034024,0.432079 -1.527665,1.616589 -1.104707,2.655174c2.428304,5.803988 3.672097,12.034354 3.659557,18.325143c0,26.231381 -21.340573,47.571953 -47.571954,47.571953s-47.571953,-21.340572 -47.571953,-47.571953c0,-26.231382 21.340572,-47.571953 47.571953,-47.571953c5.330868,-0.006841 10.625254,0.885817 15.65971,2.638072c0.689729,0.245111 1.459262,0.102604 2.014466,-0.375076c0.555203,-0.47768 0.812854,-1.216432 0.674909,-1.935803c-0.137946,-0.71937 -0.650968,-1.308776 -1.344118,-1.547046c-5.466534,-1.903881 -11.215799,-2.872923 -17.004967,-2.866082c-28.485257,0 -51.657888,23.17377 -51.657888,51.657888c0,28.485257 23.172631,51.657888 51.657888,51.657888s51.657888,-23.172631 51.657888,-51.657888c0.012541,-6.832312 -1.338417,-13.598501 -3.97535,-19.901831zm0,0"/>
   <path stroke="null" id="svg_19" fill="#333333" d="m256.323653,183.44903c0,-1.127508 -0.915459,-2.042967 -2.042967,-2.042967l-28.870594,0c-1.127508,0 -2.042967,0.915459 -2.042967,2.042967c0,1.128648 0.915459,2.042967 2.042967,2.042967l8.259653,0c4.923871,0.00684 9.162572,3.476009 10.143013,8.300695l-18.402667,0c-1.127508,0 -2.042967,0.914319 -2.042967,2.042967s0.915459,2.042967 2.042967,2.042967l18.404947,0c-0.977022,4.828106 -5.219143,8.300695 -10.145293,8.302975l-8.259653,0c-0.836796,0 -1.589228,0.510742 -1.899321,1.288255c-0.308953,0.777513 -0.112865,1.665611 0.495921,2.240196l20.648563,19.509654c0.819695,0.775233 2.11251,0.738752 2.887743,-0.080944c0.775233,-0.820835 0.738752,-2.11365 -0.080944,-2.888883l-16.914903,-15.982343l3.122594,0c7.181167,-0.00114 13.270167,-5.280706 14.288231,-12.38891l6.32271,0c1.127508,0 2.042967,-0.914319 2.042967,-2.042967s-0.915459,-2.042967 -2.042967,-2.042967l-6.326131,0c-0.452599,-3.160215 -1.943783,-6.07988 -4.236421,-8.300695l10.562552,0c1.127508,0 2.042967,-0.914319 2.042967,-2.042967zm0,0"/>
   <path stroke="null" id="svg_20" fill="#2561a1" d="m263.04424,168.190795l9.509146,9.508007c0.785494,0.785494 2.053228,0.799174 2.855822,0.033061l16.757576,-16.008564c0.535823,-0.501621 0.760412,-1.252913 0.589405,-1.966584c-0.172147,-0.714811 -0.713671,-1.281415 -1.419361,-1.485484c-0.70455,-0.204069 -1.464963,-0.013681 -1.991665,0.498201l-15.314275,14.627965l-8.096626,-8.095486c-0.798034,-0.798034 -2.091989,-0.798034 -2.890024,0c-0.796894,0.796894 -0.796894,2.09085 0,2.888883zm0,0"/>
  </g>
 </g>
</svg>