<svg width="512.002" height="512.002" xmlns="http://www.w3.org/2000/svg">

 <g>
  <title>background</title>
  <rect fill="none" id="canvas_background" height="402" width="582" y="-1" x="-1"/>
 </g>
 <g>
  <title>Layer 1</title>
  <g id="svg_1">
   <path id="svg_2" fill="#88B337" d="m423.622,332.518c0.009,-3.866 -1.059,-7.652 -3.089,-10.944l-19.681,-31.683c-2.453,-4.872 -3.724,-10.255 -3.707,-15.709l0,-97.61c0,-63.367 -51.364,-114.731 -114.731,-114.731l-52.953,0c-63.367,0 -114.731,51.364 -114.731,114.731l0,97.61c0.018,5.454 -1.253,10.838 -3.707,15.709l-19.681,31.683c-2.03,3.292 -3.098,7.078 -3.089,10.944l0,0c0.044,11.341 9.223,20.519 20.563,20.563l294.241,0c11.342,-0.044 20.521,-9.223 20.565,-20.563z"/>
   <polygon id="svg_3" fill="#88B337" points="282.415,61.841 326.542,0.063 185.335,0.063 229.462,61.841 229.462,79.492 282.415,79.492     "/>
  </g>
  <path id="svg_4" fill="#6B962A" d="m420.533,321.574l-19.681,-31.683c-2.453,-4.872 -3.724,-10.255 -3.707,-15.709l0,-97.61c0.062,-25.559 -8.419,-50.411 -24.093,-70.604c-23.564,129.823 -106.523,204.663 -184.452,247.113l214.459,0c11.402,0.044 20.687,-9.161 20.731,-20.572c0.018,-3.866 -1.05,-7.652 -3.08,-10.935l-0.177,0z"/>
  <g id="svg_6">
   <path id="svg_7" fill="#FDB62F" d="m432.447,88.317l0,0c-3.001,-18.11 -17.192,-32.301 -35.302,-35.302l0,0c18.11,-3.001 32.301,-17.192 35.302,-35.302l0,0c3.001,18.11 17.192,32.301 35.302,35.302l0,0c-18.11,3.001 -32.301,17.193 -35.302,35.302z"/>
   <path id="svg_8" fill="#FDB62F" d="m35.302,264.826l0,0c-3.001,-18.109 -17.192,-32.301 -35.302,-35.301l0,0c18.11,-3.001 32.301,-17.192 35.302,-35.302l0,0c3.001,18.11 17.192,32.301 35.302,35.302l0,0c-18.11,3 -32.302,17.192 -35.302,35.301z"/>
  </g>
  <path id="svg_10" fill="#F7BB8F" d="m86.578,439.747l19.857,36.361l239.788,-57.63c10.361,-2.392 20.387,-6.063 29.83,-10.944l66.809,-34.331c-111.025,33.978 -258.41,55.159 -356.284,66.544z"/>
  <path id="svg_12" fill="#3E8CC7" d="m0,511.939l114.731,0l26.476,-26.476l-19.416,-29.124c-39.255,16.203 -80.064,28.356 -121.791,36.273l0,19.327z"/>
  <g id="svg_14"/>
  <g id="svg_15"/>
  <g id="svg_16"/>
  <g id="svg_17"/>
  <g id="svg_18"/>
  <g id="svg_19"/>
  <g id="svg_20"/>
  <g id="svg_21"/>
  <g id="svg_22"/>
  <g id="svg_23"/>
  <g id="svg_24"/>
  <g id="svg_25"/>
  <g id="svg_26"/>
  <g id="svg_27"/>
  <g id="svg_28"/>
  <g stroke="null" id="svg_51">
   <g stroke="null" transform="matrix(0.3233910269662078,0,0,0.3233910269662078,-70.09008071188146,-42.615198582745506) " id="svg_33">
    <g stroke="null" id="svg_34">
     <path fill="#ffffaa" stroke="null" id="svg_35" d="m1141.979256,718.713699l-50.8,0c-2.9,-28 -18,-54 -40.1,-70l90.9,0c5.5,0 10,-4.5 10,-10s-4.5,-10 -10,-10l-211.6,0c-5.5,0 -10,4.5 -10,10s4.5,10 10,10l60.6,0c41.2,0 75.2,31 80.1,70l-140.7,0c-5.5,0 -10,4.5 -10,10s4.5,10 10,10l140.7,0c-5,40.5 -39.4,70.9 -80.1,71l-60.5,0c-5.6,0.1 -10.1,4.7 -10,10.3c0,2.7 1.2,5.3 3.1,7.2l151.3,143.1c4,3.8 10.3,3.6 14.1,-0.4c3.8,-4.1 3.6,-10.4 -0.4,-14.3l-133.1,-125.9l35.4,0c52.2,0 95.3,-40 100.3,-91l50.8,0c5.5,0 10,-4.5 10,-10s-4.5,-10 -10,-10z"/>
    </g>
   </g>
   <g stroke="null" transform="matrix(0.3233910269662078,0,0,0.3233910269662078,-70.09008071188146,-42.615198582745506) " id="svg_36"/>
   <g stroke="null" transform="matrix(0.3233910269662078,0,0,0.3233910269662078,-70.09008071188146,-42.615198582745506) " id="svg_37"/>
   <g stroke="null" transform="matrix(0.3233910269662078,0,0,0.3233910269662078,-70.09008071188146,-42.615198582745506) " id="svg_38"/>
   <g stroke="null" transform="matrix(0.3233910269662078,0,0,0.3233910269662078,-70.09008071188146,-42.615198582745506) " id="svg_39"/>
   <g stroke="null" transform="matrix(0.3233910269662078,0,0,0.3233910269662078,-70.09008071188146,-42.615198582745506) " id="svg_40"/>
   <g stroke="null" transform="matrix(0.3233910269662078,0,0,0.3233910269662078,-70.09008071188146,-42.615198582745506) " id="svg_41"/>
   <g stroke="null" transform="matrix(0.3233910269662078,0,0,0.3233910269662078,-70.09008071188146,-42.615198582745506) " id="svg_42"/>
   <g stroke="null" transform="matrix(0.3233910269662078,0,0,0.3233910269662078,-70.09008071188146,-42.615198582745506) " id="svg_43"/>
   <g stroke="null" transform="matrix(0.3233910269662078,0,0,0.3233910269662078,-70.09008071188146,-42.615198582745506) " id="svg_44"/>
   <g stroke="null" transform="matrix(0.3233910269662078,0,0,0.3233910269662078,-70.09008071188146,-42.615198582745506) " id="svg_45"/>
   <g stroke="null" transform="matrix(0.3233910269662078,0,0,0.3233910269662078,-70.09008071188146,-42.615198582745506) " id="svg_46"/>
   <g stroke="null" transform="matrix(0.3233910269662078,0,0,0.3233910269662078,-70.09008071188146,-42.615198582745506) " id="svg_47"/>
   <g stroke="null" transform="matrix(0.3233910269662078,0,0,0.3233910269662078,-70.09008071188146,-42.615198582745506) " id="svg_48"/>
   <g stroke="null" transform="matrix(0.3233910269662078,0,0,0.3233910269662078,-70.09008071188146,-42.615198582745506) " id="svg_49"/>
   <g stroke="null" transform="matrix(0.3233910269662078,0,0,0.3233910269662078,-70.09008071188146,-42.615198582745506) " id="svg_50"/>
  </g>
  <path id="svg_9" fill="#FEC9A3" d="m508.081,307.983c-7.246,-12.197 -22.814,-16.512 -35.302,-9.796l-125.233,53.482c-2.206,0.935 -4.58,1.421 -6.972,1.412l-155.24,0c-9.752,0 -17.651,-7.899 -17.651,-17.651c0,-9.752 7.899,-17.651 17.651,-17.651l70.604,0c29.248,0 52.953,-23.705 52.953,-52.953l-146.856,0c-24.341,0.018 -47.357,11.094 -62.572,30.095l-55.336,66.985l62.308,114.201l239.788,-57.63c10.361,-2.392 20.387,-6.063 29.83,-10.944l123.556,-63.279c12.294,-7.721 16.071,-23.898 8.472,-36.271z"/>
  <polygon id="svg_11" fill="#4398D1" points="0,353.081 0,511.939 114.731,511.939 141.207,485.463 35.302,326.605 "/>
  <circle id="svg_13" fill="#D9D9D9" r="17.650999" cy="458.838" cx="76.429"/>
 </g>
</svg>