<svg width="512.00001" height="512" xmlns="http://www.w3.org/2000/svg">

 <g>
  <title>background</title>
  <rect fill="none" id="canvas_background" height="402" width="582" y="-1" x="-1"/>
 </g>
 <g>
  <title>Layer 1</title>
  <path id="svg_1" fill="#e2720e" d="m122.45703,254.72266l-70.6875,0c-24.38672,0 -44.15234,-19.76563 -44.15234,-44.15235c0,-12.19922 4.94531,-23.23437 12.93359,-31.22656c7.98828,-7.98828 19.02344,-12.93359 31.21875,-12.93359l287.53516,0c20.6875,0 37.44922,16.76172 37.44922,37.45312l0,18.78125"/>
  <path id="svg_2" fill="#3c3f4d" d="m274.73828,33.30859l0,221.41407l-219.01953,0l0,-221.41407c0,-14.1914 11.5,-25.69531 25.70312,-25.69531l167.60938,0c14.19531,0 25.70703,11.50391 25.70703,25.69531zm0,0"/>
  <path id="svg_3" fill="#c4e2f2" d="m253.31641,65.53906l0,189.1836l-176.1875,0l0,-189.1836c0,-7.15625 5.80468,-12.96093 12.96484,-12.96093l150.25781,0c7.16797,0 12.96485,5.80468 12.96485,12.96093zm0,0"/>
  <path id="svg_4" fill="#83b2c6" d="m253.32031,65.53906l0,234.6836c0,7.16406 -5.80859,12.96484 -12.96093,12.96484l-18.33985,0c7.16406,0 12.97266,-5.80078 12.97266,-12.96484l0,-234.6836c0,-7.16406 -5.8086,-12.96484 -12.97266,-12.96484l18.33985,0c7.15234,0 12.96093,5.80078 12.96093,12.96484zm0,0"/>
  <path id="svg_5" fill="#83b2c6" d="m396.46094,108.55078l-214.89063,0c-15.5625,0 -28.17968,12.61328 -28.17968,28.17578l0,120.69532c0,15.5625 12.61718,28.17968 28.17968,28.17968l214.89063,0c16.86328,0 30.53125,-13.66797 30.53125,-30.53125l0,-115.99218c0,-16.85938 -13.66797,-30.52735 -30.53125,-30.52735zm0,0"/>
  <path id="svg_6" fill="#ff491f" d="m418.13281,108.55078l-214.89062,0c-15.56641,0 -28.17969,12.61328 -28.17969,28.17578l0,120.69532c0,15.5625 12.61328,28.17968 28.17969,28.17968l214.89062,0c16.85938,0 30.53125,-13.66797 30.53125,-30.53125l0,-115.99218c0,-16.85938 -13.67187,-30.52735 -30.53125,-30.52735zm0,0"/>
  <path id="svg_7" fill="#979aa3" d="m175.0625,148.39844l273.60156,0l0,37.02734l-273.60156,0l0,-37.02734zm0,0"/>
  <path id="svg_8" fill="#83b2c6" d="m110.53516,222.64063l369.48828,0l0,212.60546l-369.48828,0l0,-212.60546zm0,0"/>
  <path id="svg_9" fill="#32cc77" d="m134.90234,222.64063l369.48438,0l0,212.60546l-369.48438,0l0,-212.60546zm0,0"/>
  <path id="svg_10" fill="#1fb25e" d="m472.41406,363.97656l0,-70.0664c-21.70312,0 -39.29687,-17.59375 -39.29687,-39.29688l-226.94531,0c0,21.70313 -17.59375,39.29688 -39.29688,39.29688l0,70.0664c21.70313,0 39.29688,17.59375 39.29688,39.29688l226.94531,0c0,-21.70313 17.59375,-39.29688 39.29687,-39.29688zm0,0"/>
  <path id="svg_11" fill="#bf5f00" d="m376.75391,292.17578l0,174.75391c0,20.6914 -16.76172,37.45312 -37.44922,37.45312l-287.53516,0c-24.38672,0 -44.15234,-19.76562 -44.15234,-44.16406l0,-249.64844c0,24.38672 19.76562,44.15235 44.15234,44.15235l287.53516,0c20.6875,0 37.44922,16.77343 37.44922,37.45312zm0,0"/>
  <path id="svg_12" fill="#e2720e" d="m55.71875,254.72266l0,249.66015l-3.94922,0c-24.38672,0 -44.15234,-19.76562 -44.15234,-44.16406l0,-249.64844c0,24.38672 19.76562,44.15235 44.15234,44.15235l3.94922,0zm0,0"/>
  <path id="svg_13" fill="#dd3939" d="m334.12109,377.56641c0,15.97656 -12.95312,28.92968 -28.93359,28.92968c-15.97656,0 -28.93359,-12.95312 -28.93359,-28.92968c0,-15.98047 12.95703,-28.9336 28.93359,-28.9336c15.98047,0 28.93359,12.95313 28.93359,28.9336zm0,0"/>
  <path id="svg_14" d="m399.83984,336.55859l24.36719,0c4.20313,0 7.61328,-3.41015 7.61328,-7.61718c0,-4.20313 -3.41015,-7.61328 -7.61328,-7.61328l-24.36719,0c-4.20312,0 -7.61328,3.41015 -7.61328,7.61328c0,4.20703 3.41016,7.61718 7.61328,7.61718zm0,0"/>
  <path id="svg_15" d="m505.38672,216.02734l-48.10938,0l0,-29.58203c0,-0.00781 0,-0.01172 0,-0.01953l0,-37.02734c0,-0.00781 0,-0.01563 0,-0.01953l0,-9.29688c0,-21.03515 -17.11328,-38.15234 -38.14453,-38.15234l-135.78125,0l0,-67.6211c0,-18.36718 -14.94922,-33.30859 -33.32031,-33.30859l-167.60937,0c-18.3711,0 -33.32032,14.94141 -33.32032,33.30859l0,125.63282c-12.4414,0.86328 -24.02734,6.10937 -32.93359,15.01953c-9.74609,9.74609 -15.125,22.69531 -15.16016,36.47265c0,0.04688 -0.00781,0.08985 -0.00781,0.13672l0,249.65625c0,28.54688 23.22656,51.76953 51.77344,51.76953l232.09765,0c4.20313,0 7.61329,-3.40625 7.61329,-7.61328c0,-4.20312 -3.41016,-7.61328 -7.61329,-7.61328l-232.09765,0c-20.15235,0 -36.54688,-16.39453 -36.54688,-36.54297l0,-213.02344c9.3711,9.34766 22.29297,15.13672 36.54297,15.13672l287.53906,0.00391c16.44922,0 29.83204,13.38281 29.83204,29.83203l0,111.08203l0,0.01953l0,0.01953l0,31.92969l0,0.01953l0,0.01953l0,31.66797c0,16.44922 -13.38282,29.83594 -29.83204,29.83594l-30.05859,0c-4.20312,0 -7.61328,3.40625 -7.61328,7.61328c0,4.20313 3.41016,7.61328 7.61328,7.61328l30.05859,0c24.84766,0 45.0625,-20.21484 45.0625,-45.0625l0,-24.07421l120.01563,0c4.20312,0 7.61328,-3.41016 7.61328,-7.61329l0,-212.60546c0,-4.20313 -3.40625,-7.61329 -7.61328,-7.61329zm-321.70703,0l0,-21.98828l258.36719,0l0,21.98828l-258.36719,0zm258.36719,-75.94531l0,1.69922l-73.42969,0c-4.20313,0 -7.61328,3.41016 -7.61328,7.61719c0,4.20312 3.41015,7.61328 7.61328,7.61328l73.42969,0l0,21.80078l-258.36719,0l0,-21.80078l159.55859,0c4.20313,0 7.61328,-3.41016 7.61328,-7.61328c0,-4.20703 -3.41015,-7.61719 -7.61328,-7.61719l-159.55859,0l0,-4.05469c0,-11.33984 9.22265,-20.5664 20.55859,-20.5664l214.89453,0c12.63672,0 22.91407,10.28125 22.91407,22.92187zm-377.71485,-105.77344c0,-9.97265 8.11328,-18.08203 18.08985,-18.08203l167.60937,0c9.97656,0 18.09375,8.11328 18.09375,18.08203l0,67.6211l-6.18359,0l0,-35.39063c0,-11.34375 -9.23829,-20.57812 -20.58985,-20.57812l-150.25781,0c-11.34766,0 -20.57813,9.23437 -20.57813,20.57812l0,27.07813c0,4.20312 3.40625,7.61328 7.61329,7.61328c4.20312,0 7.61328,-3.41016 7.61328,-7.61328l0,-27.07813c0,-2.94922 2.39843,-5.34765 5.35156,-5.34765l150.25781,0c2.95703,0 5.35938,2.39843 5.35938,5.34765l0,35.39063l-42.47266,0c-19.73437,0 -35.78906,16.05859 -35.78906,35.79687l0,78.30078l-32.55078,0c-4.20313,0 -7.61328,3.41016 -7.61328,7.61719l0,24.46875l-42.54297,-0.0039l0,-129.80469c0,-4.20313 -3.41016,-7.61328 -7.61328,-7.61328c-4.20704,0 -7.61329,3.41015 -7.61329,7.61328l0,129.80469l-6.18359,0l0,-213.80079zm-48.10156,177.26172c0,-9.76172 3.80078,-18.9375 10.70312,-25.84375c6.03125,-6.02734 13.79688,-9.6914 22.16797,-10.51953l0,72.71875c-18.42968,-1.84375 -32.87109,-17.44531 -32.87109,-36.35547zm357.70703,51.65625l53.18359,0c3.24219,19.77735 18.90235,35.4375 38.6836,38.67969l0,56.07813c-19.78125,3.24218 -35.44141,18.89843 -38.6836,38.67968l-41.75,0l0,-103.48828c0,-11.48828 -4.32812,-21.98047 -11.43359,-29.94922zm123.83594,165.40625l-112.40235,0l0,-16.74218l48.7461,0c4.20703,0 7.61718,-3.40625 7.61718,-7.61329c0,-17.46875 14.21094,-31.68359 31.6836,-31.68359c4.20312,0 7.61328,-3.41016 7.61328,-7.61328l0,-70.07031c0,-4.20313 -3.41016,-7.61328 -7.61328,-7.61328c-17.47266,0 -31.68359,-14.21485 -31.68359,-31.6836c0,-4.20703 -3.41016,-7.61719 -7.61719,-7.61719l-290.60547,0.11719l0,-16.85547l354.26172,0l0,197.375zm0,0"/>
  <path id="svg_16" d="m465.39063,257.51953c1.0625,2.71875 3.8125,4.57813 6.70703,4.69531c3.22656,0.12891 6.26172,-1.85547 7.41797,-4.86718c1.1875,-3.09375 0.19921,-6.70704 -2.42188,-8.73438c-2.51172,-1.94922 -6.02344,-2.125 -8.72266,-0.44531c-3.09765,1.92969 -4.40625,5.97656 -2.98047,9.35156l0.00001,0zm0,0"/>
  <path id="svg_17" d="m479.44922,400.35938c-1.23438,-2.92579 -4.22656,-4.85547 -7.41016,-4.67969c-3.12109,0.16797 -5.85547,2.25 -6.84375,5.21094c-2.24218,6.70312 5.5586,12.65234 11.44141,8.71875c3.02344,-2.02344 4.125,-5.89844 2.8125,-9.25zm0,0"/>
  <path id="svg_18" d="m341.73438,377.56641c0,-20.15235 -16.39454,-36.54688 -36.54688,-36.54688s-36.54687,16.39453 -36.54687,36.54688c0,20.14843 16.39453,36.54297 36.54687,36.54297s36.54688,-16.39454 36.54688,-36.54297zm-57.86329,0c0,-11.75782 9.5625,-21.32032 21.31641,-21.32032c11.75781,0 21.32031,9.5625 21.32031,21.32032c0,11.7539 -9.5625,21.3164 -21.32031,21.3164c-11.75391,0 -21.31641,-9.5625 -21.31641,-21.3164zm0,0"/>
  <path id="svg_19" d="m294.83984,440.55859l24.36719,0c4.20313,0 7.61328,-3.41015 7.61328,-7.61718c0,-4.20313 -3.41015,-7.61328 -7.61328,-7.61328l-24.36719,0c-4.20312,0 -7.61328,3.41015 -7.61328,7.61328c0,4.20703 3.41016,7.61718 7.61328,7.61718zm0,0"/>
  <path id="svg_20" d="m391.39063,215.51953c1.0625,2.71875 3.8125,4.57813 6.70703,4.69531c3.22656,0.12891 6.26172,-1.85547 7.41797,-4.86718c1.1875,-3.09375 0.19921,-6.70704 -2.42188,-8.73438c-2.51172,-1.94922 -6.02344,-2.125 -8.72266,-0.44531c-3.09765,1.92969 -4.40625,5.97656 -2.98047,9.35156l0.00001,0zm0,0"/>
  <path id="svg_21" d="m371.39063,215.51953c1.0625,2.71875 3.8125,4.57813 6.70703,4.69531c3.22656,0.12891 6.26172,-1.85547 7.41797,-4.86718c1.1875,-3.09375 0.19921,-6.70704 -2.42188,-8.73438c-2.51172,-1.94922 -6.02344,-2.125 -8.72266,-0.44531c-3.09765,1.92969 -4.40625,5.97656 -2.98047,9.35156l0.00001,0zm0,0"/>
  <g stroke="null" id="svg_35">
   <g stroke="null" transform="matrix(0.2634216547427237,0,0,0.29343438282776346,-108.1148451028823,-103.34784839320281) " id="svg_27">
    <path id="svg_29" fill-rule="evenodd" fill="rgb(53.333333%,76.078431%,25.098039%)" d="m870.993259,592.684277l0,36.75l6,0l0,-42.75l-42.75,0l0,6l36.75,0"/>
    <path id="svg_30" fill-rule="evenodd" fill="rgb(90.196078%,36.470588%,14.509804%)" d="m783.993259,592.684277l36.75,0l0,-6l-42.75,0l0,42.75l6,0l0,-36.75"/>
    <path id="svg_31" fill-rule="evenodd" fill="rgb(27.450980%,76.470588%,90.196078%)" d="m870.993259,679.684277l-36.75,0l0,6l42.75,0l0,-42.75l-6,0l0,36.75"/>
    <path id="svg_32" fill-rule="evenodd" fill="rgb(41.568627%,78.039216%,70.196078%)" d="m783.993259,679.684277l0,-36.75l-6,0l0,42.75l42.75,0l0,-6l-36.75,0"/>
    <path id="svg_33" fill-rule="evenodd" fill="rgb(98.431373%,69.803922%,9.019608%)" d="m821.387789,656.184277l-8.12793,0l0,-40.61133l28.4336,0l0,8.12793l-20.30567,0l0,8.12793l12.17774,0l0,8.12793l-12.17774,0l0,16.22754z"/>
   </g>
   <g stroke="null" transform="matrix(0.2634216547427237,0,0,0.29343438282776346,-108.1148451028823,-102.7609796275473) " id="svg_26">
    <text stroke="null" x="586.493259" y="511.684277" id="svg_34" fill="rgb(250,175,24)" xml:space="preserve" transform="matrix(1,0,0,1,154.5,227) " font-size="47" font-family="Arvo">
     <![CDATA[FreEMI]]>
    </text>
   </g>
  </g>
 </g>
</svg>