<svg id="Capa_1" enable-background="new 0 0 511.931 511.931" height="512" viewBox="0 0 511.931 511.931" width="512" xmlns="http://www.w3.org/2000/svg"><g><g><g><path d="m500.239 368.948-.01.01c-1.36 18.33-3.07 36.65-5.11 54.98-1.94 17.46-16.08 31.04-33.59 32.44-137.041 11.03-274.101 11.03-411.142 0-17.6-1.41-31.67-15.12-33.62-32.66-12.51-112.371-12.41-224.741.28-337.112 1.87-16.54 14.71-29.73 31.18-32.15 63.01-9.28 119.451-9.5 173.641-.65 16.19 2.64 28.68 15.75 30.52 32.04.24 2.11.47 4.22.7 6.33 2.04 18.7 17.87 32.83 36.68 32.74 59.19-.28 118.381 1.5 177.571 5.33 18.5 1.2 33.19 15.99 34.32 34.5 4.15 68.072 3.68 136.132-1.42 204.202z" fill="#f1d333"/><path d="m500.229 368.958c-1.36 18.33-3.07 36.65-5.11 54.98-1.94 17.46-16.08 31.04-33.59 32.44-137.041 11.03-274.101 11.03-411.142 0-17.6-1.41-31.67-15.12-33.62-32.66-12.51-112.371-12.41-224.741.28-337.112 1.87-16.54 14.71-29.73 31.18-32.15 0 75.69-17.37 327.862 62.78 345.452 80.141 17.59 326.612 31.63 389.222-30.95z" fill="#eab14d"/></g><path d="m286.766 191.438v186.005c0 8.024 6.505 14.528 14.528 14.528h97.623c8.024 0 14.528-6.505 14.528-14.528v-186.005h41.503c12.943 0 19.426-15.649 10.273-24.802l-92.736-92.736c-12.36-12.36-32.4-12.36-44.76 0l-92.736 92.736c-9.152 9.152-2.67 24.802 10.273 24.802z" fill="#dd636e"/></g><path d="m509.142 164.294c-1.357-22.235-19.121-40.088-41.315-41.527-12.431-.813-25.219-1.544-38.049-2.181l-51.989-51.988c-15.264-15.265-40.101-15.265-55.366 0l-45.794 45.794c-8.843-4.375-14.993-13.011-16.076-23.025-.21-1.918-.428-3.837-.646-5.756l-.067-.601c-2.207-19.552-17.324-35.429-36.767-38.611-35.485-5.787-71.338-7.726-109.608-5.929-4.138.194-7.334 3.706-7.141 7.843.195 4.137 3.715 7.347 7.844 7.14 37.217-1.749 72.049.134 106.487 5.75 12.838 2.102 22.822 12.583 24.279 25.493l.068.605c.216 1.898.431 3.796.638 5.687 1.456 13.455 8.963 25.272 20.003 32.389l-35.961 35.96c-6.418 6.419-8.247 15.617-4.772 24.004 3.475 8.389 11.274 13.6 20.356 13.6h34v178.5c0 12.147 9.883 22.03 22.03 22.03h97.619c12.147 0 22.03-9.882 22.03-22.03v-101.14c0-4.142-3.357-7.5-7.5-7.5s-7.5 3.358-7.5 7.5v101.14c0 3.876-3.153 7.03-7.03 7.03h-97.619c-3.877 0-7.03-3.153-7.03-7.03v-186c0-4.142-3.357-7.5-7.5-7.5h-41.5c-4.362 0-6.077-3.322-6.499-4.34s-1.558-4.577 1.522-7.657l92.739-92.74c9.418-9.416 24.739-9.414 34.153 0l92.74 92.74c3.08 3.08 1.944 6.64 1.522 7.657-.422 1.018-2.137 4.34-6.499 4.34h-41.5c-4.143 0-7.5 3.358-7.5 7.5v51.36c0 4.142 3.357 7.5 7.5 7.5s7.5-3.358 7.5-7.5v-43.86h34c9.082 0 16.882-5.211 20.356-13.6 3.475-8.387 1.646-17.584-4.772-24.004l-24.892-24.892c7.145.403 14.236.833 21.213 1.29 14.676.952 26.421 12.762 27.318 27.472 5.219 85.542 3.032 172.313-6.498 257.901-1.543 13.824-12.788 24.673-26.737 25.796-136.014 10.938-273.941 10.938-409.949 0-13.957-1.118-25.213-12.062-26.765-26.024-12.384-111.253-12.291-224.108.281-335.427 1.482-13.125 11.689-23.645 24.823-25.583 10.687-1.578 21.381-2.91 31.785-3.957 4.121-.415 7.126-4.092 6.711-8.214-.414-4.121-4.096-7.125-8.213-6.711-10.635 1.071-21.561 2.431-32.474 4.043-19.856 2.93-35.293 18.859-37.538 38.738-12.696 112.429-12.791 226.408-.281 338.77 2.344 21.091 19.366 37.626 40.473 39.318 68.402 5.5 137.287 8.25 206.173 8.25s137.773-2.75 206.18-8.25c21.096-1.699 38.104-18.136 40.442-39.086 9.625-86.442 11.833-174.079 6.562-260.477z"/></g></svg>