<svg width="512" height="512" xmlns="http://www.w3.org/2000/svg">

 <g>
  <title>background</title>
  <rect fill="none" id="canvas_background" height="402" width="582" y="-1" x="-1"/>
 </g>
 <g>
  <title>Layer 1</title>
  <path id="svg_1" fill="#e6e6e6" d="m80.69922,221.85938l-70.64844,0l0,-211.8125l491.89844,0l0,211.8125l-70.62109,0"/>
  <path id="svg_2" fill="#696e73" d="m80.22656,184.91406l-31.30078,0l0,-77.22265l418.37891,0l0,77.22265l-35.36328,0"/>
  <path id="svg_3" fill="#90e36a" d="m88.93359,59.01953c0,11.09766 -8.99609,20.09766 -20.09765,20.09766c-11.10156,0 -20.09766,-9 -20.09766,-20.09766c0,-11.10156 8.9961,-20.09765 20.09766,-20.09765c11.10156,0 20.09765,8.99609 20.09765,20.09765zm0,0"/>
  <path id="svg_4" fill="#ff5b5b" d="m151.57422,59.01953c0,11.09766 -9,20.09766 -20.09766,20.09766c-11.10156,0 -20.10156,-9 -20.10156,-20.09766c0,-11.10156 9,-20.09765 20.10156,-20.09765c11.09766,0 20.09766,8.99609 20.09766,20.09765zm0,0"/>
  <path id="svg_5" fill="#90e36a" d="m431.32813,416.05469l0,-308.36328l-83.19532,0.02343l-84.01172,-0.02343l-183.42187,0l0,308.36328c38.48047,0 69.67187,31.19531 69.67187,69.67578c0,1.29297 -0.04297,2.58203 -0.11328,3.85937l211.50782,0c-0.07032,-1.28125 -0.10938,-2.5664 -0.10938,-3.85937c0,-38.48047 31.19141,-69.67578 69.67188,-69.67578zm0,0"/>
  <g id="svg_6" fill="#49a520">
   <path id="svg_7" d="m431.32813,417.05469c-38.48047,0 -69.67188,31.19531 -69.67188,69.67578c0,1.29687 0.04297,2.58203 0.10938,3.85937l69.5625,0l0,-73.53515zm0,0"/>
   <path id="svg_8" d="m80.69922,417.05469l0,73.53515l69.55859,0c0.07032,-1.27734 0.11328,-2.5625 0.11328,-3.85937c0,-38.48047 -31.1914,-69.67578 -69.67187,-69.67578zm0,0"/>
   <path id="svg_9" d="m378.1875,222.77344l0,-114.08203l-246.71094,0l0,253.92968c23.91016,0 43.29297,19.38282 43.29297,43.29688l156.76953,0c0,-23.91406 19.38672,-43.29688 43.29688,-43.29688c1.1289,0 2.24219,0.0586 3.34765,0.14063l0,-59.21484"/>
  </g>
  <path id="svg_10" fill="#ffff56" d="m326.45313,248.77734c0,39.96094 -32.39454,72.35547 -72.35938,72.35547c-39.96094,0 -72.35547,-32.39453 -72.35547,-72.35547c0,-39.96093 32.39453,-72.35546 72.35547,-72.35546c39.96484,0 72.35938,32.39453 72.35938,72.35546zm0,0"/>
  <path id="svg_11" d="m501.94922,0l-491.89844,0c-5.55078,0 -10.05078,4.5 -10.05078,10.05078l0,211.8086c0,5.55078 4.5,10.05078 10.05078,10.05078l60.59766,0l0,257.67968c0,5.55078 4.5,10.05079 10.05078,10.05079l350.63281,0c5.54688,0 10.04688,-4.5 10.04688,-10.05079l0,-257.67968l60.57031,0c5.55078,0 10.05078,-4.5 10.05078,-10.05079l0,-211.80859c0,-5.55078 -4.5,-10.05078 -10.05078,-10.05078zm-370.47266,371.67188c18.33203,0 33.2461,14.91406 33.2461,33.24609c0,5.55078 4.5,10.05078 10.04687,10.05078l156.76953,0c5.55078,0 10.05078,-4.5 10.05078,-10.05078c0,-18.33203 14.91407,-33.24609 33.2461,-33.24609c0.75781,0 1.60156,0.03906 2.58203,0.11328c2.78125,0.21093 5.54297,-0.7461 7.59766,-2.64844c2.05468,-1.90235 3.21875,-4.57422 3.21875,-7.3711l0,-59.21484c0,-5.55078 -4.5,-10.05078 -10.04688,-10.05078c-5.55078,0 -10.05078,4.5 -10.05078,10.05078l0,49.44141c-22.94141,2.88672 -41.39453,20.39843 -45.69531,42.875l-138.57032,0c-4.08984,-21.3711 -20.97656,-38.25391 -42.34765,-42.34375l0,-234.78125l122.59375,0l84.01562,0.02343l20.00391,-0.0039l0,104.01172c0,5.55078 4.5,10.04687 10.05078,10.04687c5.54688,0 10.04688,-4.49609 10.04688,-10.04687l0,-104.01953l33.04296,-0.00782l0,288.89063c-0.40234,0.05078 -0.80078,0.125 -1.20312,0.17969c-0.4961,0.07031 -0.99219,0.14062 -1.48438,0.21875c-0.78515,0.1289 -1.5625,0.27343 -2.33984,0.42187c-0.45313,0.08594 -0.91016,0.16797 -1.35938,0.26172c-0.87109,0.18359 -1.73437,0.39063 -2.59765,0.60156c-0.34375,0.08594 -0.69141,0.16016 -1.03516,0.25c-1.20703,0.3125 -2.40234,0.65235 -3.58594,1.01953c-0.10156,0.03125 -0.19531,0.07032 -0.29687,0.09766c-1.07813,0.33984 -2.14453,0.70313 -3.19922,1.08594c-0.36719,0.13281 -0.72656,0.28125 -1.09375,0.41797c-0.78125,0.30078 -1.5625,0.60156 -2.33594,0.92578c-0.41797,0.17187 -0.82812,0.35547 -1.24218,0.53906c-0.71094,0.30859 -1.42188,0.62891 -2.1211,0.95703c-0.42187,0.20313 -0.84375,0.40625 -1.26562,0.61719c-0.6836,0.33594 -1.36328,0.68359 -2.03907,1.04297c-0.40625,0.21875 -0.8164,0.43359 -1.22265,0.65625c-0.6875,0.38281 -1.3711,0.77734 -2.04688,1.17969c-0.37109,0.21875 -0.73828,0.43359 -1.10547,0.65625c-0.75781,0.46875 -1.5039,0.94921 -2.24218,1.4414c-0.26953,0.17578 -0.53907,0.34375 -0.80469,0.52735c-1.01172,0.68359 -2.00781,1.39062 -2.98438,2.12109c-0.04687,0.03516 -0.08984,0.07031 -0.13281,0.10156c-0.91797,0.69141 -1.82422,1.40235 -2.71094,2.13281c-0.28515,0.23438 -0.5625,0.48047 -0.84375,0.71875c-0.64062,0.53907 -1.27734,1.08594 -1.89843,1.64454c-0.32813,0.29296 -0.64844,0.59375 -0.96875,0.89453c-0.56641,0.52734 -1.125,1.05468 -1.67578,1.59765c-0.32813,0.32422 -0.65235,0.65235 -0.97657,0.98047c-0.53125,0.54297 -1.05468,1.08985 -1.5664,1.64453c-0.31641,0.33594 -0.625,0.67578 -0.9336,1.01953c-0.51953,0.57813 -1.02734,1.16797 -1.53125,1.76172c-0.27734,0.33203 -0.5625,0.66016 -0.83203,0.99219c-0.55078,0.67578 -1.08594,1.35937 -1.61328,2.05078c-0.20703,0.26953 -0.41797,0.53125 -0.62109,0.80469c-0.72657,0.97265 -1.4336,1.96094 -2.11719,2.97265c-0.03906,0.0625 -0.07813,0.125 -0.12109,0.1875c-0.62891,0.9375 -1.24219,1.89063 -1.83204,2.85938c-0.20312,0.32812 -0.39453,0.66797 -0.59375,1.00391c-0.41796,0.70703 -0.83593,1.42187 -1.23046,2.14062c-0.22266,0.40234 -0.4336,0.80859 -0.64844,1.21484c-0.35547,0.67188 -0.70313,1.34766 -1.04297,2.03125c-0.21094,0.42969 -0.41797,0.86719 -0.625,1.30469c-0.32031,0.67578 -0.62891,1.35547 -0.92578,2.04297c-0.19531,0.44531 -0.38672,0.88672 -0.57031,1.33203c-0.29688,0.71094 -0.57813,1.42969 -0.85157,2.15235c-0.16406,0.42968 -0.33203,0.85546 -0.48828,1.28906c-0.28906,0.80469 -0.55859,1.61719 -0.82422,2.43359c-0.11718,0.35547 -0.24218,0.70703 -0.35156,1.06641c-0.36328,1.17969 -0.70312,2.36719 -1.01562,3.57031c-0.02735,0.10938 -0.05079,0.22266 -0.07813,0.33203c-0.27734,1.08985 -0.53125,2.19141 -0.76172,3.30078c-0.08594,0.40625 -0.15625,0.81641 -0.23437,1.22657c-0.15625,0.82031 -0.3086,1.64062 -0.44141,2.47265c-0.07812,0.47656 -0.14062,0.95703 -0.20703,1.4375c-0.10938,0.77344 -0.21094,1.54688 -0.29688,2.33203c-0.05859,0.50391 -0.10546,1.00782 -0.15234,1.51563c-0.03516,0.375 -0.08203,0.74609 -0.10937,1.12109l-191.66407,0c-0.03125,-0.375 -0.07812,-0.74609 -0.11328,-1.12109c-0.04687,-0.50781 -0.09375,-1.01172 -0.14844,-1.51563c-0.08593,-0.78125 -0.1875,-1.55859 -0.29687,-2.33203c-0.06641,-0.48047 -0.13281,-0.96094 -0.20703,-1.4375c-0.13281,-0.83203 -0.28516,-1.65234 -0.44531,-2.47265c-0.07813,-0.41016 -0.14454,-0.82032 -0.23047,-1.22657c-0.23047,-1.10937 -0.48828,-2.21093 -0.76563,-3.30078c-0.02734,-0.10937 -0.04687,-0.22265 -0.07812,-0.33203c-0.3086,-1.20312 -0.65235,-2.39062 -1.01563,-3.57031c-0.10937,-0.35938 -0.23437,-0.71094 -0.34765,-1.06641c-0.26563,-0.8164 -0.53516,-1.6289 -0.82813,-2.43359c-0.15625,-0.4336 -0.32422,-0.86328 -0.48828,-1.29297c-0.27344,-0.71875 -0.55469,-1.4375 -0.84766,-2.14453c-0.1875,-0.44922 -0.3789,-0.89063 -0.57031,-1.33594c-0.30078,-0.6875 -0.60937,-1.36719 -0.92578,-2.04297c-0.20703,-0.4375 -0.41406,-0.875 -0.62891,-1.30469c-0.33593,-0.68359 -0.68359,-1.35937 -1.03906,-2.03125c-0.21484,-0.40625 -0.42969,-0.8125 -0.64844,-1.21484c-0.39843,-0.72266 -0.8125,-1.43359 -1.23437,-2.14062c-0.19531,-0.33594 -0.38672,-0.67188 -0.58985,-1.00391c-0.58984,-0.96484 -1.19921,-1.91406 -1.82812,-2.85156c-0.04688,-0.0625 -0.08594,-0.13282 -0.12891,-0.19922c-0.68359,-1.00781 -1.39062,-1.9961 -2.11328,-2.96875c-0.20312,-0.27344 -0.41406,-0.53516 -0.62109,-0.80078c-0.52735,-0.69532 -1.0625,-1.38282 -1.61328,-2.05469c-0.27344,-0.33203 -0.55469,-0.66016 -0.83203,-0.98828c-0.50391,-0.59766 -1.01172,-1.1875 -1.53125,-1.76563c-0.3086,-0.34375 -0.6211,-0.68359 -0.9336,-1.01953c-0.51562,-0.55469 -1.03515,-1.10156 -1.5664,-1.64453c-0.32422,-0.32812 -0.64844,-0.65625 -0.98047,-0.98047c-0.54688,-0.54297 -1.10938,-1.07422 -1.67188,-1.59765c-0.32422,-0.30079 -0.64062,-0.60157 -0.96875,-0.89454c-0.625,-0.55859 -1.25781,-1.10546 -1.89844,-1.64453c-0.28515,-0.23828 -0.5625,-0.48437 -0.84765,-0.71875c-0.89063,-0.73047 -1.79297,-1.4414 -2.71094,-2.13281c-0.04687,-0.03125 -0.08594,-0.0664 -0.13281,-0.10156c-0.97656,-0.73047 -1.97266,-1.4375 -2.98047,-2.1211c-0.26953,-0.18359 -0.54297,-0.35156 -0.8125,-0.53125c-0.73828,-0.48828 -1.48047,-0.97265 -2.23828,-1.4375c-0.36719,-0.22265 -0.73828,-0.4375 -1.10938,-0.65625c-0.67578,-0.40234 -1.35547,-0.79687 -2.04297,-1.17968c-0.40625,-0.22266 -0.8164,-0.44141 -1.22656,-0.65625c-0.67187,-0.35938 -1.34765,-0.70703 -2.03515,-1.04688c-0.41797,-0.20703 -0.84375,-0.41406 -1.26563,-0.61328c-0.69922,-0.33203 -1.40625,-0.64844 -2.11719,-0.96094c-0.41406,-0.17968 -0.82812,-0.36328 -1.24609,-0.53906c-0.77344,-0.32031 -1.55078,-0.625 -2.33594,-0.92187c-0.36328,-0.14063 -0.72656,-0.28516 -1.09375,-0.41797c-1.05469,-0.38281 -2.11719,-0.7461 -3.1914,-1.08203c-0.10157,-0.03125 -0.20313,-0.07032 -0.30469,-0.10157c-1.1836,-0.37109 -2.37891,-0.70703 -3.58594,-1.02343c-0.34375,-0.08594 -0.69531,-0.16407 -1.03906,-0.2461c-0.85938,-0.21094 -1.72266,-0.41797 -2.59375,-0.60156c-0.44922,-0.09375 -0.90625,-0.17578 -1.36328,-0.26563c-0.77344,-0.14843 -1.55469,-0.29296 -2.33594,-0.41796c-0.49609,-0.07813 -0.98828,-0.15235 -1.48438,-0.22266c-0.40234,-0.05469 -0.80078,-0.125 -1.20703,-0.17578l0,-288.89453l30.67969,0l0,243.8789c0,5.55078 4.5,10.05079 10.05078,10.05079zm325.78125,-253.92969l0,57.125l-15.8789,0l0,-57.125l15.8789,0zm-386.60937,57.125l-11.67188,0l0,-57.125l11.67188,0l0,57.125zm20.09765,252.10156c0.44141,0.07422 0.87891,0.15234 1.3125,0.23438c0.28516,0.05859 0.57032,0.10546 0.85157,0.16406c1.79297,0.375 3.55859,0.83203 5.29297,1.36328c0.26953,0.08594 0.53125,0.17578 0.80078,0.26172c0.59765,0.19531 1.19531,0.39453 1.78906,0.60547c0.30078,0.10937 0.60547,0.22265 0.90625,0.33593c0.55859,0.21094 1.10937,0.42969 1.66016,0.65625c0.29687,0.125 0.58984,0.2461 0.88281,0.3711c0.58594,0.25 1.16406,0.51562 1.74219,0.78906c0.23437,0.10938 0.47265,0.21484 0.71093,0.33203c1.61328,0.78516 3.1875,1.64063 4.71875,2.5625c0.22657,0.13672 0.44532,0.28125 0.67188,0.42188c0.53515,0.33203 1.0664,0.67187 1.59375,1.01953c0.2539,0.17187 0.50781,0.34765 0.76172,0.52344c0.49609,0.33984 0.98437,0.6875 1.46484,1.04296c0.24609,0.17969 0.49219,0.35547 0.73047,0.53907c0.51562,0.39062 1.02344,0.79297 1.52344,1.19922c0.1914,0.15234 0.38672,0.30468 0.57422,0.46093c0.6914,0.57032 1.36718,1.15625 2.03125,1.76172c0.0039,0 0.0039,0.00391 0.00781,0.00391c0.65234,0.59375 1.28906,1.20312 1.91406,1.82812c0.18359,0.1836 0.36719,0.3711 0.54688,0.5586c0.4414,0.44922 0.8789,0.90625 1.30468,1.36718c0.20703,0.22657 0.41016,0.45313 0.61328,0.67969c0.40235,0.44922 0.79297,0.90235 1.17969,1.36328c0.19531,0.23047 0.39063,0.46094 0.58203,0.69532c0.41016,0.5039 0.8086,1.01171 1.19922,1.52734c0.14844,0.19531 0.30078,0.38281 0.44531,0.57812c0.53516,0.71875 1.0586,1.44922 1.5586,2.19141c0.02344,0.03125 0.04297,0.0625 0.0625,0.09375c0.47265,0.70703 0.93359,1.42188 1.375,2.14844c0.14453,0.23437 0.28125,0.46875 0.42187,0.70312c0.31641,0.53516 0.62891,1.07422 0.92969,1.6211c0.15234,0.27343 0.30469,0.55468 0.45313,0.83203c0.27734,0.52734 0.55078,1.05469 0.8125,1.58984c0.14062,0.28125 0.28125,0.5625 0.41406,0.84766c0.27734,0.57812 0.53906,1.16797 0.79687,1.75781c0.10157,0.23438 0.21094,0.46875 0.3125,0.70703c0.34766,0.82813 0.67969,1.66797 0.99219,2.51563c0.03125,0.08593 0.05859,0.17187 0.08984,0.25781c0.27344,0.76172 0.53516,1.53125 0.78125,2.30469c0.08985,0.28515 0.17188,0.57031 0.25782,0.85547c0.17578,0.58593 0.34375,1.17578 0.5039,1.76953c0.08594,0.32812 0.16797,0.65625 0.25,0.98437c0.14063,0.57422 0.27735,1.15235 0.39844,1.73047c0.07422,0.32813 0.14453,0.65625 0.21094,0.98828c0.125,0.62891 0.23437,1.26563 0.33984,1.90625c0.04688,0.27344 0.09766,0.54688 0.13672,0.82422c0.13672,0.89453 0.25,1.79297 0.34766,2.69922l-49.25782,0l0,-52.57422zm281.28125,52.57422c0.09375,-0.90625 0.20703,-1.80469 0.34375,-2.69922c0.03907,-0.27734 0.08985,-0.55469 0.13672,-0.83203c0.10547,-0.63672 0.21875,-1.26953 0.33985,-1.90235c0.0664,-0.32812 0.14062,-0.66015 0.21093,-0.98828c0.125,-0.57812 0.25782,-1.15234 0.39844,-1.72656c0.08203,-0.33203 0.16797,-0.66015 0.25391,-0.98828c0.15625,-0.58984 0.32812,-1.17969 0.5,-1.76172c0.08594,-0.28906 0.17187,-0.57812 0.26172,-0.86719c0.24218,-0.76562 0.5,-1.52734 0.77343,-2.28125c0.03125,-0.08984 0.0625,-0.18359 0.09375,-0.27734c0.3125,-0.84766 0.64453,-1.68359 0.9961,-2.51172c0.10156,-0.24219 0.21094,-0.48047 0.3125,-0.71875c0.25781,-0.58594 0.51953,-1.16797 0.79297,-1.74609c0.13672,-0.28907 0.27734,-0.57032 0.41797,-0.85547c0.26171,-0.53125 0.53125,-1.05469 0.80859,-1.57422c0.14844,-0.28516 0.30078,-0.57031 0.45703,-0.85156c0.29688,-0.53516 0.60547,-1.06641 0.91797,-1.59766c0.14453,-0.23828 0.28516,-0.48437 0.43359,-0.72266c0.4336,-0.71093 0.88282,-1.41015 1.34375,-2.09765c0.03125,-0.04688 0.0625,-0.09766 0.09375,-0.14453c0.5,-0.73828 1.01953,-1.46485 1.55078,-2.17969c0.15235,-0.20313 0.3086,-0.39844 0.46094,-0.60156c0.39063,-0.50782 0.78125,-1.00782 1.1836,-1.50391c0.19531,-0.23828 0.39843,-0.47656 0.59765,-0.71094c0.37891,-0.45312 0.76563,-0.90234 1.16016,-1.34375c0.20703,-0.23437 0.41797,-0.46484 0.6289,-0.69531c0.42188,-0.45312 0.85157,-0.90234 1.28516,-1.34766c0.1875,-0.1914 0.375,-0.38671 0.56641,-0.57812c0.61328,-0.60547 1.23437,-1.20313 1.87109,-1.78516c0.01953,-0.01562 0.03516,-0.03125 0.05078,-0.04687c0.66016,-0.59766 1.33594,-1.1836 2.02344,-1.75391c0.19531,-0.16015 0.39453,-0.3164 0.59375,-0.47656c0.49219,-0.40234 0.99219,-0.79297 1.49609,-1.17969c0.2461,-0.1875 0.5,-0.37109 0.75,-0.55469c0.47656,-0.35156 0.95703,-0.6914 1.44531,-1.03125c0.25782,-0.17578 0.51954,-0.35546 0.78125,-0.52734c0.51563,-0.34766 1.04297,-0.68359 1.57032,-1.01172c0.23047,-0.14453 0.46093,-0.28906 0.6914,-0.42969c0.75782,-0.45703 1.52344,-0.90234 2.30469,-1.32812c0.00391,0 0.00781,-0.00391 0.00781,-0.00391c0.78907,-0.42968 1.58985,-0.83593 2.39844,-1.23047c0.23828,-0.11718 0.48438,-0.22265 0.72266,-0.33984c0.57422,-0.26562 1.14843,-0.53125 1.73047,-0.78125c0.29296,-0.12891 0.58984,-0.25 0.88671,-0.37109c0.54688,-0.22657 1.10157,-0.44532 1.65625,-0.65235c0.30079,-0.11718 0.60547,-0.23047 0.91407,-0.33984c0.58593,-0.21094 1.18359,-0.41406 1.78125,-0.60547c0.26953,-0.08594 0.53515,-0.17969 0.80468,-0.26172c0.86329,-0.26562 1.73829,-0.51953 2.61719,-0.74609l0.00391,0c0.88281,-0.22656 1.77344,-0.42969 2.67187,-0.61719c0.28125,-0.05859 0.56641,-0.10937 0.84766,-0.16406c0.4375,-0.08203 0.875,-0.16016 1.3125,-0.23438l0,52.57422l-49.25391,0l0,0.00391zm119.875,-267.73047l-50.52343,0l0,-16.84766l25.92968,0c5.54688,0 10.04688,-4.5 10.04688,-10.05078l0,-77.22265c0,-5.54688 -4.5,-10.04688 -10.04688,-10.04688l-418.38281,0c-5.55078,0 -10.05078,4.5 -10.05078,10.04688l0,77.22265c0,5.55078 4.5,10.05078 10.05078,10.05078l21.72266,0l0,16.84766l-50.55078,0l0,-191.71484l471.80468,0l0,191.71484zm0,0"/>
  <path id="svg_12" d="m68.83594,89.16406c16.625,0 30.14844,-13.52343 30.14844,-30.14453c0,-16.625 -13.52344,-30.14844 -30.14844,-30.14844c-16.6211,0 -30.14844,13.52344 -30.14844,30.14844c0,16.6211 13.52734,30.14453 30.14844,30.14453zm0,-40.19531c5.54297,0 10.05078,4.50781 10.05078,10.05078c0,5.53906 -4.50781,10.04688 -10.05078,10.04688c-5.53906,0 -10.05078,-4.50782 -10.05078,-10.04688c0,-5.54297 4.51172,-10.05078 10.05078,-10.05078zm0,0"/>
  <path id="svg_13" d="m131.47656,89.16406c16.6211,0 30.14453,-13.52343 30.14453,-30.14453c0,-16.625 -13.52343,-30.14844 -30.14453,-30.14844c-16.625,0 -30.14843,13.52344 -30.14843,30.14844c0,16.6211 13.52343,30.14453 30.14843,30.14453zm0,-40.19531c5.53907,0 10.04688,4.50781 10.04688,10.05078c0,5.53906 -4.50781,10.04688 -10.04688,10.04688c-5.54297,0 -10.05078,-4.50782 -10.05078,-10.04688c0,-5.54297 4.50781,-10.05078 10.05078,-10.05078zm0,0"/>
  <path id="svg_14" d="m320.41797,69.27344l106.88672,0c5.55078,0 10.05078,-4.5 10.05078,-10.05078c0,-5.55078 -4.5,-10.04688 -10.05078,-10.04688l-106.88672,0c-5.54688,0 -10.04688,4.4961 -10.04688,10.04688c0,5.55078 4.5,10.05078 10.04688,10.05078zm0,0"/>
  <path id="svg_15" d="m447.02734,62.92188c1.57813,3.91406 5.34375,6.29296 9.32032,6.29296c1.2539,0 2.52734,-0.23828 3.75781,-0.73437c5.14844,-2.07813 7.63672,-7.93359 5.55859,-13.07813l-0.11328,-0.28906c-2.07812,-5.14844 -7.9375,-7.63281 -13.08203,-5.55859c-5.14453,2.07422 -7.63672,7.93359 -5.55859,13.07812l0.11718,0.28907zm0,0"/>
  <path id="svg_17" d="m387.5625,258.70313l-0.11328,-0.28907c-2.07813,-5.14843 -7.9375,-7.63281 -13.08203,-5.55859c-5.14453,2.07422 -7.63281,7.92969 -5.5586,13.07812l0.11719,0.28516c1.57813,3.91797 5.34375,6.29297 9.32031,6.29297c1.25391,0 2.52735,-0.23438 3.75782,-0.73438c5.14843,-2.07422 7.63672,-7.92968 5.55859,-13.07421zm0,0"/>
  <g stroke="null" id="svg_25">
   <path stroke="null" id="svg_21" fill="#e48e66" d="m296.929272,248.281026c0,23.282419 -18.874213,42.156635 -42.156635,42.156635s-42.156635,-18.874216 -42.156635,-42.156635c0,-23.282422 18.874216,-42.156635 42.156635,-42.156635s42.156635,18.874213 42.156635,42.156635zm0,0"/>
   <path stroke="null" id="svg_22" fill="#6fe3ff" d="m307.753445,226.167792c-0.491491,-1.143852 -1.812687,-1.679679 -2.961607,-1.198322c-1.148921,0.480089 -1.697411,1.796216 -1.227455,2.950206c2.698125,6.448898 4.080123,13.371556 4.066189,20.36135c0,29.146092 -23.71184,52.857935 -52.857935,52.857935s-52.857935,-23.711843 -52.857935,-52.857935c0,-29.146096 23.71184,-52.857935 52.857935,-52.857935c5.923212,-0.007601 11.805885,0.984244 17.399746,2.931203c0.766369,0.272345 1.621409,0.114005 2.238303,-0.416754c0.616898,-0.530755 0.903177,-1.351594 0.749902,-2.1509c-0.153272,-0.799303 -0.723298,-1.4542 -1.493467,-1.718947c-6.073951,-2.115433 -12.462049,-3.192149 -18.894484,-3.184548c-31.650411,0 -57.397881,25.748735 -57.397881,57.397881c0,31.650411 25.74747,57.397881 57.397881,57.397881s57.397881,-25.74747 57.397881,-57.397881c0.013934,-7.591489 -1.487137,-15.109506 -4.417072,-22.113234zm0,0"/>
   <path stroke="null" id="svg_23" fill="#3f3b3a" d="m273.081892,223.677408c0,-1.252791 -1.017181,-2.269973 -2.269973,-2.269973l-32.078566,0c-1.252791,0 -2.269973,1.017181 -2.269973,2.269973c0,1.254059 1.017181,2.269973 2.269973,2.269973l9.177428,0c5.470991,0.007601 10.180678,3.862248 11.270061,9.223032l-20.447489,0c-1.252791,0 -2.269973,1.015913 -2.269973,2.269973s1.017181,2.269973 2.269973,2.269973l20.450022,0c-1.085582,5.364584 -5.79907,9.223032 -11.272594,9.225565l-9.177428,0c-0.929774,0 -1.765815,0.567493 -2.110364,1.431399c-0.343281,0.863906 -0.125406,1.850686 0.551026,2.489116l22.942938,21.67748c0.910775,0.861374 2.347243,0.820838 3.208616,-0.08994c0.861374,-0.912043 0.820838,-2.348507 -0.089936,-3.209881l-18.794411,-17.75823l3.469559,0c7.979106,-0.001268 14.744689,-5.867474 15.875878,-13.76551l7.025261,0c1.252791,0 2.269973,-1.015913 2.269973,-2.269973s-1.017181,-2.269973 -2.269973,-2.269973l-7.029061,0c-0.50289,-3.511366 -2.159769,-6.755448 -4.707155,-9.223032l11.736216,0c1.252791,0 2.269973,-1.015913 2.269973,-2.269973zm0,0"/>
   <path stroke="null" id="svg_24" fill="#f93e3e" d="m281.54924,205.612632l10.56576,10.564495c0.872775,0.872772 2.281374,0.887974 3.173149,0.036735l18.619603,-17.787363c0.595359,-0.557359 0.844907,-1.392132 0.654897,-2.185102c-0.191278,-0.794237 -0.79297,-1.423801 -1.577073,-1.650546c-0.782839,-0.226744 -1.627742,-0.015199 -2.21297,0.553559l-17.015929,16.253361l-8.996288,-8.99502c-0.886706,-0.88671 -2.324439,-0.88671 -3.211149,0c-0.885442,0.885439 -0.885442,2.323174 0,3.209881zm0,0"/>
  </g>
 </g>
</svg>