<?xml version="1.0"?>
<svg xmlns="http://www.w3.org/2000/svg" id="Fill_out_line" height="512px" viewBox="0 0 512 512" width="512px" data-name="Fill out line" class=""><g><path d="m241.248 456h184v40h-184z" fill="#3ea7ff" data-original="#3EA7FF" style="fill:#3EA7FF" class=""/><path d="m225.248 336 48 120h80v-120z" fill="#fe99a0" data-original="#FE99A0" style="fill:#FE99A0" class=""/><path d="m73.248 16h336v40h-336z" fill="#808080" data-original="#808080" style="fill:#808080" class=""/><path d="m129.248 56h224v280h-224z" fill="#a0cc00" data-original="#A0CC00" style="fill:#FEC057" class="" data-old_color="#a0cc00"/><g fill="#85b200"><path d="m201.24757 336h-72v-72a72.00575 72.00575 0 0 1 72 72z" data-original="#000000" style="fill:#2D2C2C" class="active-path" data-old_color="#000000"/><path d="m353.24757 264v72h-72a72.00575 72.00575 0 0 1 72-72z" data-original="#000000" style="fill:#2D2C2C" class="active-path" data-old_color="#000000"/><path d="m313.24757 56a72 72 0 0 1 -144 0z" data-original="#000000" style="fill:#2D2C2C" class="active-path" data-old_color="#000000"/></g><path d="m439.07765 299.37012-29.83008 156.62988h-72l-8-8a79.19237 79.19237 0 0 1 0-112l-54.06006-54.07007a33.89088 33.89088 0 0 1 -9.93994-23.99v-.65993a33.27993 33.27993 0 0 1 33.28-33.28h.65991a33.95618 33.95618 0 0 1 24 9.93994l30.06009 30.06006v-144a44.39571 44.39571 0 0 1 42.12012 30.35986l42.22 126.66016a44.40117 44.40117 0 0 1 1.48996 22.3501z" fill="#ffc7cc" data-original="#FFC7CC" class="" style="fill:#FFC7CC" data-old_color="#ffc7cc"/><path d="m329.248 240 48 48" fill="#ffc7cc" data-original="#FFC7CC" class="" style="fill:#FFC7CC" data-old_color="#ffc7cc"/><path d="m388.55763 288a8.00358 8.00358 0 0 1 -11.31006 0l-24-24v-22.62012l35.31006 35.31006a7.98533 7.98533 0 0 1 0 11.31006z" fill="#fe99a0" data-original="#FE99A0" style="fill:#FE99A0" class=""/><path d="m445.54054 275.57812-43.58594-130.75781a47.927 47.927 0 0 0 -40.707-32.56982v-48.25049h48a8.00039 8.00039 0 0 0 8-8v-40h-16v32h-320v-32h-16v40a8.00039 8.00039 0 0 0 8 8h48v272a8.00039 8.00039 0 0 0 8 8h90.584l41.6001 104h-20.18413a8.00039 8.00039 0 0 0 -8 8v40h16v-32h168v32h16v-40a8.00039 8.00039 0 0 0 -8-8h-6.33252l28.23975-148.26074a48.108 48.108 0 0 0 -1.61426-24.16114zm-140.81079-211.57812a63.982 63.982 0 0 1 -126.96436 0zm-143.0813 0a80.00014 80.00014 0 0 0 159.19824 0h24.40088v180.68652l-16.40137-16.40234a41.94165 41.94165 0 0 0 -59.31445 59.31445l12.31372 12.31348a79.80581 79.80581 0 0 0 -8.19556 28.08789h-64.80322a80.14141 80.14141 0 0 0 -71.59912-71.59912v-192.40088zm148.2854 264h-20.179a63.86356 63.86356 0 0 1 4.16163-16.01709zm-172.68628-55.48218a64.10538 64.10538 0 0 1 55.48218 55.48218h-55.48218zm294.19043 24.2273-28.81006 151.25488h-123.96435l-41.6001-104h75.37768a86.93036 86.93036 0 0 0 -10.30883 74.418l15.252-4.83594a71.013 71.013 0 0 1 17.52051-71.9248 8.00122 8.00122 0 0 0 0-11.31446l-54.0586-54.05859a25.9406 25.9406 0 1 1 36.68555-36.68555l30.05859 30.0586 24 24 11.31446-11.31446-21.65723-21.65722v-132.3223a31.95457 31.95457 0 0 1 25.52734 21.51758l43.58594 130.75781a32.07418 32.07418 0 0 1 1.0771 16.10645z" data-original="#000000" style="fill:#2D2C2C" class="active-path" data-old_color="#000000"/></g> </svg>
