<svg width="496.8" height="496.8" xmlns="http://www.w3.org/2000/svg">

 <g>
  <title>background</title>
  <rect fill="none" id="canvas_background" height="402" width="582" y="-1" x="-1"/>
 </g>
 <g>
  <title>Layer 1</title>
  <path id="svg_1" fill="#F44D3B" d="m496,380.8c0,10.4 -8.8,19.2 -19.2,19.2l-457.6,0c-10.4,0 -19.2,-8.8 -19.2,-19.2l0,-265.6c0,-10.4 8.8,-19.2 19.2,-19.2l458.4,0c10.4,0 19.2,8.8 19.2,19.2l0,265.6l-0.8,0z"/>
  <path id="svg_2" fill="#ff5656" d="m0,115.2c0,-10.4 8.8,-19.2 19.2,-19.2l458.4,0c10.4,0 19.2,8.8 19.2,19.2l0,266.4c0,10.4 -8.8,19.2 -19.2,19.2"/>
  <path id="svg_3" fill="#c41f1f" d="m184,96l292.8,0c10.4,0 19.2,8.8 19.2,19.2l0,266.4c0,10.4 -8.8,19.2 -19.2,19.2"/>
  <rect id="svg_4" fill="#073C60" height="96" width="496" y="152"/>
  <polyline id="svg_5" fill="#00233F" points="496,248 496,152 0,152 "/>
  <g id="svg_6">
   <path id="svg_7" fill="#073C60" d="m192,289.6c0,3.2 -2.4,6.4 -6.4,6.4l-131.2,0c-4,0 -6.4,-2.4 -6.4,-6.4l0,-4c0,-3.2 2.4,-5.6 6.4,-5.6l132,0c3.2,0 6.4,2.4 6.4,6.4l0,3.2l-0.8,0z"/>
   <path id="svg_8" fill="#073C60" d="m192,321.6c0,3.2 -2.4,6.4 -6.4,6.4l-131.2,0c-4,0 -6.4,-2.4 -6.4,-6.4l0,-4c0,-3.2 2.4,-5.6 6.4,-5.6l132,0c3.2,0 6.4,2.4 6.4,6.4l0,3.2l-0.8,0z"/>
   <path id="svg_9" fill="#073C60" d="m192,353.6c0,3.2 -2.4,6.4 -6.4,6.4l-131.2,0c-4,0 -6.4,-2.4 -6.4,-6.4l0,-4c0,-3.2 2.4,-5.6 6.4,-5.6l132,0c3.2,0 6.4,2.4 6.4,6.4l0,3.2l-0.8,0z"/>
  </g>
  <path id="svg_10" fill="#23C181" d="m364,321.6c0,-15.2 7.2,-28 17.6,-36.8c-8,-6.4 -18.4,-10.4 -29.6,-10.4c-26.4,0 -47.2,20.8 -47.2,47.2s20.8,47.2 47.2,47.2c11.2,0 21.6,-4 29.6,-10.4c-11.2,-8.8 -17.6,-21.6 -17.6,-36.8z"/>
  <path id="svg_11" fill="#0CAA7D" d="m352,368.8c11.2,0 21.6,-4 29.6,-10.4c-11.2,-8.8 -17.6,-21.6 -17.6,-36.8c0,-15.2 7.2,-28 17.6,-36.8c-8,-6.4 -18.4,-10.4 -29.6,-10.4"/>
  <path id="svg_12" fill="#F4AD31" d="m411.2,274.4c-11.2,0 -21.6,4 -29.6,10.4c11.2,8.8 17.6,21.6 17.6,36.8c0,15.2 -7.2,28 -17.6,36.8c8,6.4 18.4,10.4 29.6,10.4c26.4,0 47.2,-20.8 47.2,-47.2s-21.6,-47.2 -47.2,-47.2z"/>
  <g id="svg_13">
   <path id="svg_14" fill="#E2821A" d="m411.2,368.8c26.4,0 47.2,-20.8 47.2,-47.2s-20.8,-47.2 -47.2,-47.2"/>
  </g>
  <g id="svg_15">
   <circle id="svg_16" fill="#EADAEA" r="8.8" cy="230" cx="337.4"/>
   <circle id="svg_17" fill="#EADAEA" r="8.8" cy="230" cx="380.6"/>
   <circle id="svg_18" fill="#EADAEA" r="8.8" cy="230" cx="423.8"/>
  </g>
  <g id="svg_19"/>
  <g id="svg_20"/>
  <g id="svg_21"/>
  <g id="svg_22"/>
  <g id="svg_23"/>
  <g id="svg_24"/>
  <g id="svg_25"/>
  <g id="svg_26"/>
  <g id="svg_27"/>
  <g id="svg_28"/>
  <g id="svg_29"/>
  <g id="svg_30"/>
  <g id="svg_31"/>
  <g id="svg_32"/>
  <g id="svg_33"/>
 </g>
</svg>