<svg width="490" height="490" xmlns="http://www.w3.org/2000/svg">

 <g>
  <title>background</title>
  <rect fill="none" id="canvas_background" height="402" width="582" y="-1" x="-1"/>
 </g>
 <g>
  <title>Layer 1</title>
  <circle id="svg_1" r="245" fill="#fe5d6d" cy="245" cx="245"/>
  <path id="svg_2" fill="#fec753" d="m432.753,26.137l-350.786,0c-32.169,0 -58.247,26.078 -58.247,58.247l0,198.923c0,32.169 26.078,58.247 58.247,58.247c19.763,0 35.783,16.021 35.783,35.784l0,43.606c0,12.877 16.842,17.741 23.707,6.846l27.05,-42.928c16.986,-26.956 46.618,-43.308 78.48,-43.308l185.766,0c32.169,0 58.247,-26.078 58.247,-58.247l0,-198.923c0,-32.169 -26.078,-58.247 -58.247,-58.247z"/>
  <path id="svg_3" fill="#e0a336" d="m144.727,341.554c-32.169,0 -58.247,-26.078 -58.247,-58.247l0,-198.923c0,-32.169 26.078,-58.247 58.247,-58.247l-63.76,0c-32.169,0 -58.247,26.078 -58.247,58.247l0,198.923c0,32.169 26.078,58.247 58.247,58.247c19.763,0 35.784,16.021 35.784,35.784l0,43.606c0,12.877 16.841,17.741 23.707,6.846l27.05,-42.928c3.521,-5.588 7.612,-10.69 12.127,-15.315c-3.56,-16.012 -17.824,-27.993 -34.908,-27.993z"/>
  <circle id="svg_8" r="22" fill="#ffe6a9" cy="77.029" cx="449.971"/>
  <circle id="svg_9" r="16" fill="#ffe6a9" cy="115.213" cx="411.787"/>
  <text font-weight="bold" stroke="null" transform="matrix(6.535492897033691,0,0,6.807692527770996,-1120.9373116493225,-1024.7854955643415) " xml:space="preserve" text-anchor="start" font-family="'Shadows Into Light', serif" font-size="24" id="svg_10" y="186.729962" x="188.882052" stroke-opacity="null" stroke-width="0" fill="#191919">OTP</text>
 </g>
</svg>