<svg width="483.44084" height="483" xmlns="http://www.w3.org/2000/svg">

 <g>
  <title>background</title>
  <rect fill="none" id="canvas_background" height="402" width="582" y="-1" x="-1"/>
 </g>
 <g>
  <title>Layer 1</title>
  <path stroke="null" id="svg_1" fill="#ffdaaa" d="m17.372655,332.05859c3.5384,-7.6875 9.961657,-13.64062 17.854418,-16.53906c7.88889,-2.89453 16.597601,-2.5 24.200328,1.10156l107.606005,50.60547c4.191945,1.97266 8.755121,2.99219 13.37631,2.99219l19.594612,0c-17.494779,0 -31.679308,-14.32422 -31.679308,-32c0,-17.67187 14.184529,-32 31.679308,-32l118.797403,0c20.132141,-0.01953 38.079359,12.8125 44.74625,32l34.452019,0l0,104l-214.736364,0c-4.62505,0 -9.188237,-1.01953 -13.380171,-2.99219l-137.224148,-64.60547c-11.125654,-5.30078 -18.221789,-16.61328 -18.217928,-29.03906c0.003871,-4.66797 1.005452,-9.28125 2.931267,-13.52344zm0,0"/>
  <path id="svg_2" fill="#3d9ae2" d="m478,301.21875l-80,0l0,160l80,0l0,-160zm0,0"/>
  <path id="svg_3" fill="#ffd422" d="m208,80.21875c0,39.76563 -32.23437,72 -72,72s-72,-32.23437 -72,-72c0,-39.76172 32.23438,-72 72,-72s72,32.23828 72,72zm0,0"/>
  <path id="svg_4" fill="#ffa733" d="m256,232.21875l-112,0c-4.41797,0 -8,3.58203 -8,8l0,32c0,4.42188 3.58203,8 8,8l112,0c4.41797,0 8,-3.57812 8,-8l0,-32c0,-4.41797 -3.58203,-8 -8,-8zm0,0"/>
  <path id="svg_5" fill="#ffb655" d="m248,184.21875l-112,0c-4.41797,0 -8,3.58203 -8,8l0,32c0,4.42188 3.58203,8 8,8l112,0c4.41797,0 8,-3.57812 8,-8l0,-32c0,-4.41797 -3.58203,-8 -8,-8zm0,0"/>
  <path id="svg_6" fill="#ffa733" d="m424,184.21875l-112,0c-4.41797,0 -8,3.58203 -8,8l0,32c0,4.42188 3.58203,8 8,8l112,0c4.41797,0 8,-3.57812 8,-8l0,-32c0,-4.41797 -3.58203,-8 -8,-8zm0,0"/>
  <path id="svg_7" fill="#ffb655" d="m408,136.21875l-112,0c-4.41797,0 -8,3.58203 -8,8l0,32c0,4.42188 3.58203,8 8,8l112,0c4.41797,0 8,-3.57812 8,-8l0,-32c0,-4.41797 -3.58203,-8 -8,-8zm0,0"/>
  <path id="svg_8" fill="#ffa733" d="m424,88.21875l-112,0c-4.41797,0 -8,3.58203 -8,8l0,32c0,4.42188 3.58203,8 8,8l112,0c4.41797,0 8,-3.57812 8,-8l0,-32c0,-4.41797 -3.58203,-8 -8,-8zm0,0"/>
  <path id="svg_9" fill="#ffb655" d="m416,232.21875l-112,0c-4.41797,0 -8,3.58203 -8,8l0,32c0,4.42188 3.58203,8 8,8l112,0c4.41797,0 8,-3.57812 8,-8l0,-32c0,-4.41797 -3.58203,-8 -8,-8zm0,0"/>
  <path stroke="null" id="svg_10" d="m10.103253,325.03769c4.395742,-9.722522 12.376482,-17.248493 22.178522,-20.914686s20.618492,-3.16841 30.063187,1.374817l101.962772,48.806204c-6.76268,-12.531432 -6.570561,-27.800647 0.495677,-40.150347c7.070075,-12.349701 19.965271,-19.930973 33.901773,-19.934928l118.039507,0c21.275549,-0.015808 40.649088,12.590688 49.740284,32.363636l21.08342,0l0,-24.272727c0,-4.468174 3.523509,-8.090909 7.8693,-8.090909l78.693005,0c4.345792,0 7.8693,3.622735 7.8693,8.090909l0,161.81818c0,4.472118 -3.523509,8.090909 -7.8693,8.090909l-78.693005,0c-4.345792,0 -7.8693,-3.618791 -7.8693,-8.090909l0,-16.181818l-205.497102,0c-5.744432,-0.003954 -11.415866,-1.29581 -16.622353,-3.784715l-136.360222,-65.351476c-19.611772,-9.524982 -28.084343,-33.525116 -18.985464,-53.772141zm393.203742,130.99924l62.954404,0l0,-145.636362l-62.954404,0l0,145.636362zm-367.559345,-91.880019l136.35253,65.343577c3.123906,1.48544 6.524457,2.259761 9.971112,2.263715l205.497102,0l0,-88.999999l-26.362924,0c-3.346764,0 -6.328491,-2.180753 -7.42742,-5.436079c-5.525419,-16.154167 -20.376422,-26.955207 -37.033361,-26.927557l-118.039507,0c-13.037375,0 -23.607901,10.868205 -23.607901,24.272727c0,13.408467 10.570526,24.272727 23.607901,24.272727l70.823704,0l0,16.181818l-90.30099,0c-5.732913,-0.003954 -11.396655,-1.29581 -16.595469,-3.784715l-106.950246,-51.192385c-11.769365,-5.66126 -25.771192,-0.446416 -31.281237,11.650444c-1.448591,3.235565 -2.201712,6.755585 -2.205558,10.319064c0.007692,9.418324 5.279504,17.995163 13.552263,22.036663zm0,0"/>
  <path id="svg_12" d="m136,160.21875c44.18359,0 80,-35.81641 80,-80c0,-44.17969 -35.81641,-80 -80,-80s-80,35.82031 -80,80c0.04688,44.16406 35.83594,79.95313 80,80zm0,-144c35.34766,0 64,28.65625 64,64c0,35.34766 -28.65234,64 -64,64s-64,-28.65234 -64,-64c0.03906,-35.32812 28.67188,-63.95703 64,-64zm0,0"/>
  <path id="svg_13" d="m120,192.21875l0,32c0.01953,5.77734 3.16016,11.09375 8.21484,13.89063c-0.12109,0.69531 -0.1914,1.40234 -0.21484,2.10937l0,32c0,8.83984 7.16406,16 16,16l112,0c8.83594,0 16,-7.16016 16,-16l0,-32c-0.01953,-5.77344 -3.16016,-11.08984 -8.21484,-13.88672c0.12109,-0.69922 0.1914,-1.40234 0.21484,-2.11328l0,-32c0,-8.83594 -7.16406,-16 -16,-16l-112,0c-8.83594,0 -16,7.16406 -16,16zm136,80l-112,0l0,-32l16,0l0,16l16,0l0,-16l16,0l0,16l16,0l0,-16l16,0l0,16l16,0l0,-16l16,0l0,32zm-8,-48l-112,0l0,-32l16,0l0,16l16,0l0,-16l16,0l0,16l16,0l0,-16l16,0l0,16l16,0l0,-16l16,0l0,32zm0,0"/>
  <path id="svg_14" d="m296,192.21875l0,32c0.02344,0.71094 0.09375,1.41406 0.21484,2.11328c-5.05468,2.79688 -8.19531,8.11328 -8.21484,13.88672l0,32c0,8.83984 7.16406,16 16,16l112,0c8.83594,0 16,-7.16016 16,-16l0,-32c-0.02344,-0.70703 -0.09375,-1.41406 -0.21484,-2.10937c5.05468,-2.79688 8.19531,-8.11329 8.21484,-13.89063l0,-32c0,-8.83594 -7.16406,-16 -16,-16l0,-32c8.83594,0 16,-7.16016 16,-16l0,-32c0,-8.83594 -7.16406,-16 -16,-16l-112,0c-8.83594,0 -16,7.16406 -16,16l0,32c-8.83594,0 -16,7.16406 -16,16l0,32c0,8.83984 7.16406,16 16,16zm48,16l0,-16l16,0l0,16l16,0l0,-16l16,0l0,16l16,0l0,-16l16,0l0,32l-112,0l0,-32l16,0l0,16l16,0zm72,64l-112,0l0,-32l16,0l0,16l16,0l0,-16l16,0l0,16l16,0l0,-16l16,0l0,16l16,0l0,-16l16,0l0,32zm-104,-176l16,0l0,16l16,0l0,-16l16,0l0,16l16,0l0,-16l16,0l0,16l16,0l0,-16l16,0l0,32l-112,0l0,-32zm-16,48l16,0l0,16l16,0l0,-16l16,0l0,16l16,0l0,-16l16,0l0,16l16,0l0,-16l16,0l0,32l-112,0l0,-32zm0,0"/>
  <g stroke="null" id="svg_36">
   <g stroke="null" transform="matrix(0.2384069138125842,0,0,0.2384069138125842,-53.573118591226375,-16.17535577693252) " id="svg_19">
    <path stroke="null" id="svg_20" d="m936.392044,298.433544c-1.711,-1.713 -3.901,-2.568 -6.563,-2.568l-48.82,0c-3.238,-15.793 -9.329,-29.502 -18.274,-41.112l66.52,0c2.669,0 4.853,-0.856 6.57,-2.565c1.704,-1.712 2.56,-3.903 2.56,-6.567l0,-29.128c0,-2.666 -0.855,-4.853 -2.56,-6.567c-1.719,-1.71 -3.903,-2.569 -6.572,-2.569l-237.54,0c-2.666,0 -4.853,0.859 -6.567,2.568c-1.709,1.714 -2.568,3.901 -2.568,6.567l0,37.972c0,2.474 0.904,4.615 2.712,6.423s3.949,2.712 6.423,2.712l41.399,0c40.159,0 65.665,10.751 76.513,32.261l-117.912,0c-2.666,0 -4.856,0.855 -6.567,2.568c-1.709,1.715 -2.568,3.901 -2.568,6.567l0,29.124c0,2.664 0.855,4.854 2.568,6.563c1.714,1.715 3.905,2.568 6.567,2.568l121.915,0c-4.188,15.612 -13.944,27.506 -29.268,35.691c-15.325,8.186 -35.544,12.279 -60.67,12.279l-31.977,0c-2.474,0 -4.615,0.905 -6.423,2.712c-1.809,1.809 -2.712,3.951 -2.712,6.423l0,36.263c0,2.478 0.855,4.571 2.568,6.282c36.543,38.828 83.939,93.165 142.182,163.025c1.715,2.286 4.093,3.426 7.139,3.426l55.672,0c4.001,0 6.763,-1.708 8.281,-5.141c1.903,-3.426 1.53,-6.662 -1.143,-9.708c-55.572,-68.143 -99.258,-119.153 -131.045,-153.032c32.358,-3.806 58.625,-14.277 78.802,-31.404c20.174,-17.129 32.449,-39.403 36.83,-66.811l47.965,0c2.662,0 4.853,-0.854 6.563,-2.568c1.715,-1.709 2.573,-3.899 2.573,-6.563l0,-29.121c0,-2.669 -0.858,-4.856 -2.573,-6.57z"/>
   </g>
   <g stroke="null" transform="matrix(0.2384069138125842,0,0,0.2384069138125842,-53.573118591226375,-16.17535577693252) " id="svg_21"/>
   <g stroke="null" transform="matrix(0.2384069138125842,0,0,0.2384069138125842,-53.573118591226375,-16.17535577693252) " id="svg_22"/>
   <g stroke="null" transform="matrix(0.2384069138125842,0,0,0.2384069138125842,-53.573118591226375,-16.17535577693252) " id="svg_23"/>
   <g stroke="null" transform="matrix(0.2384069138125842,0,0,0.2384069138125842,-53.573118591226375,-16.17535577693252) " id="svg_24"/>
   <g stroke="null" transform="matrix(0.2384069138125842,0,0,0.2384069138125842,-53.573118591226375,-16.17535577693252) " id="svg_25"/>
   <g stroke="null" transform="matrix(0.2384069138125842,0,0,0.2384069138125842,-53.573118591226375,-16.17535577693252) " id="svg_26"/>
   <g stroke="null" transform="matrix(0.2384069138125842,0,0,0.2384069138125842,-53.573118591226375,-16.17535577693252) " id="svg_27"/>
   <g stroke="null" transform="matrix(0.2384069138125842,0,0,0.2384069138125842,-53.573118591226375,-16.17535577693252) " id="svg_28"/>
   <g stroke="null" transform="matrix(0.2384069138125842,0,0,0.2384069138125842,-53.573118591226375,-16.17535577693252) " id="svg_29"/>
   <g stroke="null" transform="matrix(0.2384069138125842,0,0,0.2384069138125842,-53.573118591226375,-16.17535577693252) " id="svg_30"/>
   <g stroke="null" transform="matrix(0.2384069138125842,0,0,0.2384069138125842,-53.573118591226375,-16.17535577693252) " id="svg_31"/>
   <g stroke="null" transform="matrix(0.2384069138125842,0,0,0.2384069138125842,-53.573118591226375,-16.17535577693252) " id="svg_32"/>
   <g stroke="null" transform="matrix(0.2384069138125842,0,0,0.2384069138125842,-53.573118591226375,-16.17535577693252) " id="svg_33"/>
   <g stroke="null" transform="matrix(0.2384069138125842,0,0,0.2384069138125842,-53.573118591226375,-16.17535577693252) " id="svg_34"/>
   <g stroke="null" transform="matrix(0.2384069138125842,0,0,0.2384069138125842,-53.573118591226375,-16.17535577693252) " id="svg_35"/>
  </g>
 </g>
</svg>