<svg width="64" height="64" xmlns="http://www.w3.org/2000/svg">

 <g>
  <title>background</title>
  <rect fill="none" id="canvas_background" height="402" width="582" y="-1" x="-1"/>
 </g>
 <g>
  <title>Layer 1</title>
  <path id="svg_1" fill="#f73445" d="m47,30l8,0l0,32l-8,0l0,-32z"/>
  <path id="svg_2" fill="#f59536" d="m33,38l8,0l0,24l-8,0l0,-24z"/>
  <path id="svg_3" fill="#fed966" d="m19,44l8,0l0,18l-8,0l0,-18z"/>
  <path id="svg_4" fill="#4ba678" d="m5,49l8,0l0,13l-8,0l0,-13z"/>
  <path id="svg_5" fill="#ffd700" d="m51.00977,24l-0.002,-2a9.0086,9.0086 0 0 0 2.78028,-0.44043l0.61914,1.90234a11.01744,11.01744 0 0 1 -3.39742,0.53809zm-3.39649,-0.53174a10.95874,10.95874 0 0 1 -3.06738,-1.56006l1.17383,-1.61914a8.961,8.961 0 0 0 2.50879,1.27588l-0.61524,1.90332zm9.8584,-1.57226l-1.17768,-1.61621a9.05143,9.05143 0 0 0 1.99023,-1.99219l1.61719,1.17578a11.02009,11.02009 0 0 1 -2.42974,2.43262zm-15.36133,-2.41553a10.9416,10.9416 0 0 1 -1.56835,-3.06247l1.90039,-0.62109a8.9346,8.9346 0 0 0 1.28321,2.5039l-1.61525,1.17966zm19.35449,-3.083l-1.90235,-0.61621a9.01591,9.01591 0 0 0 0.43751,-2.78126l2,-0.03955l0,0.03955a10.98738,10.98738 0 0 1 -0.53516,3.39746l0,0.00001zm-21.46484,-3.37794l0,-0.01953a11.01485,11.01485 0 0 1 0.52734,-3.377l1.9043,0.61328a9.00334,9.00334 0 0 0 -0.43164,2.76372l-2,0.01953zm19.55176,-2.833a8.92286,8.92286 0 0 0 -1.28809,-2.50146l1.61333,-1.18263a10.94128,10.94128 0 0 1 1.5752,3.06006l-1.90044,0.62403zm-15.84668,-2.459l-1.61914,-1.17382a11.04692,11.04692 0 0 1 2.4248,-2.43652l1.18164,1.61328a9.04968,9.04968 0 0 0 -1.9873,1.99707l0,-0.00001zm12.56055,-2.02733a8.93957,8.93957 0 0 0 -2.50977,-1.271l0.61133,-1.9043a10.93229,10.93229 0 0 1 3.0703,1.5542l-1.17186,1.6211zm-8.07129,-1.2544l-0.623,-1.90039a10.97877,10.97877 0 0 1 3.39648,-0.54492l0.00586,2a8.9825,8.9825 0 0 0 -2.77934,0.44531z"/>
  <circle id="svg_6" r="6" fill="#f4823f" cy="13" cx="51"/>
  <path id="svg_8" fill="#f73445" d="m7,2l-2,0l0,3l-3,0l0,2l3,0l0,3l2,0l0,-3l3,0l0,-2l-3,0l0,-3z"/>
  <path id="svg_9" fill="#f73445" d="m20,5l-3,0l0,-3l-2,0l0,3l-3,0l0,2l3,0l0,3l2,0l0,-3l3,0l0,-2z"/>
  <path id="svg_10" fill="#00ff7f" d="m32,20.578947a3.97778,3.97778 0 0 0 -3.60693,5.702l-5.85682,4.73382a2.9317,2.9317 0 0 0 -4.49957,2.92774l-6.95874,3.4793a3.34779,3.34779 0 1 0 0.88538,1.79364l6.95874,-3.4793a2.98539,2.98539 0 0 0 4.88763,-3.17835l5.86182,-4.73791a3.9961,3.9961 0 1 0 2.32849,-7.24094z"/>
  <g stroke="null" id="svg_32">
   <g stroke="null" transform="matrix(0.02248503431451712,0,0,0.02248503431451712,18.55264932013222,10.921483201508455) " id="svg_15">
    <path fill="#3d3836" stroke="null" id="svg_16" d="m1585.070043,1.731974c-1.711,-1.713 -3.901,-2.568 -6.563,-2.568l-48.82,0c-3.238,-15.793 -9.329,-29.502 -18.274,-41.112l66.52,0c2.669,0 4.853,-0.856 6.57,-2.565c1.704,-1.712 2.56,-3.903 2.56,-6.567l0,-29.128c0,-2.666 -0.855,-4.853 -2.56,-6.567c-1.719,-1.71 -3.903,-2.569 -6.572,-2.569l-237.54,0c-2.666,0 -4.853,0.859 -6.567,2.568c-1.709,1.714 -2.568,3.901 -2.568,6.567l0,37.972c0,2.474 0.904,4.615 2.712,6.423s3.949,2.712 6.423,2.712l41.399,0c40.159,0 65.665,10.751 76.513,32.261l-117.912,0c-2.666,0 -4.856,0.855 -6.567,2.568c-1.709,1.715 -2.568,3.901 -2.568,6.567l0,29.124c0,2.664 0.855,4.854 2.568,6.563c1.714,1.715 3.905,2.568 6.567,2.568l121.915,0c-4.188,15.612 -13.944,27.506 -29.268,35.691c-15.325,8.186 -35.544,12.279 -60.67,12.279l-31.977,0c-2.474,0 -4.615,0.905 -6.423,2.712c-1.809,1.809 -2.712,3.951 -2.712,6.423l0,36.263c0,2.478 0.855,4.571 2.568,6.282c36.543,38.828 83.939,93.165 142.182,163.025c1.715,2.286 4.093,3.426 7.139,3.426l55.672,0c4.001,0 6.763,-1.708 8.281,-5.141c1.903,-3.426 1.53,-6.662 -1.143,-9.708c-55.572,-68.143 -99.258,-119.153 -131.045,-153.032c32.358,-3.806 58.625,-14.277 78.802,-31.404c20.174,-17.129 32.449,-39.403 36.83,-66.811l47.965,0c2.662,0 4.853,-0.854 6.563,-2.568c1.715,-1.709 2.573,-3.899 2.573,-6.563l0,-29.121c0,-2.669 -0.858,-4.856 -2.573,-6.57z"/>
   </g>
   <g stroke="null" transform="matrix(0.02248503431451712,0,0,0.02248503431451712,18.55264932013222,10.921483201508455) " id="svg_17"/>
   <g stroke="null" transform="matrix(0.02248503431451712,0,0,0.02248503431451712,18.55264932013222,10.921483201508455) " id="svg_18"/>
   <g stroke="null" transform="matrix(0.02248503431451712,0,0,0.02248503431451712,18.55264932013222,10.921483201508455) " id="svg_19"/>
   <g stroke="null" transform="matrix(0.02248503431451712,0,0,0.02248503431451712,18.55264932013222,10.921483201508455) " id="svg_20"/>
   <g stroke="null" transform="matrix(0.02248503431451712,0,0,0.02248503431451712,18.55264932013222,10.921483201508455) " id="svg_21"/>
   <g stroke="null" transform="matrix(0.02248503431451712,0,0,0.02248503431451712,18.55264932013222,10.921483201508455) " id="svg_22"/>
   <g stroke="null" transform="matrix(0.02248503431451712,0,0,0.02248503431451712,18.55264932013222,10.921483201508455) " id="svg_23"/>
   <g stroke="null" transform="matrix(0.02248503431451712,0,0,0.02248503431451712,18.55264932013222,10.921483201508455) " id="svg_24"/>
   <g stroke="null" transform="matrix(0.02248503431451712,0,0,0.02248503431451712,18.55264932013222,10.921483201508455) " id="svg_25"/>
   <g stroke="null" transform="matrix(0.02248503431451712,0,0,0.02248503431451712,18.55264932013222,10.921483201508455) " id="svg_26"/>
   <g stroke="null" transform="matrix(0.02248503431451712,0,0,0.02248503431451712,18.55264932013222,10.921483201508455) " id="svg_27"/>
   <g stroke="null" transform="matrix(0.02248503431451712,0,0,0.02248503431451712,18.55264932013222,10.921483201508455) " id="svg_28"/>
   <g stroke="null" transform="matrix(0.02248503431451712,0,0,0.02248503431451712,18.55264932013222,10.921483201508455) " id="svg_29"/>
   <g stroke="null" transform="matrix(0.02248503431451712,0,0,0.02248503431451712,18.55264932013222,10.921483201508455) " id="svg_30"/>
   <g stroke="null" transform="matrix(0.02248503431451712,0,0,0.02248503431451712,18.55264932013222,10.921483201508455) " id="svg_31"/>
  </g>
 </g>
</svg>