<svg width="512" height="512" xmlns="http://www.w3.org/2000/svg">

 <g>
  <title>background</title>
  <rect fill="none" id="canvas_background" height="402" width="582" y="-1" x="-1"/>
 </g>
 <g>
  <title>Layer 1</title>
  <path id="svg_1" fill="#ff9f00" d="m512,272l0,60l-20.69922,25.19922l-115.20312,0l-14.09766,-25.19922l0,-60l35.69922,-32.69922c-1.5,-1.5 17.10156,0 39.30078,2.09766c29.69922,3 65.69922,7.19922 65.69922,7.19922l9.30078,23.40234zm0,0"/>
  <path id="svg_2" fill="#ff7816" d="m512,272l0,60l-20.69922,25.19922l-54.30078,0l0,-115.80078c29.69922,3 65.69922,7.19922 65.69922,7.19922l9.30078,23.40234zm0,0"/>
  <path id="svg_3" fill="#e63950" d="m451,15l0,60c0,8.39844 -6.59766,15 -15,15s-15,-6.60156 -15,-15l0,-23.69922l-154.5,155.19922c-2.69922,3 -6.60156,4.5 -10.5,4.5s-7.80078,-1.5 -10.5,-4.5l-49.5,-49.19922l-109.5,109.19922c-2.69922,3 -6.60156,4.5 -10.5,4.5s-7.80078,-1.5 -10.5,-4.5c-6,-5.69922 -6,-15.30078 0,-21l120,-120c5.69922,-6 15.30078,-6 21,0l49.5,49.19922l143.69922,-144.69922l-23.69922,0c-8.40234,0 -15,-6.60156 -15,-15c0,-8.40234 6.59766,-15 15,-15l60,0c8.40234,0 15,6.59766 15,15zm0,0"/>
  <g id="svg_4" fill="#ff9f00">
   <path id="svg_5" d="m150,407l0,45s-54.30078,28.19922 -57.30078,28.19922c-1.19922,0 -9,0.30078 -17.69922,0.60156c-12.59766,0 -27.30078,0.29688 -27.30078,0.29688l-47.69922,-29.09766l0,-45c0,-8.40234 6.59766,-15 15,-15l120,0c8.40234,0 15,6.59766 15,15zm0,0"/>
   <path id="svg_6" d="m331,392l0,60l-22.5,31.80078l-94.80078,0l-32.69922,-31.80078l0,-60l26.39844,-15.90234l96.30078,0l27.30078,15.90234zm0,0"/>
   <path id="svg_7" d="m512,392l0,60l-16.80078,23.39844l-104.10156,0l-29.09766,-23.39844l0,-60l19.80078,-18.60156l105,0l25.19922,18.60156zm0,0"/>
  </g>
  <path id="svg_8" fill="#f92039" d="m451,15l0,60c0,8.39844 -6.59766,15 -15,15s-15,-6.60156 -15,-15l0,-23.69922l-154.5,155.19922c-2.69922,3 -6.60156,4.5 -10.5,4.5l0,-36.30078l143.69922,-144.69922l-23.69922,0c-8.40234,0 -15,-6.60156 -15,-15c0,-8.40234 6.59766,-15 15,-15l60,0c8.40234,0 15,6.59766 15,15zm0,0"/>
  <path id="svg_9" fill="#ff7816" d="m331,392l0,60l-22.5,31.80078l-52.5,0l0,-107.70312l47.69922,0l27.30078,15.90234zm0,0"/>
  <path id="svg_10" fill="#ff7816" d="m486.80078,373.39844l25.19922,18.60156l0,60l-16.80078,23.39844l-58.19922,0l0,-102l49.80078,0zm0,0"/>
  <path id="svg_11" fill="#ff7816" d="m150,407l0,45s-54.30078,28.19922 -57.30078,28.19922c-1.19922,0 -9,0.30078 -17.69922,0.60156l0,-88.80078l60,0c8.40234,0 15,6.59766 15,15zm0,0"/>
  <path id="svg_12" fill="#ffd400" d="m512,452l0,45c0,8.39844 -6.59766,15 -15,15l-120,0c-8.40234,0 -15,-6.60156 -15,-15l0,-45l150,0zm0,0"/>
  <path id="svg_13" fill="#ffd400" d="m331,452l0,45c0,8.39844 -6.59766,15 -15,15l-120,0c-8.40234,0 -15,-6.60156 -15,-15l0,-45l150,0zm0,0"/>
  <path id="svg_14" fill="#ffd400" d="m150,452l0,45c0,8.39844 -6.59766,15 -15,15l-120,0c-8.40234,0 -15,-6.60156 -15,-15l0,-45l150,0zm0,0"/>
  <path id="svg_15" fill="#fdbf00" d="m256,452l75,0l0,45c0,8.39844 -6.59766,15 -15,15l-60,0l0,-60zm0,0"/>
  <path id="svg_16" fill="#fdbf00" d="m437,452l75,0l0,45c0,8.39844 -6.59766,15 -15,15l-60,0l0,-60zm0,0"/>
  <path id="svg_17" fill="#fdbf00" d="m150,452l0,45c0,8.39844 -6.59766,15 -15,15l-60,0l0,-60l75,0zm0,0"/>
  <path id="svg_18" fill="#ffd400" d="m362,332l150,0l0,60l-150,0l0,-60zm0,0"/>
  <path id="svg_19" fill="#ffd400" d="m331,347l0,45l-150,0l0,-45c0,-8.40234 6.59766,-15 15,-15l120,0c8.40234,0 15,6.59766 15,15zm0,0"/>
  <path id="svg_20" fill="#fdbf00" d="m331,347l0,45l-75,0l0,-60l60,0c8.40234,0 15,6.59766 15,15zm0,0"/>
  <path id="svg_21" fill="#fdbf00" d="m437,332l75,0l0,60l-75,0l0,-60zm0,0"/>
  <path id="svg_22" fill="#ffd400" d="m512,212l0,60l-150,0l0,-60c0,-8.40234 6.59766,-15 15,-15l120,0c8.40234,0 15,6.59766 15,15zm0,0"/>
  <path id="svg_23" fill="#fdbf00" d="m512,212l0,60l-75,0l0,-75l60,0c8.40234,0 15,6.59766 15,15zm0,0"/>
  <g stroke="null" id="svg_45">
   <g stroke="null" transform="matrix(0.21144220804778618,0,0,0.21144220804778618,-68.53683985652242,-15.887548016434266) " id="svg_28">
    <path fill="#007f7f" stroke="null" id="svg_29" d="m2521.248319,671.187168c-1.711,-1.713 -3.901,-2.568 -6.563,-2.568l-48.82,0c-3.238,-15.793 -9.329,-29.502 -18.274,-41.112l66.52,0c2.669,0 4.853,-0.856 6.57,-2.565c1.704,-1.712 2.56,-3.903 2.56,-6.567l0,-29.128c0,-2.666 -0.855,-4.853 -2.56,-6.567c-1.719,-1.71 -3.903,-2.569 -6.572,-2.569l-237.54,0c-2.666,0 -4.853,0.859 -6.567,2.568c-1.709,1.714 -2.568,3.901 -2.568,6.567l0,37.972c0,2.474 0.904,4.615 2.712,6.423s3.949,2.712 6.423,2.712l41.399,0c40.159,0 65.665,10.751 76.513,32.261l-117.912,0c-2.666,0 -4.856,0.855 -6.567,2.568c-1.709,1.715 -2.568,3.901 -2.568,6.567l0,29.124c0,2.664 0.855,4.854 2.568,6.563c1.714,1.715 3.905,2.568 6.567,2.568l121.915,0c-4.188,15.612 -13.944,27.506 -29.268,35.691c-15.325,8.186 -35.544,12.279 -60.67,12.279l-31.977,0c-2.474,0 -4.615,0.905 -6.423,2.712c-1.809,1.809 -2.712,3.951 -2.712,6.423l0,36.263c0,2.478 0.855,4.571 2.568,6.282c36.543,38.828 83.939,93.165 142.182,163.025c1.715,2.286 4.093,3.426 7.139,3.426l55.672,0c4.001,0 6.763,-1.708 8.281,-5.141c1.903,-3.426 1.53,-6.662 -1.143,-9.708c-55.572,-68.143 -99.258,-119.153 -131.045,-153.032c32.358,-3.806 58.625,-14.277 78.802,-31.404c20.174,-17.129 32.449,-39.403 36.83,-66.811l47.965,0c2.662,0 4.853,-0.854 6.563,-2.568c1.715,-1.709 2.573,-3.899 2.573,-6.563l0,-29.121c0,-2.669 -0.858,-4.856 -2.573,-6.57z"/>
   </g>
   <g stroke="null" transform="matrix(0.21144220804778618,0,0,0.21144220804778618,-68.53683985652242,-15.887548016434266) " id="svg_30"/>
   <g stroke="null" transform="matrix(0.21144220804778618,0,0,0.21144220804778618,-68.53683985652242,-15.887548016434266) " id="svg_31"/>
   <g stroke="null" transform="matrix(0.21144220804778618,0,0,0.21144220804778618,-68.53683985652242,-15.887548016434266) " id="svg_32"/>
   <g stroke="null" transform="matrix(0.21144220804778618,0,0,0.21144220804778618,-68.53683985652242,-15.887548016434266) " id="svg_33"/>
   <g stroke="null" transform="matrix(0.21144220804778618,0,0,0.21144220804778618,-68.53683985652242,-15.887548016434266) " id="svg_34"/>
   <g stroke="null" transform="matrix(0.21144220804778618,0,0,0.21144220804778618,-68.53683985652242,-15.887548016434266) " id="svg_35"/>
   <g stroke="null" transform="matrix(0.21144220804778618,0,0,0.21144220804778618,-68.53683985652242,-15.887548016434266) " id="svg_36"/>
   <g stroke="null" transform="matrix(0.21144220804778618,0,0,0.21144220804778618,-68.53683985652242,-15.887548016434266) " id="svg_37"/>
   <g stroke="null" transform="matrix(0.21144220804778618,0,0,0.21144220804778618,-68.53683985652242,-15.887548016434266) " id="svg_38"/>
   <g stroke="null" transform="matrix(0.21144220804778618,0,0,0.21144220804778618,-68.53683985652242,-15.887548016434266) " id="svg_39"/>
   <g stroke="null" transform="matrix(0.21144220804778618,0,0,0.21144220804778618,-68.53683985652242,-15.887548016434266) " id="svg_40"/>
   <g stroke="null" transform="matrix(0.21144220804778618,0,0,0.21144220804778618,-68.53683985652242,-15.887548016434266) " id="svg_41"/>
   <g stroke="null" transform="matrix(0.21144220804778618,0,0,0.21144220804778618,-68.53683985652242,-15.887548016434266) " id="svg_42"/>
   <g stroke="null" transform="matrix(0.21144220804778618,0,0,0.21144220804778618,-68.53683985652242,-15.887548016434266) " id="svg_43"/>
   <g stroke="null" transform="matrix(0.21144220804778618,0,0,0.21144220804778618,-68.53683985652242,-15.887548016434266) " id="svg_44"/>
  </g>
 </g>
</svg>